<svg width="64" height="11" viewBox="0 0 64 11" fill="none" xmlns="http://www.w3.org/2000/svg">
<path fill-rule="evenodd" clip-rule="evenodd" d="M42.7085 3.62397L44.4648 5.57768L42.7085 6.80918V3.62397ZM42.3261 3.59612C42.0563 3.72361 41.6045 3.87955 41.1936 4.03489V7.92806C41.1936 8.36682 41.1658 8.65025 41.1088 8.77774C41.0667 8.90522 40.9671 9.01847 40.8118 9.10325V9.27343C41.3353 9.38668 41.7741 9.49993 42.0569 9.59894C42.341 9.69796 42.7655 9.89599 43.2042 10.1367L45.4983 8.53762L45.3424 8.33959L44.3658 9.01909L42.7234 8.35383V7.12232L45.739 4.99905L43.8701 2.80462C43.1337 3.18583 42.5247 3.49711 42.3261 3.59612ZM53.2686 2.80338L55.0527 3.82262L54.2463 5.02566L52.7599 4.14813V8.39467L54.1609 9.03208L54.8825 8.50792L55.0527 8.72018L53.0996 10.1503C52.6751 9.90961 52.2357 9.69734 51.938 9.58348C51.6416 9.47023 51.2307 9.37121 50.7919 9.28643V9.1311C50.9479 9.01723 51.0469 8.9046 51.1026 8.77712C51.1738 8.60755 51.2016 8.33835 51.2016 7.97014V4.16237C52.094 3.80839 52.6887 3.41171 53.2686 2.80338ZM61.3798 4.20445C61.6069 4.28923 61.9176 4.41671 62.4566 4.67168V8.94668L60.9132 8.29565V4.0485C61.1397 4.0912 61.2251 4.14814 61.3798 4.20445ZM61.7066 2.80338C61.0976 3.36963 60.1922 3.83685 59.3846 4.10543V7.94167C59.3846 8.29566 59.3426 8.55 59.2856 8.70595C59.2435 8.8192 59.1297 8.94668 58.9737 9.0884L59.0307 9.21588C59.4416 9.24435 59.7955 9.30128 60.1211 9.41391C60.5456 9.56924 60.9844 9.75366 61.6224 10.1503C61.834 9.95169 62.2159 9.69734 62.443 9.56986C62.74 9.38606 63.3347 9.11686 64 8.84767V3.72299C63.0649 3.48287 62.3433 3.22791 61.7066 2.80338ZM27.0659 4.20445C27.2924 4.28923 27.5895 4.41671 28.1421 4.67168V8.94668L26.5993 8.29565V4.0485C26.8258 4.0912 26.9106 4.14814 27.0659 4.20445ZM27.3921 2.80338C26.7689 3.36963 25.8771 3.83685 25.0565 4.10543V7.94167C25.0565 8.29566 25.0281 8.55 24.9717 8.70595C24.9148 8.8192 24.8158 8.94668 24.6462 9.0884L24.7168 9.21588C25.1135 9.24435 25.4811 9.30128 25.793 9.41391C26.2175 9.56924 26.6562 9.75366 27.3073 10.1503C27.5195 9.95169 27.902 9.69734 28.1285 9.56986C28.4255 9.38606 29.0202 9.11686 29.6855 8.84767V3.72299C28.7504 3.48287 28.0146 3.22791 27.3921 2.80338ZM12.6697 8.70657L12.3015 9.00361L11.4802 8.39467V1.64242L12.0329 1.09041L10.7166 0L9.4003 1.09041L9.95231 1.64242V7.48868C9.95231 8.04069 9.93808 8.23872 9.92384 8.29565C9.90034 8.4395 9.85241 8.57826 9.78213 8.70595C9.71158 8.8192 9.61256 8.90398 9.4987 8.98938L9.48446 9.0884C9.79438 9.1716 10.0936 9.29038 10.3762 9.44238C10.5743 9.55563 10.8713 9.79636 11.2822 10.1503L12.8392 8.94668L12.6697 8.70657ZM24.3622 7.30488L24.1926 7.44659C23.6406 7.92806 23.0459 8.21087 22.5366 8.42376C22.0124 8.63602 21.4468 8.73504 20.8236 8.73504H20.4981V1.47224C21.0643 1.76928 21.3756 1.89738 21.9988 1.89738C22.8763 1.89738 23.6691 1.28906 24.278 0.383064L24.0373 0.255581C23.726 0.652262 23.3578 0.850297 22.9333 0.850297C22.4091 0.850297 21.7859 0.55325 21.008 0.0433192L17.9788 2.5775V5.59252C17.9788 6.41374 17.9645 6.64024 17.9076 6.78133C17.8513 6.9509 17.5963 7.19225 17.5963 7.19225C16.988 6.41373 16.6903 5.56468 16.6903 4.65807C16.6903 3.90802 16.8884 3.20006 17.2987 2.56327C17.6099 2.06757 18.0208 1.54402 18.6861 1.07679L18.7709 1.02048L18.6156 0.836062L18.5308 0.878763C17.5115 1.50132 16.7188 2.05395 16.2658 2.70498C15.6711 3.54042 15.374 4.46003 15.374 5.43719C15.374 6.22994 15.5869 7.00845 15.9972 7.75849C16.4035 8.48999 17.0065 9.09305 17.738 9.49931C18.458 9.89413 19.2667 10.0988 20.0878 10.094C20.6398 10.094 21.2203 10.0092 21.7865 9.81059C22.3121 9.63982 22.8051 9.38142 23.2445 9.04631C23.6412 8.7208 24.0088 8.28204 24.3913 7.67309L24.533 7.44659L24.3622 7.30488ZM20.1862 8.69233C19.7047 8.62179 19.1812 8.4516 18.8699 8.28142C18.4523 8.05739 18.0784 7.76016 17.7659 7.40389C18.1483 7.09261 18.7994 6.46943 19.1249 6.10183C19.2693 5.93615 19.3799 5.74378 19.4504 5.53559C19.4925 5.40811 19.5067 5.15314 19.5067 4.75708V1.7699L20.1862 1.18942V8.69233Z" fill="#393939"/>
<path fill-rule="evenodd" clip-rule="evenodd" d="M49.6594 2.80339L48.1581 4.10544C48.1581 3.87894 48.0591 3.69515 47.9743 3.5819C47.8184 3.34116 47.5356 3.0862 47.1537 2.80339L45.6246 4.11968L45.7947 4.31771C45.9637 4.14814 46.1345 4.03428 46.2335 4.03428C46.3325 4.03428 46.4173 4.09059 46.4872 4.20384C46.5732 4.31709 46.6153 4.54359 46.6153 4.88334V7.70095C46.6153 8.09763 46.5862 8.36621 46.5163 8.49369C46.4594 8.63541 46.3325 8.77712 46.1345 8.91822V9.05994C46.4488 9.15537 46.7523 9.28355 47.0399 9.44239C47.2806 9.5841 47.5925 9.82484 47.9595 10.1504L49.545 8.93307L49.3469 8.70658L48.9793 9.01786L48.1575 8.39529V4.44581L48.6396 4.00705C48.9923 4.44581 49.2331 4.71501 49.6161 4.71501C50.2808 4.71501 51.2152 3.6673 51.2152 3.6673L51.0884 3.52558C50.48 4.0776 49.9843 3.11467 49.6594 2.80339ZM8.98876 7.3185L8.8192 7.46022C8.26719 7.94168 7.65824 8.22449 7.14893 8.43738C6.63962 8.64964 6.05914 8.74866 5.43596 8.74866H5.11044V5.50713C5.30848 5.57768 5.49289 5.62038 5.69092 5.62038C6.44097 5.62038 7.21948 4.85611 7.75726 4.0776L7.51653 3.95011C7.24733 4.27563 6.96451 4.47366 6.5963 4.47366C6.186 4.47366 5.70454 4.26139 5.10983 3.89318V1.48648C5.69031 1.78353 5.98735 1.91101 6.61053 1.91101C7.48806 1.91101 8.2808 1.30206 8.90398 0.396071L8.66325 0.268588C8.35197 0.665269 7.98375 0.8633 7.54499 0.8633C7.02145 0.8633 6.4125 0.579868 5.61976 0.0705566L2.60411 2.5905V5.62038C2.60411 6.42736 2.57564 6.65386 2.53356 6.80919C2.46301 6.96514 2.20805 7.20587 2.20805 7.20587C1.61334 6.44159 1.30206 5.57768 1.30206 4.67169C1.30206 3.92164 1.51432 3.21368 1.91038 2.57689C2.2359 2.08119 2.64619 1.55764 3.31207 1.09041L3.39747 1.03348L3.22791 0.849683L3.15674 0.906C2.1375 1.51495 1.34476 2.06696 0.877526 2.71799C0.297046 3.55343 0 4.47304 0 5.4502C0 6.24295 0.212265 7.03569 0.622561 7.77212C1.03348 8.52216 1.61334 9.11687 2.34977 9.51293C3.08558 9.90961 3.87832 10.1219 4.69953 10.1219C5.26577 10.1219 5.83202 10.0229 6.39827 9.82484C6.92511 9.65703 7.41855 9.39838 7.85627 9.06056C8.26719 8.73504 8.63478 8.29628 9.01723 7.68733L9.15895 7.46084L8.98876 7.3185ZM4.81278 1.20367V3.92165L4.13329 4.50212V1.78414L4.81278 1.20367ZM3.49649 8.30989C3.19944 8.14033 2.78853 7.8996 2.37761 7.41814C2.76006 7.12109 3.41109 6.49853 3.7366 6.11608C3.90617 5.91805 4.02003 5.73425 4.06212 5.54983C4.08996 5.45082 4.11843 5.28063 4.11843 5.02629C4.34493 5.168 4.57143 5.29549 4.81216 5.3945V8.7072C4.31708 8.63541 3.80777 8.47946 3.49649 8.30989ZM39.0703 3.87895L39.7789 3.18522L39.9627 3.36902C39.722 3.59551 39.553 3.7657 39.454 3.90679C39.368 4.03428 39.3117 4.16176 39.2838 4.30347C39.2696 4.43096 39.256 4.71439 39.256 5.12469V8.1261C39.256 8.49431 39.2838 8.73505 39.3686 8.86253C39.4398 8.97578 39.5103 9.03209 39.5815 9.03209C39.6663 9.03209 39.7232 8.94669 39.9633 8.76289L40.1193 8.96092L38.6328 10.1355C38.3079 9.88053 38.0381 9.64042 37.9391 9.47023C37.7974 9.21527 37.6854 8.98877 37.6854 8.70596V4.61475L36.9768 4.00581L36.1413 4.77009V8.54939L36.694 9.1441L35.3913 10.1349L34.075 9.1441L34.5985 8.54939V5.2367C34.5985 4.76947 34.5416 4.62837 34.4859 4.5145C34.4147 4.35917 34.2161 4.18899 33.9048 3.97672L33.0694 4.68469V8.54939L33.6362 9.1441L32.3199 10.1349L30.9894 9.1441L31.5557 8.54939V4.99658C31.5557 4.62837 31.4709 4.37341 31.3719 4.20384C31.2871 4.09059 31.2165 4.02004 31.1454 4.02004C31.0742 4.02004 30.9046 4.11906 30.6639 4.30347L30.5222 4.07698L32.0934 2.80277C32.3905 3.01503 32.5885 3.19945 32.7166 3.32693C32.8435 3.46865 32.9425 3.61036 32.9852 3.75146C33.0273 3.87894 33.07 4.03489 33.07 4.37402L34.9674 2.80277C35.3919 3.15675 35.689 3.43957 35.8449 3.65245C36.0009 3.87895 36.0856 4.06336 36.1135 4.45942L37.9118 2.80339L39.0703 3.87895ZM55.5205 1.37323C55.8733 1.81199 56.2842 2.29345 56.6809 2.29345C57.3325 2.29345 58.2664 1.24575 58.2664 1.24575L58.1383 1.10403C57.5306 1.65604 57.0349 0.70797 56.7081 0.396071L55.5205 1.37323ZM58.2094 8.77713C57.9823 8.94669 57.9266 9.03209 57.8276 9.03209C57.7564 9.03209 57.6859 8.97516 57.6147 8.86253C57.5436 8.73505 57.473 8.49431 57.473 8.14033V4.43158L58.0256 3.8938L56.7087 2.78915L55.3924 3.8938L55.9451 4.43158V8.70658C55.9451 8.99001 56.0441 9.23074 56.1858 9.47085C56.2848 9.64042 56.5546 9.88115 56.8944 10.1504L58.3666 8.96092L58.2094 8.77713Z" fill="#393939"/>
</svg>
