<svg width="75" height="80" viewBox="0 0 75 80" fill="none" xmlns="http://www.w3.org/2000/svg">
<path d="M21.4982 48.0273H26.0764V55.0683C26.0764 56.5469 25.9274 57.6716 25.6276 58.4422C25.3278 59.2146 24.7265 59.8667 23.822 60.4036C22.9176 60.9388 21.759 61.2081 20.3482 61.2081C18.856 61.2081 17.6991 61.032 16.8793 60.678C16.0596 60.324 15.3668 59.8413 14.9773 59.1265C14.3743 58.0171 14.2659 56.6486 14.1863 55.6459H18.358C18.3648 56.2183 18.4901 57.1262 18.5968 57.404C18.7035 57.6817 19.0118 57.8545 19.2675 58.0256C19.442 58.1374 19.691 58.1933 20.0145 58.1933C20.526 58.1933 20.9003 58.0273 21.1391 57.6936C21.378 57.3616 21.4965 56.801 21.4965 56.0117V48.0273H21.4982Z" fill="#999999"/>
<path d="M29.1472 48.0273H33.6323L39.4842 55.197V48.0273H44.0099V60.9863H39.4842L33.6645 53.8708V60.9863H29.1489V48.0273H29.1472Z" fill="#999999"/>
<path d="M47.1858 48.0273H60.1938V50.7932H52.0502V52.8529H59.6044V55.4968H52.0502V58.051H60.4292V60.9863H47.1858V48.0273V48.0273Z" fill="#999999"/>
<path d="M37.6363 30.2194C42.1152 30.2194 45.746 26.5886 45.746 22.1097C45.746 17.6308 42.1152 14 37.6363 14C33.1574 14 29.5266 17.6308 29.5266 22.1097C29.5266 26.5886 33.1574 30.2194 37.6363 30.2194Z" fill="#B1B3B4"/>
<path d="M55.5055 27.084L43.4375 38.1561L42.1892 35.8288L50.763 27.084H55.5055Z" fill="#999999"/>
<path d="M13.0989 27.084L29.5283 41.5232L31.7302 39.2367L17.0369 27.084H13.0989Z" fill="#999999"/>
<path d="M20.3667 27.084L32.3432 37.6598L33.5932 34.3045L25.4903 27.084H20.3667Z" fill="#999999"/>
<path d="M62.7751 27.084L46.5506 40.6561L44.5808 39.1097L58.2155 27.084H62.7751Z" fill="#999999"/>
<path d="M30.0788 41.5232C30.0788 41.5232 31.9131 41.552 32.0825 41.8908C32.2519 42.2295 32.5347 43.471 32.8159 43.3864C33.0987 43.3017 34.4537 42.1719 34.7078 41.8908C34.9619 41.6079 36.1763 41.7502 36.4574 41.9467C36.7403 42.1448 37.4026 41.8908 37.6363 41.7485C37.87 41.6079 38.5187 41.4385 38.8287 41.6638C39.1387 41.8891 39.6756 42.0059 39.7044 42.4565C39.7332 42.9053 39.7044 43.6963 40.0719 43.8657C40.4395 44.0351 40.8053 44.2332 40.8341 44.7126C40.8629 45.1919 40.6935 46.6045 40.6935 46.6045C40.6935 46.6045 40.9984 46.679 41.3219 46.4995C41.5895 46.3504 41.8402 45.9778 42.1891 45.6729C43.3595 44.655 44.9872 42.8664 45.1735 42.5598C45.4835 42.0517 45.8307 41.4097 45.4631 41.1845C45.0956 40.9592 38.2935 36.4708 38.0665 36.3573C37.9666 36.3065 37.284 36.5436 36.7115 37.1195C35.9934 37.8393 35.326 38.9504 34.7925 39.1232C33.8525 39.4281 32.7041 39.152 32.3077 39.1791C31.9131 39.2079 31.1848 38.7861 31.1848 38.7861L29.5266 39.3772L29.3437 40.2529L29.1455 41.1879L30.0788 41.5232Z" fill="#999999"/>
<path d="M35.7952 36.992C35.7952 36.992 35.2447 37.6271 34.8433 37.7542C34.4419 37.8812 33.7627 37.9659 33.5933 37.1817C33.4239 36.3975 33.8677 35.9537 34.1014 35.3609C34.3352 34.7681 34.4402 34.2176 34.9483 33.8687C35.4564 33.5198 36.9876 32.1851 37.3653 32.1224C37.743 32.058 40.1989 32.2122 40.8341 32.3714C41.4693 32.5306 43.8625 33.076 44.3266 33.0116C44.7907 32.9473 45.746 32.8846 45.746 32.8846L46.7826 34.558C46.7826 34.558 45.392 37.1478 43.4374 38.1573C42.997 38.3842 41.764 37.163 41.3846 36.9513C39.5638 35.9351 38.5052 35.1525 38.5052 35.1525C38.5052 35.1525 37.1925 35.1525 36.8318 35.681C36.471 36.2094 35.7952 36.992 35.7952 36.992Z" fill="#999999"/>
<path d="M29.5553 42.2295C29.5553 42.2295 29.5265 43.2169 30.3598 43.598C31.1931 43.9791 31.5319 43.7539 31.7284 43.5269C31.9265 43.3016 31.7419 42.6377 31.5878 42.5107C31.432 42.3836 29.9923 42.3277 29.9076 42.2278C29.8246 42.1296 29.5553 42.2295 29.5553 42.2295Z" fill="#999999"/>
<path d="M33.324 44.2887C33.1546 45.0797 33.053 45.3642 33.3172 45.6302C33.656 45.9689 34.5028 45.8639 34.9263 45.7995C35.3497 45.7352 35.265 46.5414 35.4767 46.6041C35.6885 46.6667 36.0696 46.9428 36.1746 47.0072C36.2796 47.0715 36.725 47.1342 36.8944 47.0072C37.0638 46.8802 37.3636 46.7328 37.3636 46.7328C37.3636 46.7328 37.6566 47.2409 37.7193 47.3459C37.7819 47.4509 38.3121 47.473 38.5661 47.3459C38.8202 47.2189 39.3487 47.0275 39.3487 47.0275C39.3487 47.0275 39.9889 46.5617 40.1667 46.1163C40.3446 45.6708 40.3446 44.7189 40.0685 44.5919C39.7924 44.4649 39.3266 44.1888 39.3487 43.9788C39.3707 43.7687 39.369 43.2149 39.391 42.993C39.4113 42.7711 39.2013 42.3477 39.0319 42.3477C38.8626 42.3477 38.7135 42.1834 38.7135 42.1834C38.7135 42.1834 37.8243 42.0191 37.8243 42.1834C37.8243 42.3477 37.2111 42.7711 36.9351 42.7491C36.8131 42.7389 35.7782 42.2511 35.1363 42.6847C34.3555 43.2166 33.4188 43.8466 33.324 44.2887Z" fill="#999999"/>
<path d="M18.4191 34.3043L12.4351 45.8151H31.7303C31.7303 45.8151 31.8624 45.5695 31.7303 45.5051C31.5355 45.4069 31.0054 45.4712 30.6006 45.4204C30.2771 45.3798 29.3879 45.1969 28.8289 44.6379C28.2175 44.0265 28.0362 43.061 28.087 42.8696C28.1853 42.5021 27.8618 42.1871 27.8618 42.1871L18.4191 34.3043Z" fill="#B1B3B4"/>
<path d="M44.4182 45.5593C44.4182 45.5593 45.8291 45.1782 45.9714 44.5007C46.112 43.8232 47.157 43.1034 47.2553 43.061C47.3535 43.0187 47.0859 41.9736 47.5517 41.6925C48.0175 41.4113 56.7403 34.1553 56.7403 34.1553L62.9784 45.7152H44.3589L44.4182 45.5593Z" fill="#B1B3B4"/>
<path d="M9.98068 63.7236H10.4295V65.1379C10.4295 65.3225 10.4126 65.4648 10.3804 65.5647C10.3364 65.6952 10.2568 65.7985 10.1433 65.8781C10.0298 65.9577 9.87737 65.9966 9.68936 65.9966C9.46917 65.9966 9.29979 65.9357 9.17954 65.812C9.06098 65.6884 9 65.5072 9 65.2683L9.42513 65.2192C9.43021 65.3479 9.44885 65.4377 9.48103 65.4902C9.53015 65.5698 9.60467 65.6105 9.70291 65.6105C9.80284 65.6105 9.87398 65.5817 9.91632 65.5241C9.95867 65.4665 9.97899 65.3479 9.97899 65.1667V63.7236H9.98068Z" fill="#B1B3B4"/>
<path d="M10.9072 63.7234H11.3577V64.9327C11.3577 65.1241 11.3628 65.2494 11.3747 65.3053C11.3933 65.3968 11.4407 65.4696 11.5119 65.5255C11.5847 65.5814 11.6846 65.6085 11.81 65.6085C11.9387 65.6085 12.0352 65.5831 12.0996 65.5306C12.164 65.4781 12.2029 65.4137 12.2165 65.3375C12.23 65.2613 12.2368 65.1343 12.2368 64.9581V63.7217H12.6873V64.8955C12.6873 65.1631 12.6755 65.3528 12.6501 65.4646C12.6247 65.5763 12.5806 65.6695 12.5146 65.7457C12.4485 65.8219 12.3621 65.8829 12.252 65.9286C12.1419 65.9744 11.9997 65.9964 11.8218 65.9964C11.6084 65.9964 11.4458 65.971 11.3357 65.9219C11.2256 65.8727 11.1375 65.8084 11.0749 65.7305C11.0105 65.6526 10.9682 65.5696 10.9478 65.4832C10.9191 65.3545 10.9038 65.1665 10.9038 64.9158V63.7234H10.9072Z" fill="#B1B3B4"/>
<path d="M13.165 65.9577V63.7236H14.1152C14.3541 63.7236 14.5268 63.744 14.6352 63.7829C14.7436 63.8236 14.83 63.8947 14.8944 63.9963C14.9587 64.0996 14.9926 64.2165 14.9926 64.3486C14.9926 64.5163 14.9435 64.6552 14.8452 64.7636C14.747 64.8737 14.5997 64.9414 14.4032 64.9702C14.5014 65.0278 14.581 65.0905 14.6454 65.1582C14.7097 65.226 14.7944 65.3479 14.9028 65.5207L15.1755 65.956H14.6352L14.3083 65.4699C14.1931 65.2954 14.1135 65.187 14.0712 65.1413C14.0289 65.0956 13.9831 65.0651 13.9357 65.0481C13.8883 65.0312 13.8121 65.0227 13.7087 65.0227H13.6173V65.956H13.165V65.9577ZM13.6156 64.6687H13.9492C14.166 64.6687 14.3015 64.6603 14.3541 64.6416C14.4083 64.623 14.4506 64.5925 14.4811 64.5468C14.5116 64.5028 14.5268 64.4469 14.5268 64.3791C14.5268 64.3046 14.5065 64.2436 14.4675 64.1962C14.4269 64.1505 14.371 64.12 14.2982 64.1081C14.2609 64.103 14.1525 64.0996 13.9696 64.0996H13.6173V64.6687H13.6156Z" fill="#B1B3B4"/>
<path d="M17.4315 65.9577H16.9403L16.7455 65.4496H15.8529L15.6683 65.9577H15.189L16.0596 63.7236H16.5372L17.4315 65.9577ZM16.6016 65.0736L16.2933 64.2453L15.9918 65.0736H16.6016Z" fill="#B1B3B4"/>
<path d="M17.6704 63.7236H18.4953C18.6816 63.7236 18.8222 63.7372 18.9204 63.766C19.0508 63.8049 19.1643 63.8727 19.2575 63.9709C19.3506 64.0692 19.4217 64.1894 19.4709 64.3334C19.52 64.4757 19.5437 64.6518 19.5437 64.8618C19.5437 65.0465 19.5217 65.204 19.4759 65.3378C19.4201 65.5004 19.3404 65.6325 19.2371 65.7324C19.1592 65.8086 19.0525 65.8679 18.9204 65.9103C18.8205 65.9424 18.6884 65.9577 18.5207 65.9577H17.6721V63.7236H17.6704ZM18.1209 64.1013V65.5817H18.458C18.5833 65.5817 18.6748 65.5749 18.7307 65.5597C18.8035 65.541 18.8645 65.5105 18.9136 65.4665C18.961 65.4225 19.0017 65.3513 19.0322 65.2514C19.0627 65.1515 19.0779 65.0143 19.0779 64.8415C19.0779 64.6687 19.0627 64.5366 19.0322 64.4435C19.0017 64.3503 18.9594 64.2792 18.9035 64.2267C18.8493 64.1742 18.7798 64.1403 18.6951 64.1217C18.6325 64.1081 18.5088 64.0996 18.3242 64.0996H18.1209V64.1013Z" fill="#B1B3B4"/>
<path d="M19.8333 64.8533C19.8333 64.6263 19.8671 64.4349 19.9349 64.2808C19.9857 64.1673 20.0551 64.0657 20.1432 63.9742C20.2313 63.8844 20.3278 63.8167 20.4328 63.7726C20.5717 63.7134 20.7326 63.6846 20.9139 63.6846C21.2425 63.6846 21.5067 63.7862 21.7048 63.9911C21.903 64.1961 22.0013 64.4789 22.0013 64.8431C22.0013 65.2039 21.903 65.4867 21.7065 65.69C21.5101 65.8932 21.2475 65.9949 20.9206 65.9949C20.5887 65.9949 20.3244 65.8932 20.128 65.6917C19.9315 65.4884 19.8333 65.2089 19.8333 64.8533ZM20.299 64.838C20.299 65.0904 20.3566 65.2835 20.4735 65.4139C20.5904 65.5443 20.7394 65.6104 20.9189 65.6104C21.0985 65.6104 21.2458 65.546 21.361 65.4156C21.4762 65.2869 21.5338 65.0921 21.5338 64.8329C21.5338 64.5772 21.4779 64.3858 21.3661 64.2604C21.2543 64.1351 21.1053 64.0707 20.9189 64.0707C20.7326 64.0707 20.5836 64.1351 20.4701 64.2621C20.3549 64.3892 20.299 64.5823 20.299 64.838Z" fill="#B1B3B4"/>
<path d="M23.2241 65.9577V63.7236H23.6628L24.5774 65.2158V63.7236H24.9958V65.9577H24.5436L23.6425 64.5011V65.9577H23.2241Z" fill="#B1B3B4"/>
<path d="M27.4891 65.9577H26.9979L26.8031 65.4496H25.9105L25.7259 65.9577H25.2466L26.1172 63.7236H26.5948L27.4891 65.9577ZM26.6575 65.0736L26.3492 64.2453L26.0477 65.0736H26.6575Z" fill="#B1B3B4"/>
<path d="M29.1573 65.1364L29.5943 65.2753C29.5266 65.5192 29.4165 65.7004 29.2607 65.819C29.1048 65.9375 28.9067 65.9968 28.6679 65.9968C28.3714 65.9968 28.1275 65.8952 27.9361 65.6936C27.7448 65.4904 27.6499 65.2143 27.6499 64.862C27.6499 64.4894 27.7464 64.2014 27.9378 63.9948C28.1292 63.7898 28.3816 63.6865 28.6949 63.6865C28.9676 63.6865 29.1895 63.7678 29.3606 63.9287C29.4622 64.0236 29.5384 64.1608 29.5893 64.3403L29.1421 64.447C29.115 64.3318 29.0608 64.2404 28.9761 64.1726C28.8931 64.1049 28.7898 64.0727 28.6712 64.0727C28.5052 64.0727 28.3714 64.132 28.2681 64.2505C28.1648 64.3691 28.114 64.5622 28.114 64.8281C28.114 65.111 28.1648 65.3125 28.2664 65.4311C28.3681 65.5513 28.5002 65.6106 28.6628 65.6106C28.783 65.6106 28.8863 65.5717 28.9727 65.4971C29.0574 65.4192 29.1201 65.299 29.1573 65.1364Z" fill="#B1B3B4"/>
<path d="M29.967 65.9577V63.7236H30.4176V65.9577H29.967Z" fill="#B1B3B4"/>
<path d="M30.7581 64.8533C30.7581 64.6263 30.7919 64.4349 30.8597 64.2808C30.9105 64.1673 30.9799 64.0657 31.068 63.9742C31.1561 63.8844 31.2526 63.8167 31.3576 63.7726C31.4965 63.7134 31.6574 63.6846 31.8387 63.6846C32.1673 63.6846 32.4315 63.7862 32.6297 63.9911C32.8278 64.1961 32.9261 64.4789 32.9261 64.8431C32.9261 65.2039 32.8278 65.4867 32.6313 65.69C32.4349 65.8932 32.1723 65.9949 31.8454 65.9949C31.5135 65.9949 31.2492 65.8932 31.0528 65.6917C30.8546 65.4884 30.7581 65.2089 30.7581 64.8533ZM31.2221 64.838C31.2221 65.0904 31.2797 65.2835 31.3966 65.4139C31.5135 65.5443 31.6625 65.6104 31.8421 65.6104C32.0216 65.6104 32.169 65.546 32.2841 65.4156C32.3993 65.2869 32.4569 65.0921 32.4569 64.8329C32.4569 64.5772 32.401 64.3858 32.2892 64.2604C32.1774 64.1351 32.0284 64.0707 31.8421 64.0707C31.6557 64.0707 31.5067 64.1351 31.3932 64.2621C31.2797 64.3892 31.2221 64.5823 31.2221 64.838Z" fill="#B1B3B4"/>
<path d="M33.28 65.9577V63.7236H33.7187L34.6333 65.2158V63.7236H35.0517V65.9577H34.5995L33.6984 64.5011V65.9577H33.28Z" fill="#B1B3B4"/>
<path d="M37.5448 65.9577H37.0536L36.8588 65.4496H35.9662L35.7816 65.9577H35.3022L36.1728 63.7236H36.6505L37.5448 65.9577ZM36.7148 65.0736L36.4066 64.2453L36.1051 65.0736H36.7148Z" fill="#B1B3B4"/>
<path d="M37.7954 65.9576V63.7422H38.246V65.5816H39.3672V65.9576H37.7954V65.9576Z" fill="#B1B3B4"/>
<path d="M40.5005 63.7236H41.3253C41.5117 63.7236 41.6522 63.7372 41.7505 63.766C41.8809 63.8049 41.9944 63.8727 42.0875 63.9709C42.1807 64.0692 42.2518 64.1894 42.3009 64.3334C42.3501 64.4757 42.3738 64.6518 42.3738 64.8618C42.3738 65.0465 42.3517 65.204 42.3043 65.3378C42.2484 65.5004 42.1688 65.6325 42.0655 65.7324C41.9876 65.8086 41.8809 65.8679 41.7488 65.9103C41.6488 65.9424 41.5167 65.9577 41.3491 65.9577H40.5005V63.7236ZM40.951 64.1013V65.5817H41.2881C41.4134 65.5817 41.5049 65.5749 41.5608 65.5597C41.6336 65.541 41.6946 65.5105 41.7437 65.4665C41.7928 65.4225 41.8318 65.3513 41.8623 65.2514C41.8927 65.1515 41.908 65.0143 41.908 64.8415C41.908 64.6687 41.8927 64.5366 41.8623 64.4435C41.8318 64.3503 41.7894 64.2792 41.7335 64.2267C41.6793 64.1742 41.6099 64.1403 41.5252 64.1217C41.4625 64.1081 41.3389 64.0996 41.1543 64.0996H40.951V64.1013Z" fill="#B1B3B4"/>
<path d="M42.7549 65.9577V63.7236H44.4114V64.1013H43.2054V64.5959H44.3267V64.9719H43.2054V65.58H44.4537V65.956H42.7549V65.9577Z" fill="#B1B3B4"/>
<path d="M45.7036 65.9577V63.7236H47.3601V64.1013H46.1542V64.5959H47.2754V64.9719H46.1542V65.58H47.4025V65.956H45.7036V65.9577Z" fill="#B1B3B4"/>
<path d="M47.7971 65.9576V63.7422H48.2477V65.5816H49.3689V65.9576H47.7971V65.9576Z" fill="#B1B3B4"/>
<path d="M49.6924 65.9577V63.7236H51.3489V64.1013H50.1429V64.5959H51.2642V64.9719H50.1429V65.58H51.3912V65.956H49.6924V65.9577Z" fill="#B1B3B4"/>
<path d="M53.2037 65.1364L53.6407 65.2753C53.573 65.5192 53.4629 65.7004 53.3071 65.819C53.1512 65.9375 52.9531 65.9968 52.7142 65.9968C52.4178 65.9968 52.1739 65.8952 51.9825 65.6936C51.7911 65.4904 51.6963 65.2143 51.6963 64.862C51.6963 64.4894 51.7928 64.2014 51.9842 63.9948C52.1756 63.7898 52.428 63.6865 52.7413 63.6865C53.014 63.6865 53.2359 63.7678 53.407 63.9287C53.5086 64.0236 53.5848 64.1608 53.6356 64.3403L53.1885 64.447C53.1614 64.3318 53.1072 64.2404 53.0225 64.1726C52.9378 64.1049 52.8362 64.0727 52.7176 64.0727C52.5516 64.0727 52.4178 64.132 52.3145 64.2505C52.2112 64.3691 52.1604 64.5622 52.1604 64.8281C52.1604 65.111 52.2112 65.3125 52.3128 65.4311C52.4144 65.5513 52.5466 65.6106 52.7092 65.6106C52.8294 65.6106 52.9327 65.5717 53.0191 65.4971C53.1038 65.4192 53.1665 65.299 53.2037 65.1364Z" fill="#B1B3B4"/>
<path d="M55.4564 65.1364L55.8934 65.2753C55.8257 65.5192 55.7156 65.7004 55.5597 65.819C55.4039 65.9375 55.2057 65.9968 54.9669 65.9968C54.6705 65.9968 54.4266 65.8952 54.2352 65.6936C54.0438 65.4904 53.949 65.2143 53.949 64.862C53.949 64.4894 54.0455 64.2014 54.2369 63.9948C54.4283 63.7898 54.6807 63.6865 54.994 63.6865C55.2667 63.6865 55.4886 63.7678 55.6597 63.9287C55.7613 64.0236 55.8375 64.1608 55.8883 64.3403L55.4412 64.447C55.4141 64.3318 55.3599 64.2404 55.2752 64.1726C55.1905 64.1049 55.0889 64.0727 54.9703 64.0727C54.8043 64.0727 54.6705 64.132 54.5672 64.2505C54.4639 64.3691 54.4131 64.5622 54.4131 64.8281C54.4131 65.111 54.4639 65.3125 54.5655 65.4311C54.6671 65.5513 54.7992 65.6106 54.9618 65.6106C55.0821 65.6106 55.1854 65.5717 55.2718 65.4971C55.3582 65.4192 55.4192 65.299 55.4564 65.1364Z" fill="#B1B3B4"/>
<path d="M56.2676 65.9577V63.7236H56.7181V65.9577H56.2676Z" fill="#B1B3B4"/>
<path d="M57.0569 64.8533C57.0569 64.6263 57.0908 64.4349 57.1585 64.2808C57.2093 64.1673 57.2788 64.0657 57.3668 63.9742C57.4549 63.8827 57.5515 63.8167 57.6565 63.7726C57.7954 63.7134 57.9563 63.6846 58.1375 63.6846C58.4661 63.6846 58.7303 63.7862 58.9285 63.9911C59.1267 64.1961 59.2249 64.4789 59.2249 64.8431C59.2249 65.2039 59.1267 65.4867 58.9302 65.69C58.7337 65.8932 58.4712 65.9949 58.1443 65.9949C57.8123 65.9949 57.5481 65.8932 57.3516 65.6917C57.1551 65.4884 57.0569 65.2089 57.0569 64.8533ZM57.5227 64.838C57.5227 65.0904 57.5803 65.2835 57.6988 65.4139C57.8157 65.5443 57.9647 65.6104 58.1443 65.6104C58.3238 65.6104 58.4712 65.546 58.5863 65.4156C58.7015 65.2869 58.7591 65.0921 58.7591 64.8329C58.7591 64.5772 58.7032 64.3858 58.5914 64.2604C58.4796 64.1351 58.3306 64.0707 58.1443 64.0707C57.958 64.0707 57.8089 64.1351 57.6954 64.2621C57.5786 64.3892 57.5227 64.5823 57.5227 64.838Z" fill="#B1B3B4"/>
<path d="M59.5806 65.9577V63.7236H60.0192L60.9339 65.2158V63.7236H61.3522V65.9577H60.9L59.9989 64.5011V65.9577H59.5806Z" fill="#B1B3B4"/>
<path d="M61.8298 65.9577V63.7236H63.4863V64.1013H62.2804V64.5959H63.4016V64.9719H62.2804V65.58H63.5287V65.956H61.8298V65.9577Z" fill="#B1B3B4"/>
<path d="M63.7981 65.2305L64.2368 65.1882C64.2639 65.3355 64.3164 65.4439 64.3977 65.5134C64.479 65.5828 64.5874 65.6167 64.7246 65.6167C64.8702 65.6167 64.9786 65.5862 65.0531 65.5252C65.1277 65.4642 65.1632 65.3914 65.1632 65.3101C65.1632 65.2576 65.148 65.2119 65.1175 65.1746C65.087 65.1374 65.0328 65.1052 64.9549 65.0781C64.9024 65.0594 64.7822 65.0273 64.5941 64.9798C64.3519 64.9206 64.1826 64.846 64.086 64.7596C63.9488 64.636 63.8811 64.487 63.8811 64.3108C63.8811 64.1973 63.9133 64.0906 63.9776 63.9924C64.042 63.8941 64.1351 63.8179 64.2571 63.7654C64.379 63.7129 64.5247 63.6875 64.6975 63.6875C64.9786 63.6875 65.1886 63.7485 65.3309 63.8721C65.4732 63.9958 65.5477 64.1584 65.5545 64.365L65.104 64.3853C65.0853 64.2702 65.043 64.1872 64.9803 64.138C64.916 64.0872 64.8211 64.0618 64.6941 64.0618C64.5637 64.0618 64.4603 64.0889 64.3858 64.1431C64.3384 64.177 64.3147 64.2244 64.3147 64.282C64.3147 64.3345 64.3367 64.3803 64.3824 64.4175C64.44 64.4649 64.5772 64.5157 64.7974 64.5666C65.0176 64.6191 65.1785 64.6716 65.2852 64.7275C65.3902 64.7834 65.4732 64.8579 65.5325 64.9544C65.5917 65.051 65.6222 65.1695 65.6222 65.3101C65.6222 65.4388 65.5867 65.5574 65.5155 65.6692C65.4444 65.781 65.3445 65.864 65.2141 65.9182C65.0836 65.9724 64.9227 65.9995 64.7279 65.9995C64.4451 65.9995 64.2283 65.9334 64.0776 65.803C63.9167 65.6709 63.8269 65.4795 63.7981 65.2305Z" fill="#B1B3B4"/>
<path d="M65.3056 61.9893H9.30664V62.4161H65.3056V61.9893Z" fill="#999999"/>
</svg>
