<svg width="75" height="80" viewBox="0 0 75 80" fill="none" xmlns="http://www.w3.org/2000/svg">
<path fill-rule="evenodd" clip-rule="evenodd" d="M34.4614 28.3223H36.6739L36.6713 37.5942V39.2783H27.9919L27.9892 37.5942H34.4587L34.4614 28.3223ZM26.4652 34.4101H30.7649L30.7622 30.0331H26.4652V34.4101ZM32.9347 36.1156H26.4652V39.281H24.25L24.2527 35.1601L24.2553 33.452L24.2527 30.0331V28.3249H32.9374V36.1156H32.9347Z" fill="#7C7467"/>
<path fill-rule="evenodd" clip-rule="evenodd" d="M48.5375 16.0029H50.7474V26.9616H48.5349L42.0627 26.9589L42.0653 25.2748H48.5349L48.5375 16.0029ZM40.5414 22.0881H44.8384L44.8357 17.7137L40.536 17.7111L40.5414 22.0881ZM47.0056 23.7962H40.536V26.9563L38.3235 26.9616V22.8381L38.3288 21.1273L38.3235 17.7111L38.3262 16.0056H47.0109L47.0056 23.7962Z" fill="#7C7467"/>
<path fill-rule="evenodd" clip-rule="evenodd" d="M48.5349 28.3252H50.7474V39.2812H42.068V37.5944H48.5349V28.3252ZM40.536 34.4104H44.8357L44.8384 30.0307L40.5387 30.0333L40.536 34.4104ZM47.0082 36.1212L40.536 36.1158V39.2812H38.3235V35.1604V33.4496L38.3262 30.036V28.3252H47.0109V36.1212H47.0082Z" fill="#333333"/>
<path fill-rule="evenodd" clip-rule="evenodd" d="M34.4641 16H36.6713V26.9614L34.4614 26.9587H27.9919V25.2746H34.4614L34.4641 16ZM26.4652 22.0905L30.7622 22.0879V17.7081H26.4652V22.0905ZM32.9348 23.796H26.4679L26.4652 26.9587H24.2527V21.127V17.7081V16L26.4652 16.0027H32.9321V23.796H32.9348Z" fill="#333333"/>
<path fill-rule="evenodd" clip-rule="evenodd" d="M2.05776 48.1585C2.20455 48.1906 2.46077 48.2466 2.67695 48.2466C3.92335 48.2466 4.72403 47.4406 4.72403 46.3383C4.72403 45.4896 4.36639 44.6515 2.84776 44.6515C2.58354 44.6515 2.33266 44.6515 2.05776 44.6942V48.1585V48.1585ZM2.05776 50.2723C2.05776 50.8835 2.25259 51.1104 2.9732 51.1104H3.34952V51.3159H0.184157V51.1104H0.341625C0.936799 51.1104 1.11028 50.9903 1.11028 50.4778V45.3241C1.11028 44.9211 0.968826 44.7476 0.571154 44.7476H0V44.5394C0.320273 44.5288 0.878082 44.4967 1.43856 44.4727C2.00171 44.4514 2.54617 44.4434 2.85844 44.4434C5.24981 44.4434 5.79694 45.5323 5.79694 46.3703C5.79694 47.6461 4.72136 48.4521 3.02925 48.4521C2.68496 48.4521 2.39938 48.4308 2.05776 48.364V50.2723V50.2723Z" fill="#7C7467"/>
<path fill-rule="evenodd" clip-rule="evenodd" d="M9.4613 45.9002C7.82791 45.9002 7.17668 47.3521 7.17668 48.4144C7.17668 50.0718 8.35636 51.2408 9.85363 51.2408C11.3696 51.2408 12.0902 49.965 12.0902 48.708C12.0902 47.0612 10.9933 45.9002 9.4613 45.9002ZM9.65613 51.4596C7.83324 51.4596 6.30127 50.344 6.30127 48.6893C6.30127 46.9278 7.72115 45.6787 9.7015 45.6787C11.4603 45.6787 12.963 46.821 12.963 48.4144C12.9656 50.2052 11.4603 51.4596 9.65613 51.4596Z" fill="#7C7467"/>
<path fill-rule="evenodd" clip-rule="evenodd" d="M14.9355 50.6644C14.9355 51.0273 14.9648 51.1501 15.6988 51.1501C16.9425 51.1501 17.4629 50.982 18.0394 50.4322C18.3837 50.1146 18.8108 49.4313 18.8108 48.5212C18.8108 47.8673 18.6133 47.1414 18.0661 46.6209C17.6391 46.2126 16.9799 45.903 15.6774 45.903C15.2984 45.903 15.0449 45.9297 14.9355 45.9377V50.6644V50.6644ZM14.1641 46.6957C14.1641 46.1218 14.0067 45.9804 13.4595 45.9804H13.2754V45.8096C13.617 45.7935 14.0734 45.7749 14.5858 45.7562C15.0956 45.7402 15.6641 45.7295 16.1445 45.7295C18.5999 45.7295 19.6862 46.9172 19.6862 48.3771C19.6862 49.7142 18.5999 51.3129 16.2459 51.3129H13.2727V51.1474H13.4302C13.9346 51.1474 14.1641 51.014 14.1641 50.5016V46.6957Z" fill="#7C7467"/>
<path fill-rule="evenodd" clip-rule="evenodd" d="M24.1806 49.3272H24.0045C23.9324 48.6974 23.7536 48.628 23.3719 48.628H21.8026V50.5122C21.8026 50.9179 21.9601 50.998 22.3044 50.998H23.7349C24.3861 50.998 24.581 50.7605 24.8132 49.9971H24.9813L24.8318 51.3156H19.897V51.1475H20.1585C20.9032 51.1475 21.0313 50.9526 21.0313 50.4242V46.6877C21.0313 46.1912 20.9085 45.9777 20.2866 45.9777H20.0838V45.8096H24.5436L24.6157 47.04H24.4502C24.3301 46.2873 24.0979 46.1272 23.7643 46.1272H21.8026V48.305H23.4653C23.8016 48.305 23.9591 48.1529 24.0045 47.6405H24.1806V49.3272V49.3272Z" fill="#7C7467"/>
<path fill-rule="evenodd" clip-rule="evenodd" d="M26.9137 48.8228C27.1379 48.8495 27.274 48.8415 27.4902 48.8415C28.523 48.8415 29.2009 48.4251 29.2009 47.3602C29.2009 46.5382 28.8113 45.9003 27.3781 45.9003C27.2019 45.9003 27.0818 45.9003 26.9137 45.919V48.8228ZM26.9137 50.4856C26.9137 51.0167 27.1379 51.1474 27.6583 51.1474H27.8718V51.3156H25.2429V51.1474H25.4004C25.9475 51.1474 26.1423 51.006 26.1423 50.4135V46.6876C26.1423 46.1405 25.9875 45.9777 25.4457 45.9777H25.2402V45.8096C25.4644 45.8096 26.0302 45.7749 26.4092 45.7562C26.7909 45.7375 26.975 45.7295 27.5809 45.7295C29.3024 45.7295 30.0684 46.4021 30.0684 47.3042C30.0684 47.9661 29.596 48.5265 28.8353 48.7374C29.1796 48.9963 29.4545 49.2418 29.8922 49.6608L30.6262 50.3601C31.1733 50.8806 31.7418 51.2088 32.4571 51.2515V51.4117C30.829 51.4837 30.4126 51.1448 29.5853 50.3601L28.9714 49.7729C28.5631 49.3833 28.2375 49.1271 28.0159 48.9883C27.7837 48.9963 27.6343 49.0016 27.3834 49.0016C27.1806 49.0016 27.0605 48.9936 26.911 48.9883V50.4856H26.9137Z" fill="#7C7467"/>
<path fill-rule="evenodd" clip-rule="evenodd" d="M37.3919 50.1975C37.3919 52.386 36.4525 53.8566 35.0246 53.8566C34.3947 53.8566 33.9143 53.6057 33.9143 53.2694C33.9143 53.0399 34.0958 52.8344 34.3253 52.8344C34.715 52.8344 35.0246 53.3442 35.5023 53.3442C36.0521 53.3442 36.4418 52.9492 36.4418 51.7428V45.9272C36.4418 44.969 36.3377 44.7502 35.513 44.7502H35.3876V44.542H38.2807V44.7502C37.5494 44.7742 37.3893 44.969 37.3893 45.5455V50.1975H37.3919Z" fill="#7C7467"/>
<path fill-rule="evenodd" clip-rule="evenodd" d="M45.4655 45.812V45.9801C44.8409 45.9881 44.6194 46.2283 44.6194 46.7941V49.1829C44.6194 50.2825 43.8855 51.4568 41.8704 51.4568C40.0956 51.4568 39.1854 50.4933 39.1854 49.2256V46.642C39.1854 46.0735 39.0173 45.9855 38.3848 45.9775V45.8093H40.7735V45.9775H40.6907C40.181 45.9775 39.9541 46.1109 39.9541 46.6207V49.0841C39.9541 50.2798 40.6907 50.9951 42.0732 50.9951C43.1248 50.9951 44.1924 50.5787 44.1924 49.0734V47.0103C44.1924 46.1616 44.0536 46.0095 43.2796 45.9748V45.8066H45.4655V45.812Z" fill="#7C7467"/>
<path fill-rule="evenodd" clip-rule="evenodd" d="M47.0536 50.6644C47.0536 51.0273 47.0803 51.1501 47.8169 51.1501C49.0607 51.1501 49.5811 50.982 50.1576 50.4322C50.5019 50.1146 50.9289 49.4313 50.9289 48.5212C50.9289 47.8673 50.7341 47.1414 50.1843 46.6209C49.7572 46.2126 49.098 45.903 47.7956 45.903C47.4139 45.903 47.163 45.9297 47.0536 45.9377V50.6644V50.6644ZM46.2796 46.6957C46.2796 46.1218 46.1248 45.9804 45.575 45.9804H45.3909V45.8096C45.7351 45.7935 46.1915 45.7749 46.7013 45.7562C47.2111 45.7375 47.7769 45.7295 48.26 45.7295C50.7154 45.7295 51.8017 46.9172 51.8017 48.3771C51.8017 49.7142 50.7154 51.3129 48.3614 51.3129H45.3882V51.1474H45.5457C46.0474 51.1474 46.2796 51.014 46.2796 50.5016V46.6957V46.6957Z" fill="#7C7467"/>
<path fill-rule="evenodd" clip-rule="evenodd" d="M54.6627 51.3185H52.4075V51.1504C52.984 51.1237 53.1041 50.9849 53.1041 50.3897V46.6185C53.1041 46.1408 52.9252 46.0073 52.4075 45.9806V45.8125H54.6627V45.9806C54.0782 45.9806 53.8727 46.1034 53.8727 46.6986V50.4538C53.8727 50.9742 54.0195 51.1504 54.6627 51.1504V51.3185Z" fill="#7C7467"/>
<path fill-rule="evenodd" clip-rule="evenodd" d="M60.7506 47.2641C60.4463 46.4394 59.6457 45.9002 58.6315 45.9002C57.0808 45.9002 56.112 46.9732 56.112 48.4598C56.112 50.0611 57.321 51.2381 58.7329 51.2381C59.4668 51.2381 60.369 51.0006 60.9988 49.9277H61.1776C61.0549 50.328 60.804 50.8751 60.5825 51.2221C59.9873 51.142 59.5763 51.4596 58.4793 51.4596C56.5924 51.4596 55.2366 50.2746 55.2366 48.6359C55.2366 46.9171 56.6324 45.6787 58.5728 45.6787C59.7444 45.6787 60.2462 46.031 60.5344 46.031C60.6358 46.031 60.6812 46.007 60.6999 45.9776H60.8414L60.9214 47.2614H60.7506V47.2641Z" fill="#7C7467"/>
<path fill-rule="evenodd" clip-rule="evenodd" d="M63.8812 51.3185H61.6233V51.1504C62.1998 51.1237 62.3199 50.9849 62.3199 50.3897V46.6185C62.3199 46.1408 62.1411 46.0073 61.6233 45.9806V45.8125H63.8812V45.9806C63.2941 45.9806 63.0912 46.1034 63.0912 46.6986V50.4538C63.0912 50.9742 63.2407 51.1504 63.8812 51.1504V51.3185Z" fill="#7C7467"/>
<path fill-rule="evenodd" clip-rule="evenodd" d="M66.9291 46.4233L66.1391 48.4864H67.7458L66.9291 46.4233ZM65.979 48.8761L65.4425 50.264C65.3784 50.4321 65.2557 50.699 65.2557 50.8244C65.2557 51.062 65.4959 51.15 66.0083 51.15H66.1578V51.3182H64.0093V51.15C64.6151 51.1447 64.7165 51.0433 65.0128 50.2746L66.7022 45.8762L66.6222 45.6787H67.4282L69.3685 50.5922C69.5553 51.062 69.7502 51.15 70.2146 51.15V51.3182H67.6604V51.15H67.9006C68.429 51.15 68.6266 51.0967 68.6266 50.8485C68.6266 50.707 68.5598 50.5736 68.5251 50.4855L67.9006 48.8761H65.979V48.8761Z" fill="#7C7467"/>
<path fill-rule="evenodd" clip-rule="evenodd" d="M74.282 51.3178H70.1265V51.1497H70.4307C70.8604 51.1497 71.0179 51.0162 71.0179 50.5678V46.6472C71.0179 46.1774 70.8684 45.9826 70.2839 45.9826H70.1532V45.8145H72.8968V45.9826H72.5525C71.9494 45.9826 71.7919 46.044 71.7919 46.5938V50.6746C71.7919 50.9148 71.896 51.0029 72.1629 51.0029H73.5294C74.0792 51.0029 74.2473 50.7974 74.8345 50.0287H75L74.282 51.3178Z" fill="#7C7467"/>
<path fill-rule="evenodd" clip-rule="evenodd" d="M16.8117 62.5677C16.8117 62.9307 16.8384 63.0534 17.575 63.0534C18.8187 63.0534 19.3419 62.8853 19.9183 62.3355C20.2626 62.0152 20.6897 61.3346 20.6897 60.4245C20.6897 59.7706 20.4948 59.042 19.945 58.5216C19.518 58.1132 18.8588 57.8036 17.5563 57.8036C17.1747 57.8036 16.9238 57.833 16.8117 57.841V62.5677ZM16.0377 58.6016C16.0377 58.0251 15.8802 57.8837 15.3331 57.8837H15.1516V57.7129C15.4959 57.6969 15.9496 57.6809 16.4621 57.6595C16.9718 57.6435 17.5376 57.6328 18.0207 57.6328C20.4762 57.6328 21.5624 58.8205 21.5624 60.2804C21.5624 61.6175 20.4762 63.2162 18.1221 63.2162H15.1516V63.0508H15.3091C15.8108 63.0508 16.0404 62.9173 16.0404 62.4049V58.6016H16.0377Z" fill="#7C7467"/>
<path fill-rule="evenodd" clip-rule="evenodd" d="M26.0568 61.2308H25.8807C25.806 60.6009 25.6271 60.5316 25.2455 60.5316H23.6761V62.4158C23.6761 62.8215 23.8336 62.9042 24.1779 62.9042H25.6085C26.2597 62.9042 26.4519 62.664 26.6867 61.9034H26.8522L26.7054 63.2245H21.7732V63.0564H22.0321C22.7767 63.0564 22.9075 62.8615 22.9075 62.3304V58.5939C22.9075 58.0975 22.7847 57.884 22.1629 57.884H21.9573V57.7158H26.4172L26.4919 58.9462H26.3264C26.2063 58.1936 25.9714 58.0334 25.6378 58.0334H23.6788V60.2113H25.3442C25.6752 60.2113 25.8353 60.0592 25.8807 59.5467H26.0568V61.2308V61.2308Z" fill="#7C7467"/>
<path fill-rule="evenodd" clip-rule="evenodd" d="M31.2801 63.2221H27.1245V63.054H27.4314C27.8611 63.054 28.0186 62.9205 28.0186 62.4721V58.5488C28.0186 58.0791 27.8691 57.8842 27.2846 57.8842H27.1512V57.7188H29.8949V57.8842H29.5479C28.9474 57.8842 28.7873 57.9456 28.7873 58.4981V62.5762C28.7873 62.8164 28.8887 62.9045 29.1582 62.9045H30.5247C31.0719 62.9045 31.24 62.699 31.8272 61.9303H31.99L31.2801 63.2221Z" fill="#7C7467"/>
<path fill-rule="evenodd" clip-rule="evenodd" d="M37.0021 60.0614C37.1516 60.0961 37.4025 60.1495 37.6213 60.1495C38.8704 60.1495 39.6711 59.3434 39.6711 58.2412C39.6711 57.3925 39.3134 56.5544 37.7921 56.5544C37.5306 56.5544 37.2797 56.5544 37.0048 56.5998V60.0614H37.0021ZM37.0021 62.1752C37.0021 62.7864 37.1969 63.0132 37.9176 63.0132H38.2939V63.2188H35.1258V63.0132H35.2886C35.8812 63.0132 36.0573 62.8931 36.0573 62.3834V57.2296C36.0573 56.8266 35.9158 56.6532 35.5182 56.6532H34.947V56.4476C35.2673 56.437 35.8278 56.4049 36.3882 56.3836C36.9487 56.3596 37.4985 56.3516 37.8081 56.3516C40.1995 56.3516 40.7466 57.4405 40.7466 58.2785C40.7466 59.5543 39.6737 60.3603 37.9789 60.3603C37.6373 60.3603 37.3491 60.3363 37.0074 60.2722V62.1752H37.0021Z" fill="#7C7467"/>
<path fill-rule="evenodd" clip-rule="evenodd" d="M45.0678 61.2308H44.8917C44.8143 60.6009 44.6408 60.5316 44.2591 60.5316H42.6871V62.4158C42.6871 62.8215 42.8446 62.9042 43.1889 62.9042H44.6194C45.2707 62.9042 45.4655 62.664 45.6977 61.9034H45.8658L45.7164 63.2245H40.7815V63.0564H41.043C41.785 63.0564 41.9158 62.8615 41.9158 62.3304V58.5939C41.9158 58.0975 41.793 57.884 41.1712 57.884H40.9683V57.7158H45.4308L45.5029 58.9462H45.3347C45.2119 58.1936 44.9824 58.0334 44.6488 58.0334H42.6871V60.2113H44.3525C44.6862 60.2113 44.8436 60.0592 44.8917 59.5467H45.0678V61.2308V61.2308Z" fill="#7C7467"/>
<path fill-rule="evenodd" clip-rule="evenodd" d="M47.7982 60.724C48.0224 60.7533 48.1611 60.7427 48.372 60.7427C49.4049 60.7427 50.0828 60.329 50.0828 59.2641C50.0828 58.442 49.6931 57.8015 48.2626 57.8015C48.0864 57.8015 47.9636 57.8015 47.7982 57.8202V60.724ZM47.7982 62.3921C47.7982 62.9232 48.0224 63.054 48.5428 63.054H48.7536V63.2194H46.1221V63.054H46.2822C46.8293 63.054 47.0268 62.9125 47.0268 62.32V58.5942C47.0268 58.047 46.8694 57.8842 46.3302 57.8842H46.1247V57.7161C46.3489 57.7161 46.9174 57.6787 47.2991 57.6627C47.6754 57.6467 47.8622 57.6387 48.4654 57.6387C50.1895 57.6387 50.9582 58.3112 50.9582 59.2134C50.9582 59.8752 50.4831 60.4357 49.7225 60.6466C50.0668 60.9028 50.347 61.151 50.782 61.5674L51.516 62.2666C52.0631 62.7871 52.629 63.118 53.3469 63.1607V63.3209C51.7162 63.3929 51.3025 63.054 50.4724 62.2666L49.8613 61.6821C49.4502 61.2925 49.1273 61.0362 48.9031 60.8948C48.6709 60.9028 48.5241 60.9108 48.2732 60.9108C48.0677 60.9108 47.945 60.9028 47.7982 60.8948V62.3921V62.3921Z" fill="#7C7467"/>
<path fill-rule="evenodd" clip-rule="evenodd" d="M54.7481 57.016L55.6049 55.8897C55.7917 55.6521 56.0132 55.5 56.1974 55.5C56.3655 55.5 56.4856 55.6094 56.4856 55.7589C56.4856 55.927 56.2988 56.1032 55.8557 56.3861L54.8709 57.016H54.7481ZM59.2106 57.7152V57.8834C58.5861 57.8914 58.3645 58.1316 58.3645 58.6974V61.0888C58.3645 62.1857 57.6306 63.3627 55.6129 63.3627C53.8407 63.3627 52.9306 62.3992 52.9306 61.1341V58.5479C52.9306 57.9821 52.7624 57.894 52.1326 57.886V57.7179H54.5213V57.886H54.4385C53.9261 57.886 53.7019 58.0195 53.7019 58.5319V60.99C53.7019 62.1857 54.4385 62.901 55.821 62.901C56.8726 62.901 57.9402 62.4846 57.9402 60.9793V58.9162C57.9402 58.0675 57.8014 57.9154 57.0301 57.8807V57.7126H59.2106V57.7152Z" fill="#7C7467"/>
</svg>
