<svg width="42" height="32" fill="none" xmlns="http://www.w3.org/2000/svg"><path d="M1.45 13.08l.022-.044-.022.044 5.98 2.959v4.916c0 .434.242.831.624 1.02l11.492 5.686h0c.15.074.314.113.48.113h1.931c.166 0 .33-.039.48-.113h0l11.46-5.67-.022-.044.023.044a1.12 1.12 0 00.525-.551c.015-.033.029-.067.042-.1h0c.059-.14.09-.291.09-.444v-4.858l1.538-.76v6.601c-.354.25-.626.617-.758 1.062l-.933 3.12.048.014-.048-.014c-.117.394-.114.81.01 1.203l.047-.015.865 2.736a1.91 1.91 0 001.747 1.347l-.001.05h.016l.027.001h.017a1.94 1.94 0 001.813-1.267l1-2.606c.158-.412.178-.873.056-1.298l-.932-3.25a1.987 1.987 0 00-.765-1.084v-7.694l2.248-1.112-.022-.045.022.045c.383-.19.625-.586.625-1.02v-.863c0-.435-.242-.832-.625-1.021l-.022.045.022-.045L21.472.729h0a1.08 1.08 0 00-.96 0L1.45 10.16c-.383.19-.625.587-.625 1.021v.88c0 .434.242.831.625 1.02zm31.52 1.213h0L20.99 20.22 9.014 14.293h0a1.095 1.095 0 00-.143-.057L3.584 11.62l17.407-8.612L38.4 11.62l-5.287 2.616a1.107 1.107 0 00-.143.057zm4.884 12.472l-.7 1.826-.615-1.946.653-2.187.662 2.307zm-16.383-4.254l10.874-5.38v3.112l-10.64 5.264h-1.426l-10.64-5.264v-3.111l10.873 5.38a1.08 1.08 0 00.96 0z" fill="#C7CAD1" stroke="#C7CAD1" stroke-width=".1"/></svg>
