<svg width="46" height="46" fill="none" xmlns="http://www.w3.org/2000/svg"><path d="m3.45 20.08.022-.044-.022.044 5.98 2.959v4.916c0 .434.242.831.624 1.02l11.492 5.686c.15.074.314.113.48.113h1.931c.166 0 .33-.039.48-.113l11.46-5.67-.022-.044.023.044a1.12 1.12 0 0 0 .525-.551c.015-.033.029-.067.042-.1.059-.14.09-.291.09-.444v-4.858l1.538-.76v6.601c-.354.25-.626.617-.758 1.062l-.933 3.12.048.014-.048-.014c-.117.394-.114.81.01 1.203l.047-.015.865 2.736a1.91 1.91 0 0 0 1.747 1.347l-.001.05h.016l.027.001h.017a1.94 1.94 0 0 0 1.813-1.267l1-2.606c.158-.412.178-.873.056-1.297l-.932-3.25a1.987 1.987 0 0 0-.765-1.085v-7.694l2.248-1.112-.022-.045.022.045c.383-.19.625-.586.625-1.02v-.863c0-.435-.242-.832-.625-1.021l-.022.045.022-.045-19.078-9.439a1.08 1.08 0 0 0-.96 0L3.45 17.16c-.383.19-.625.587-.625 1.021v.88c0 .434.242.831.625 1.02zm31.52 1.213L22.99 27.22l-11.977-5.926a1.098 1.098 0 0 0-.143-.058L5.584 18.62l17.407-8.612L40.4 18.62l-5.287 2.615a1.107 1.107 0 0 0-.143.058zm4.884 12.472-.7 1.826-.615-1.946.653-2.187.662 2.307zm-16.383-4.254 10.874-5.38v3.112l-10.64 5.264h-1.426l-10.64-5.264v-3.111l10.873 5.38a1.08 1.08 0 0 0 .96 0z" fill="#C7CAD1" stroke="#C7CAD1" stroke-width=".1"/></svg>
