<svg width="32" height="32" fill="none" xmlns="http://www.w3.org/2000/svg"><mask id="a" maskUnits="userSpaceOnUse" x="-.333" y="-.333" width="32" height="32" fill="#000"><path fill="#fff" d="M-.333-.333h32v32h-32z"/><path d="M31.333 16c0-4.043-3.29-7.333-7.333-7.333-.267 0-.538.017-.81.047C22.524 4.132 19.554.667 16 .667c-3.553 0-6.523 3.465-7.19 8.047A7.231 7.231 0 008 8.667C3.957 8.667.667 11.957.667 16c0 3.819 2.934 6.961 6.666 7.3V30h-6a.666.666 0 100 1.333h29.334a.666.666 0 100-1.333h-6v-6.7c3.732-.339 6.666-3.481 6.666-7.3zm-8.015-5.96C26.908 9.618 30 12.466 30 16c0 3.309-2.691 6-6 6-1.9 0-3.634-.868-4.76-2.352 1.14-.763 2.094-1.92 2.796-3.315a11.014 11.014 0 00.35-.767c.025-.06.052-.119.076-.18.091-.231.174-.47.252-.711.035-.11.067-.223.1-.336.045-.156.088-.314.127-.474.029-.115.058-.23.084-.347.056-.253.105-.509.146-.768.014-.088.023-.178.035-.267a13.083 13.083 0 00.093-.919 13.033 13.033 0 00.019-1.524zM16 2c3.045 0 5.56 3.295 5.944 7.544v.005a10.78 10.78 0 01.028 1.91c-.006.094-.015.186-.024.279a12.938 12.938 0 01-.097.82c-.021.137-.046.271-.072.405a11.44 11.44 0 01-.222.96l-.004.014c-.042.146-.09.287-.136.428-.026.08-.052.162-.08.24a9.494 9.494 0 01-.25.634 9.019 9.019 0 01-.181.398c-.028.058-.059.112-.087.169-.13.256-.272.501-.422.735-.032.051-.063.104-.096.154-.072.107-.149.209-.225.31-.05.068-.1.136-.152.201a7.305 7.305 0 01-.654.715c-.052.05-.107.095-.161.143a5.82 5.82 0 01-.535.418c-.054.038-.108.079-.163.115-.092.058-.187.109-.281.162a4.511 4.511 0 01-1.464.518v-4.334l2.471-2.472a.666.666 0 10-.942-.942l-1.528 1.528V9.333a.666.666 0 10-1.334 0v3.724l-1.528-1.528a.666.666 0 10-.943.942l2.471 2.472v4.334c-.51-.082-1-.262-1.464-.519-.094-.052-.189-.103-.28-.161-.056-.037-.11-.078-.166-.116a5.672 5.672 0 01-.532-.417c-.055-.047-.11-.093-.162-.143a6.316 6.316 0 01-.25-.254 5.597 5.597 0 01-.17-.183 8.617 8.617 0 01-.234-.278c-.052-.065-.102-.133-.152-.2-.076-.102-.152-.204-.225-.311-.033-.05-.063-.103-.096-.154-.15-.234-.29-.48-.421-.735-.029-.057-.06-.111-.088-.169a9.912 9.912 0 01-.274-.621 9.493 9.493 0 01-.157-.41c-.028-.08-.054-.161-.08-.243-.048-.141-.094-.281-.135-.426l-.034-.132a11.511 11.511 0 01-.193-.843c-.025-.134-.051-.268-.072-.405a12.994 12.994 0 01-.097-.82c-.008-.093-.018-.186-.024-.28a12.93 12.93 0 01-.027-.79c0-.378.018-.755.057-1.12l-.001-.004C10.439 5.295 12.956 2 16 2zM2 16a6.007 6.007 0 016.682-5.96 12.925 12.925 0 00.111 2.442c.012.09.022.179.036.267.04.26.09.516.145.769.025.117.055.231.084.346.04.16.082.318.127.474.033.113.065.225.1.336.078.242.16.48.252.712.024.06.05.119.076.179.084.203.173.402.266.596l.084.171c.702 1.395 1.656 2.552 2.796 3.315A5.923 5.923 0 018 22c-3.309 0-6-2.691-6-6zm6.667 7.29a7.216 7.216 0 005.278-3.03c.447.179.911.302 1.388.36V30H8.667v-6.71zm8 6.71v-9.38a5.62 5.62 0 001.388-.36 7.214 7.214 0 005.278 3.03V30h-6.666z"/></mask><path d="M31.333 16c0-4.043-3.29-7.333-7.333-7.333-.267 0-.538.017-.81.047C22.524 4.132 19.554.667 16 .667c-3.553 0-6.523 3.465-7.19 8.047A7.231 7.231 0 008 8.667C3.957 8.667.667 11.957.667 16c0 3.819 2.934 6.961 6.666 7.3V30h-6a.666.666 0 100 1.333h29.334a.666.666 0 100-1.333h-6v-6.7c3.732-.339 6.666-3.481 6.666-7.3zm-8.015-5.96C26.908 9.618 30 12.466 30 16c0 3.309-2.691 6-6 6-1.9 0-3.634-.868-4.76-2.352 1.14-.763 2.094-1.92 2.796-3.315a11.014 11.014 0 00.35-.767c.025-.06.052-.119.076-.18.091-.231.174-.47.252-.711.035-.11.067-.223.1-.336.045-.156.088-.314.127-.474.029-.115.058-.23.084-.347.056-.253.105-.509.146-.768.014-.088.023-.178.035-.267a13.083 13.083 0 00.093-.919 13.033 13.033 0 00.019-1.524zM16 2c3.045 0 5.56 3.295 5.944 7.544v.005a10.78 10.78 0 01.028 1.91c-.006.094-.015.186-.024.279a12.938 12.938 0 01-.097.82c-.021.137-.046.271-.072.405a11.44 11.44 0 01-.222.96l-.004.014c-.042.146-.09.287-.136.428-.026.08-.052.162-.08.24a9.494 9.494 0 01-.25.634 9.019 9.019 0 01-.181.398c-.028.058-.059.112-.087.169-.13.256-.272.501-.422.735-.032.051-.063.104-.096.154-.072.107-.149.209-.225.31-.05.068-.1.136-.152.201a7.305 7.305 0 01-.654.715c-.052.05-.107.095-.161.143a5.82 5.82 0 01-.535.418c-.054.038-.108.079-.163.115-.092.058-.187.109-.281.162a4.511 4.511 0 01-1.464.518v-4.334l2.471-2.472a.666.666 0 10-.942-.942l-1.528 1.528V9.333a.666.666 0 10-1.334 0v3.724l-1.528-1.528a.666.666 0 10-.943.942l2.471 2.472v4.334c-.51-.082-1-.262-1.464-.519-.094-.052-.189-.103-.28-.161-.056-.037-.11-.078-.166-.116a5.672 5.672 0 01-.532-.417c-.055-.047-.11-.093-.162-.143a6.316 6.316 0 01-.25-.254 5.597 5.597 0 01-.17-.183 8.617 8.617 0 01-.234-.278c-.052-.065-.102-.133-.152-.2-.076-.102-.152-.204-.225-.311-.033-.05-.063-.103-.096-.154-.15-.234-.29-.48-.421-.735-.029-.057-.06-.111-.088-.169a9.912 9.912 0 01-.274-.621 9.493 9.493 0 01-.157-.41c-.028-.08-.054-.161-.08-.243-.048-.141-.094-.281-.135-.426l-.034-.132a11.511 11.511 0 01-.193-.843c-.025-.134-.051-.268-.072-.405a12.994 12.994 0 01-.097-.82c-.008-.093-.018-.186-.024-.28a12.93 12.93 0 01-.027-.79c0-.378.018-.755.057-1.12l-.001-.004C10.439 5.295 12.956 2 16 2zM2 16a6.007 6.007 0 016.682-5.96 12.925 12.925 0 00.111 2.442c.012.09.022.179.036.267.04.26.09.516.145.769.025.117.055.231.084.346.04.16.082.318.127.474.033.113.065.225.1.336.078.242.16.48.252.712.024.06.05.119.076.179.084.203.173.402.266.596l.084.171c.702 1.395 1.656 2.552 2.796 3.315A5.923 5.923 0 018 22c-3.309 0-6-2.691-6-6zm6.667 7.29a7.216 7.216 0 005.278-3.03c.447.179.911.302 1.388.36V30H8.667v-6.71zm8 6.71v-9.38a5.62 5.62 0 001.388-.36 7.214 7.214 0 005.278 3.03V30h-6.666z" fill="#C7CAD1"/><path d="M31.333 16c0-4.043-3.29-7.333-7.333-7.333-.267 0-.538.017-.81.047C22.524 4.132 19.554.667 16 .667c-3.553 0-6.523 3.465-7.19 8.047A7.231 7.231 0 008 8.667C3.957 8.667.667 11.957.667 16c0 3.819 2.934 6.961 6.666 7.3V30h-6a.666.666 0 100 1.333h29.334a.666.666 0 100-1.333h-6v-6.7c3.732-.339 6.666-3.481 6.666-7.3zm-8.015-5.96C26.908 9.618 30 12.466 30 16c0 3.309-2.691 6-6 6-1.9 0-3.634-.868-4.76-2.352 1.14-.763 2.094-1.92 2.796-3.315a11.014 11.014 0 00.35-.767c.025-.06.052-.119.076-.18.091-.231.174-.47.252-.711.035-.11.067-.223.1-.336.045-.156.088-.314.127-.474.029-.115.058-.23.084-.347.056-.253.105-.509.146-.768.014-.088.023-.178.035-.267a13.083 13.083 0 00.093-.919 13.033 13.033 0 00.019-1.524zM16 2c3.045 0 5.56 3.295 5.944 7.544v.005a10.78 10.78 0 01.028 1.91c-.006.094-.015.186-.024.279a12.938 12.938 0 01-.097.82c-.021.137-.046.271-.072.405a11.44 11.44 0 01-.222.96l-.004.014c-.042.146-.09.287-.136.428-.026.08-.052.162-.08.24a9.494 9.494 0 01-.25.634 9.019 9.019 0 01-.181.398c-.028.058-.059.112-.087.169-.13.256-.272.501-.422.735-.032.051-.063.104-.096.154-.072.107-.149.209-.225.31-.05.068-.1.136-.152.201a7.305 7.305 0 01-.654.715c-.052.05-.107.095-.161.143a5.82 5.82 0 01-.535.418c-.054.038-.108.079-.163.115-.092.058-.187.109-.281.162a4.511 4.511 0 01-1.464.518v-4.334l2.471-2.472a.666.666 0 10-.942-.942l-1.528 1.528V9.333a.666.666 0 10-1.334 0v3.724l-1.528-1.528a.666.666 0 10-.943.942l2.471 2.472v4.334c-.51-.082-1-.262-1.464-.519-.094-.052-.189-.103-.28-.161-.056-.037-.11-.078-.166-.116a5.672 5.672 0 01-.532-.417c-.055-.047-.11-.093-.162-.143a6.316 6.316 0 01-.25-.254 5.597 5.597 0 01-.17-.183 8.617 8.617 0 01-.234-.278c-.052-.065-.102-.133-.152-.2-.076-.102-.152-.204-.225-.311-.033-.05-.063-.103-.096-.154-.15-.234-.29-.48-.421-.735-.029-.057-.06-.111-.088-.169a9.912 9.912 0 01-.274-.621 9.493 9.493 0 01-.157-.41c-.028-.08-.054-.161-.08-.243-.048-.141-.094-.281-.135-.426l-.034-.132a11.511 11.511 0 01-.193-.843c-.025-.134-.051-.268-.072-.405a12.994 12.994 0 01-.097-.82c-.008-.093-.018-.186-.024-.28a12.93 12.93 0 01-.027-.79c0-.378.018-.755.057-1.12l-.001-.004C10.439 5.295 12.956 2 16 2zM2 16a6.007 6.007 0 016.682-5.96 12.925 12.925 0 00.111 2.442c.012.09.022.179.036.267.04.26.09.516.145.769.025.117.055.231.084.346.04.16.082.318.127.474.033.113.065.225.1.336.078.242.16.48.252.712.024.06.05.119.076.179.084.203.173.402.266.596l.084.171c.702 1.395 1.656 2.552 2.796 3.315A5.923 5.923 0 018 22c-3.309 0-6-2.691-6-6zm6.667 7.29a7.216 7.216 0 005.278-3.03c.447.179.911.302 1.388.36V30H8.667v-6.71zm8 6.71v-9.38a5.62 5.62 0 001.388-.36 7.214 7.214 0 005.278 3.03V30h-6.666z" stroke="#C7CAD1" stroke-width=".6" mask="url(#a)"/></svg>
