<svg width="46" height="46" fill="none" xmlns="http://www.w3.org/2000/svg"><mask id="a" maskUnits="userSpaceOnUse" x="6.667" y="6.667" width="32" height="32" fill="#000"><path fill="#fff" d="M6.667 6.667h32v32h-32z"/><path d="M38.333 23c0-4.043-3.29-7.333-7.333-7.333-.267 0-.538.017-.81.048-.667-4.583-3.637-8.048-7.19-8.048-3.553 0-6.523 3.465-7.19 8.048a7.232 7.232 0 0 0-.81-.048c-4.043 0-7.333 3.29-7.333 7.333 0 3.819 2.934 6.961 6.666 7.3V37h-6a.666.666 0 1 0 0 1.333h29.334a.666.666 0 1 0 0-1.333h-6v-6.7c3.732-.339 6.666-3.481 6.666-7.3zm-8.015-5.96C33.908 16.618 37 19.466 37 23c0 3.309-2.691 6-6 6-1.9 0-3.634-.868-4.76-2.352 1.14-.763 2.094-1.92 2.796-3.315a11.014 11.014 0 0 0 .35-.767c.025-.06.052-.119.076-.18.091-.231.174-.47.252-.711.035-.11.067-.223.1-.336.045-.156.088-.313.127-.474.029-.115.058-.23.084-.346.056-.254.105-.51.146-.769.014-.088.023-.178.035-.267a13.093 13.093 0 0 0 .093-.919 13.033 13.033 0 0 0 .019-1.524zM23 9c3.045 0 5.56 3.295 5.944 7.544v.005a10.781 10.781 0 0 1 .028 1.91c-.006.094-.015.186-.024.279a12.938 12.938 0 0 1-.097.82c-.021.137-.046.271-.072.405a11.44 11.44 0 0 1-.222.96l-.004.014c-.042.146-.09.287-.136.428-.026.081-.052.162-.08.24a9.444 9.444 0 0 1-.25.634 8.97 8.97 0 0 1-.181.398c-.028.058-.059.112-.087.17-.13.255-.272.5-.422.734-.032.051-.063.104-.096.154-.072.107-.149.21-.225.31-.05.068-.1.136-.152.201a7.227 7.227 0 0 1-.654.715c-.052.05-.107.095-.161.143a5.82 5.82 0 0 1-.535.418c-.054.038-.108.079-.163.115-.092.058-.187.11-.281.162a4.513 4.513 0 0 1-1.464.518v-4.334l2.471-2.472a.666.666 0 1 0-.942-.942l-1.528 1.528v-3.724a.666.666 0 1 0-1.334 0v3.724l-1.528-1.528a.666.666 0 1 0-.943.942l2.471 2.472v4.334c-.51-.082-1-.262-1.464-.519-.094-.052-.189-.103-.28-.161-.056-.036-.11-.078-.166-.116a5.672 5.672 0 0 1-.532-.417c-.054-.047-.11-.093-.162-.143a6.316 6.316 0 0 1-.25-.254 5.597 5.597 0 0 1-.17-.183 8.51 8.51 0 0 1-.234-.278c-.052-.065-.102-.133-.152-.2-.076-.102-.152-.204-.224-.311-.034-.05-.064-.103-.097-.154-.15-.234-.29-.48-.421-.735-.029-.057-.06-.111-.088-.169a9.853 9.853 0 0 1-.274-.621 9.443 9.443 0 0 1-.157-.41c-.028-.08-.054-.161-.08-.243-.047-.14-.094-.28-.135-.426l-.034-.132a11.526 11.526 0 0 1-.193-.843c-.025-.134-.051-.268-.072-.405a12.994 12.994 0 0 1-.097-.82c-.008-.093-.018-.185-.024-.28a12.93 12.93 0 0 1-.027-.79c0-.378.018-.755.057-1.12l-.001-.004C17.439 12.295 19.956 9 23 9zM9 23a6.007 6.007 0 0 1 6.682-5.96 12.912 12.912 0 0 0 .111 2.442c.012.09.022.179.036.267.04.26.09.516.145.769.025.117.055.231.084.347.04.16.082.317.127.474.033.112.065.225.1.335.078.242.16.48.252.712.024.06.05.119.076.179.084.203.173.402.266.596l.084.171c.702 1.395 1.656 2.552 2.796 3.316A5.923 5.923 0 0 1 15 29c-3.309 0-6-2.691-6-6zm6.667 7.29a7.216 7.216 0 0 0 5.278-3.03c.447.179.911.302 1.388.36V37h-6.666v-6.71zm8 6.71v-9.38c.477-.059.941-.182 1.388-.36a7.214 7.214 0 0 0 5.278 3.03V37h-6.666z"/></mask><path d="M38.333 23c0-4.043-3.29-7.333-7.333-7.333-.267 0-.538.017-.81.048-.667-4.583-3.637-8.048-7.19-8.048-3.553 0-6.523 3.465-7.19 8.048a7.232 7.232 0 0 0-.81-.048c-4.043 0-7.333 3.29-7.333 7.333 0 3.819 2.934 6.961 6.666 7.3V37h-6a.666.666 0 1 0 0 1.333h29.334a.666.666 0 1 0 0-1.333h-6v-6.7c3.732-.339 6.666-3.481 6.666-7.3zm-8.015-5.96C33.908 16.618 37 19.466 37 23c0 3.309-2.691 6-6 6-1.9 0-3.634-.868-4.76-2.352 1.14-.763 2.094-1.92 2.796-3.315a11.014 11.014 0 0 0 .35-.767c.025-.06.052-.119.076-.18.091-.231.174-.47.252-.711.035-.11.067-.223.1-.336.045-.156.088-.313.127-.474.029-.115.058-.23.084-.346.056-.254.105-.51.146-.769.014-.088.023-.178.035-.267a13.093 13.093 0 0 0 .093-.919 13.033 13.033 0 0 0 .019-1.524zM23 9c3.045 0 5.56 3.295 5.944 7.544v.005a10.781 10.781 0 0 1 .028 1.91c-.006.094-.015.186-.024.279a12.938 12.938 0 0 1-.097.82c-.021.137-.046.271-.072.405a11.44 11.44 0 0 1-.222.96l-.004.014c-.042.146-.09.287-.136.428-.026.081-.052.162-.08.24a9.444 9.444 0 0 1-.25.634 8.97 8.97 0 0 1-.181.398c-.028.058-.059.112-.087.17-.13.255-.272.5-.422.734-.032.051-.063.104-.096.154-.072.107-.149.21-.225.31-.05.068-.1.136-.152.201a7.227 7.227 0 0 1-.654.715c-.052.05-.107.095-.161.143a5.82 5.82 0 0 1-.535.418c-.054.038-.108.079-.163.115-.092.058-.187.11-.281.162a4.513 4.513 0 0 1-1.464.518v-4.334l2.471-2.472a.666.666 0 1 0-.942-.942l-1.528 1.528v-3.724a.666.666 0 1 0-1.334 0v3.724l-1.528-1.528a.666.666 0 1 0-.943.942l2.471 2.472v4.334c-.51-.082-1-.262-1.464-.519-.094-.052-.189-.103-.28-.161-.056-.036-.11-.078-.166-.116a5.672 5.672 0 0 1-.532-.417c-.054-.047-.11-.093-.162-.143a6.316 6.316 0 0 1-.25-.254 5.597 5.597 0 0 1-.17-.183 8.51 8.51 0 0 1-.234-.278c-.052-.065-.102-.133-.152-.2-.076-.102-.152-.204-.224-.311-.034-.05-.064-.103-.097-.154-.15-.234-.29-.48-.421-.735-.029-.057-.06-.111-.088-.169a9.853 9.853 0 0 1-.274-.621 9.443 9.443 0 0 1-.157-.41c-.028-.08-.054-.161-.08-.243-.047-.14-.094-.28-.135-.426l-.034-.132a11.526 11.526 0 0 1-.193-.843c-.025-.134-.051-.268-.072-.405a12.994 12.994 0 0 1-.097-.82c-.008-.093-.018-.185-.024-.28a12.93 12.93 0 0 1-.027-.79c0-.378.018-.755.057-1.12l-.001-.004C17.439 12.295 19.956 9 23 9zM9 23a6.007 6.007 0 0 1 6.682-5.96 12.912 12.912 0 0 0 .111 2.442c.012.09.022.179.036.267.04.26.09.516.145.769.025.117.055.231.084.347.04.16.082.317.127.474.033.112.065.225.1.335.078.242.16.48.252.712.024.06.05.119.076.179.084.203.173.402.266.596l.084.171c.702 1.395 1.656 2.552 2.796 3.316A5.923 5.923 0 0 1 15 29c-3.309 0-6-2.691-6-6zm6.667 7.29a7.216 7.216 0 0 0 5.278-3.03c.447.179.911.302 1.388.36V37h-6.666v-6.71zm8 6.71v-9.38c.477-.059.941-.182 1.388-.36a7.214 7.214 0 0 0 5.278 3.03V37h-6.666z" fill="#C7CAD1"/><path d="M38.333 23c0-4.043-3.29-7.333-7.333-7.333-.267 0-.538.017-.81.048-.667-4.583-3.637-8.048-7.19-8.048-3.553 0-6.523 3.465-7.19 8.048a7.232 7.232 0 0 0-.81-.048c-4.043 0-7.333 3.29-7.333 7.333 0 3.819 2.934 6.961 6.666 7.3V37h-6a.666.666 0 1 0 0 1.333h29.334a.666.666 0 1 0 0-1.333h-6v-6.7c3.732-.339 6.666-3.481 6.666-7.3zm-8.015-5.96C33.908 16.618 37 19.466 37 23c0 3.309-2.691 6-6 6-1.9 0-3.634-.868-4.76-2.352 1.14-.763 2.094-1.92 2.796-3.315a11.014 11.014 0 0 0 .35-.767c.025-.06.052-.119.076-.18.091-.231.174-.47.252-.711.035-.11.067-.223.1-.336.045-.156.088-.313.127-.474.029-.115.058-.23.084-.346.056-.254.105-.51.146-.769.014-.088.023-.178.035-.267a13.093 13.093 0 0 0 .093-.919 13.033 13.033 0 0 0 .019-1.524zM23 9c3.045 0 5.56 3.295 5.944 7.544v.005a10.781 10.781 0 0 1 .028 1.91c-.006.094-.015.186-.024.279a12.938 12.938 0 0 1-.097.82c-.021.137-.046.271-.072.405a11.44 11.44 0 0 1-.222.96l-.004.014c-.042.146-.09.287-.136.428-.026.081-.052.162-.08.24a9.444 9.444 0 0 1-.25.634 8.97 8.97 0 0 1-.181.398c-.028.058-.059.112-.087.17-.13.255-.272.5-.422.734-.032.051-.063.104-.096.154-.072.107-.149.21-.225.31-.05.068-.1.136-.152.201a7.227 7.227 0 0 1-.654.715c-.052.05-.107.095-.161.143a5.82 5.82 0 0 1-.535.418c-.054.038-.108.079-.163.115-.092.058-.187.11-.281.162a4.513 4.513 0 0 1-1.464.518v-4.334l2.471-2.472a.666.666 0 1 0-.942-.942l-1.528 1.528v-3.724a.666.666 0 1 0-1.334 0v3.724l-1.528-1.528a.666.666 0 1 0-.943.942l2.471 2.472v4.334c-.51-.082-1-.262-1.464-.519-.094-.052-.189-.103-.28-.161-.056-.036-.11-.078-.166-.116a5.672 5.672 0 0 1-.532-.417c-.054-.047-.11-.093-.162-.143a6.316 6.316 0 0 1-.25-.254 5.597 5.597 0 0 1-.17-.183 8.51 8.51 0 0 1-.234-.278c-.052-.065-.102-.133-.152-.2-.076-.102-.152-.204-.224-.311-.034-.05-.064-.103-.097-.154-.15-.234-.29-.48-.421-.735-.029-.057-.06-.111-.088-.169a9.853 9.853 0 0 1-.274-.621 9.443 9.443 0 0 1-.157-.41c-.028-.08-.054-.161-.08-.243-.047-.14-.094-.28-.135-.426l-.034-.132a11.526 11.526 0 0 1-.193-.843c-.025-.134-.051-.268-.072-.405a12.994 12.994 0 0 1-.097-.82c-.008-.093-.018-.185-.024-.28a12.93 12.93 0 0 1-.027-.79c0-.378.018-.755.057-1.12l-.001-.004C17.439 12.295 19.956 9 23 9zM9 23a6.007 6.007 0 0 1 6.682-5.96 12.912 12.912 0 0 0 .111 2.442c.012.09.022.179.036.267.04.26.09.516.145.769.025.117.055.231.084.347.04.16.082.317.127.474.033.112.065.225.1.335.078.242.16.48.252.712.024.06.05.119.076.179.084.203.173.402.266.596l.084.171c.702 1.395 1.656 2.552 2.796 3.316A5.923 5.923 0 0 1 15 29c-3.309 0-6-2.691-6-6zm6.667 7.29a7.216 7.216 0 0 0 5.278-3.03c.447.179.911.302 1.388.36V37h-6.666v-6.71zm8 6.71v-9.38c.477-.059.941-.182 1.388-.36a7.214 7.214 0 0 0 5.278 3.03V37h-6.666z" stroke="#C7CAD1" stroke-width=".6" mask="url(#a)"/></svg>