<svg width="32" height="32" fill="none" xmlns="http://www.w3.org/2000/svg"><path d="M1.565 18.338h.852v12.097c0 .54.438.978.979.978h25.208c.54 0 .979-.438.979-.978V18.338h.852c.54 0 .978-.438.978-.979v-2.994a.979.979 0 00-.635-.917l-13.8-5.17v-2.14h4.255c.54 0 .979-.439.979-.98V1.566a.978.978 0 00-.979-.978H16a.978.978 0 00-.979.978v6.713l-13.8 5.17a.978.978 0 00-.634.917v2.994c0 .54.438.979.978.979zM9.59 29.456H7.945V22.75a.82.82 0 01.819-.818h.007a.82.82 0 01.819.818v6.706zm5.558 0v-7.922a.82.82 0 01.818-.818h.008a.82.82 0 01.818.818v7.922h-1.644zm8.907 0H22.41V22.75a.82.82 0 01.819-.818h.007a.82.82 0 01.819.818v6.706zM16.978 2.543h3.277V4.18h-3.277V2.544zm-14.435 12.5L16 10l13.456 5.042v1.338H20.764a.978.978 0 100 1.957h6.862v11.118H26.01V22.75a2.778 2.778 0 00-2.775-2.775h-.007a2.778 2.778 0 00-2.776 2.775v6.706H18.75v-7.922a2.778 2.778 0 00-2.775-2.775h-.008a2.778 2.778 0 00-2.775 2.775v7.922h-1.645V22.75a2.778 2.778 0 00-2.775-2.775h-.007a2.778 2.778 0 00-2.776 2.775v6.706H4.374V18.338h6.802a.979.979 0 000-1.957H2.543v-1.338z" fill="#C7CAD1" stroke="#C7CAD1" stroke-width=".16"/></svg>
