<svg width="46" height="46" fill="none" xmlns="http://www.w3.org/2000/svg"><path d="M22.97 24.122a2.78 2.78 0 0 0 2.779-2.775 2.78 2.78 0 0 0-5.558 0 2.78 2.78 0 0 0 2.779 2.775zm0-3.594c.454 0 .822.368.822.819a.821.821 0 0 1-1.644 0c0-.451.368-.819.822-.819z" fill="#C7CAD1" stroke="#C7CAD1" stroke-width=".16"/><path d="M8.565 25.338h.852v12.097c0 .54.438.978.979.978h25.208c.54 0 .979-.438.979-.978V25.338h.852c.54 0 .978-.438.978-.979v-2.994a.979.979 0 0 0-.635-.917l-13.8-5.17v-2.14h4.255c.54 0 .979-.439.979-.98V8.566a.978.978 0 0 0-.979-.978H23a.978.978 0 0 0-.979.978v6.713l-13.8 5.17a.978.978 0 0 0-.634.917v2.994c0 .54.438.979.978.979zm8.025 11.118h-1.645V29.75a.82.82 0 0 1 .819-.818h.007a.82.82 0 0 1 .819.818v6.706zm5.558 0v-7.922a.82.82 0 0 1 .818-.818h.008a.82.82 0 0 1 .818.818v7.922h-1.644zm8.907 0H29.41V29.75a.82.82 0 0 1 .819-.818h.007a.82.82 0 0 1 .819.818v6.706zM23.978 9.543h3.277v1.637h-3.277V9.544zm-14.435 12.5L23 17l13.456 5.042v1.338H27.764a.978.978 0 1 0 0 1.957h6.862v11.118H33.01V29.75a2.778 2.778 0 0 0-2.775-2.775h-.007a2.778 2.778 0 0 0-2.776 2.775v6.706H25.75v-7.922a2.778 2.778 0 0 0-2.775-2.775h-.008a2.778 2.778 0 0 0-2.775 2.775v7.922h-1.644V29.75a2.778 2.778 0 0 0-2.776-2.775h-.007a2.778 2.778 0 0 0-2.775 2.775v6.706h-1.615V25.338h6.802a.979.979 0 0 0 0-1.957H9.543v-1.338z" fill="#C7CAD1" stroke="#C7CAD1" stroke-width=".16"/></svg>