<svg width="46" height="46" fill="none" xmlns="http://www.w3.org/2000/svg"><mask id="a" maskUnits="userSpaceOnUse" x="4.75" y="4.75" width="29" height="27" fill="#000"><path fill="#fff" d="M4.75 4.75h29v27h-29z"/><path fill-rule="evenodd" clip-rule="evenodd" d="m27.184 5.756 4.71-.006c.38 0 .69.254.69.557l-.008 3.784c0 .309-.303.562-.688.568-.386-.011-.689-.26-.689-.568l.007-2.455-7.948 6.37a.79.79 0 0 1-.489.177.775.775 0 0 1-.489-.176L19.67 11.9 6.93 22.104a.777.777 0 0 1-.49.16.777.777 0 0 1-.489-.16c-.268-.21-.268-.557 0-.773l13.223-10.59a.78.78 0 0 1 .49-.143.78.78 0 0 1 .488.144l2.61 2.073 7.473-5.962-3.051.006h-.014c-.379-.006-.689-.254-.682-.557.007-.304.317-.552.696-.546zm2.122 9.577h1.308v15.333h-1.308V15.333zm-4.058 3.834h-1.309v11.5h1.309v-11.5zm-6.68 2.62h1.308v8.88h-1.309v-8.88zm-5.44 1.269h1.31v7.611h-1.31v-7.611zm-4.132 4.743H7.687v2.868h1.309v-2.868z"/></mask><path fill-rule="evenodd" clip-rule="evenodd" d="m27.184 5.756 4.71-.006c.38 0 .69.254.69.557l-.008 3.784c0 .309-.303.562-.688.568-.386-.011-.689-.26-.689-.568l.007-2.455-7.948 6.37a.79.79 0 0 1-.489.177.775.775 0 0 1-.489-.176L19.67 11.9 6.93 22.104a.777.777 0 0 1-.49.16.777.777 0 0 1-.489-.16c-.268-.21-.268-.557 0-.773l13.223-10.59a.78.78 0 0 1 .49-.143.78.78 0 0 1 .488.144l2.61 2.073 7.473-5.962-3.051.006h-.014c-.379-.006-.689-.254-.682-.557.007-.304.317-.552.696-.546zm2.122 9.577h1.308v15.333h-1.308V15.333zm-4.058 3.834h-1.309v11.5h1.309v-11.5zm-6.68 2.62h1.308v8.88h-1.309v-8.88zm-5.44 1.269h1.31v7.611h-1.31v-7.611zm-4.132 4.743H7.687v2.868h1.309v-2.868z" fill="#C7CAD1"/><path d="M31.895 5.75v-.5.5zm-4.711.006-.007.5h.008l-.001-.5zm5.4.551.5.001h-.5zm-.008 3.784-.5-.001h.5zm-.688.568-.015.5H31.895l-.006-.5zm-.689-.568-.5-.002v.002h.5zm.007-2.455.5.002.003-1.046-.816.654.313.39zm-7.948 6.37-.312-.39-.01.008.322.383zm-.489.177-.014.5H22.784l-.015-.5zm-.489-.176.333-.374-.01-.008-.009-.007-.314.389zM19.67 11.9l.314-.39-.313-.252-.313.252.312.39zM6.93 22.104l.312.39-.313-.39zm-.979 0 .313-.39-.005-.005-.308.395zm0-.773-.312-.39.312.39zm13.223-10.59-.302-.398-.01.008.312.39zm.49-.143-.016.5h.031l-.016-.5zm.488.144.311-.392-.008-.007-.303.399zm2.61 2.073-.31.392.311.248.311-.249-.312-.39zm7.473-5.962.312.39 1.12-.892-1.433.002v.5zm-3.051.006v.5-.5zm-.014 0-.007.5h.007v-.5zm-.682-.557.5.01-.5-.01zm4.126 9.031h.5v-.5h-.5v.5zm-1.308 0v-.5h-.5v.5h.5zm1.308 15.333v.5h.5v-.5h-.5zm-1.308 0h-.5v.5h.5v-.5zm-5.367-11.499v-.5h-.5v.5h.5zm1.309 0h.5v-.5h-.5v.5zm-1.309 11.5h-.5v.5h.5v-.5zm1.309 0v.5h.5v-.5h-.5zm-5.372-8.88h.5v-.5h-.5v.5zm-1.309 0v-.5h-.5v.5h.5zm1.309 8.88v.5h.5v-.5h-.5zm-1.309 0h-.5v.5h.5v-.5zm-4.13-7.611h.5v-.5h-.5v.5zm-1.308 0v-.5h-.5v.5h.5zm1.308 7.611v.5h.5v-.5h-.5zm-1.308 0h-.5v.5h.5v-.5zM7.688 27.8v-.5h-.5v.5h.5zm1.308 0h.5v-.5h-.5v.5zm-1.309 2.868h-.5v.5h.5v-.5zm1.309 0v.5h.5v-.5h-.5zM31.894 5.25l-4.71.006v1l4.711-.006v-1zm1.19 1.057c0-.672-.637-1.057-1.19-1.057v1c.08 0 .14.027.172.053.032.026.017.031.017.004h1zm-.008 3.785.007-3.784-1-.002-.007 3.784 1 .002zm-1.181 1.067c.56-.008 1.181-.397 1.181-1.068h-1c0-.018.01-.011-.018.013a.287.287 0 0 1-.177.055l.014 1zm-1.196-1.068c0 .676.627 1.052 1.174 1.068l.029-1a.31.31 0 0 1-.186-.059c-.028-.023-.017-.029-.017-.01h-1zm.007-2.456-.007 2.454 1 .003.007-2.454-1-.003zm-7.135 6.762 7.948-6.37-.626-.78-7.947 6.37.625.78zm-.787.286a1.29 1.29 0 0 0 .797-.294l-.645-.764a.293.293 0 0 1-.181.059l.03 1zm-.836-.303c.23.205.531.295.807.303l.03-1a.289.289 0 0 1-.172-.05l-.665.747zm-2.592-2.091 2.61 2.107.628-.778-2.61-2.107-.628.778zM7.242 22.494l12.74-10.204-.624-.78L6.617 21.713l.625.78zm-.802.27c.283 0 .57-.084.802-.27l-.625-.78a.282.282 0 0 1-.177.05v1zm-.801-.27c.232.186.519.27.801.27v-1a.282.282 0 0 1-.176-.05l-.625.78zm0-1.553a.998.998 0 0 0-.389.779c0 .308.15.588.394.778l.615-.789c-.014-.01-.016-.016-.014-.012l.003.008a.061.061 0 0 1 0 .028.034.034 0 0 1-.002.007c0 .002.002-.006.018-.018l-.625-.78zm13.223-10.59L5.639 20.941l.625.78 13.223-10.59-.625-.78zm.817-.253a1.278 1.278 0 0 0-.807.245l.605.797a.288.288 0 0 1 .171-.042l.03-1zm.776.245a1.278 1.278 0 0 0-.807-.245l.03 1a.287.287 0 0 1 .172.042l.605-.797zm2.619 2.081-2.61-2.074-.623.783 2.61 2.074.623-.783zm6.849-5.962-7.472 5.963.623.781 7.473-5.962-.624-.782zm-2.738.897 3.05-.006-.001-1-3.051.006.002 1zm-.015 0h.014v-1h-.014v1zM25.988 6.29c-.015.69.64 1.06 1.175 1.069l.014-1A.295.295 0 0 1 27 6.304c-.03-.024-.011-.024-.012.009l-1-.023zm1.203-1.034c-.556-.009-1.187.369-1.203 1.034l1 .023c0 .024-.012.017.019-.008a.272.272 0 0 1 .17-.05l.014-1zm3.423 9.577h-1.308v1h1.308v-1zm.5 15.833V15.333h-1v15.333h1zm-1.808.5h1.308v-1h-1.308v1zm-.5-15.833v15.333h1V15.333h-1zm-4.867 4.334h1.309v-1h-1.309v1zm.5 11v-11.5h-1v11.5h1zm.809-.5h-1.309v1h1.309v-1zm-.5-11v11.5h1v-11.5h-1zm-4.872 2.12h-1.309v1h1.309v-1zm.5 9.38v-8.88h-1v8.88h1zm-1.809.5h1.309v-1h-1.309v1zm-.5-9.38v8.88h1v-8.88h-1zm-3.63.769H13.13v1h1.308v-1zm.5 8.111v-7.611h-1v7.611h1zm-1.808.5h1.308v-1H13.13v1zm-.5-8.111v7.611h1v-7.611h-1zm-4.941 5.243h1.308v-1H7.687v1zm.5 2.368v-2.868h-1v2.868h1zm.808-.5H7.687v1h1.309v-1zm-.5-2.368v2.868h1v-2.868h-1z" fill="#C7CAD1" mask="url(#a)"/><circle cx="32.922" cy="31.005" fill="#fff" r="8.005"/><path d="M32.7 32.703c0-2.12-3.47-1.302-3.47-2.612 0-.56.48-.826 1.103-.81.679.017 1.065.376 1.103.768h1.188c-.094-.993-.98-1.577-2.235-1.577-1.338 0-2.253.634-2.253 1.652 0 2.137 3.48 1.227 3.48 2.63 0 .492-.425.85-1.18.85-.744 0-1.121-.383-1.169-.86h-1.15c0 1.027 1.009 1.662 2.32 1.662 1.461 0 2.262-.835 2.262-1.703zM33.836 35.808h1.056l2.564-9.34h-1.065l-2.555 9.34z" fill="#fff"/></svg>
