<svg width="46" height="32" fill="none" xmlns="http://www.w3.org/2000/svg"><mask id="a" maskUnits="userSpaceOnUse" x="-.042" y="-.333" width="46" height="32" fill="#000"><path fill="#fff" d="M-.042-.333h46v32h-46z"/><path d="M44.98 17.49c-.158-1.136-1.334-2.045-3.537-2.708-1.782-.533-4.038-.857-6.496-.909v-9.32a.813.813 0 00-.184-.524c-.29-1.013-1.466-1.834-3.503-2.445C29.285.99 26.704.667 23.992.667c-2.704 0-5.258.323-7.19.917-1.588.489-3.493 1.397-3.493 2.96 0 .097.009.193.026.289l.097 3.983c-5.697-1.092-11.2 2.638-12.29 8.315a10.314 10.314 0 00-.184 1.948c0 5.765 4.714 10.455 10.508 10.455 2.414 0 4.749-.83 6.627-2.34 1.65.384 3.581.593 5.627.61.448 2.42 5.714 3.53 10.63 3.53 2.704 0 5.25-.333 7.198-.935 1.598-.49 3.494-1.407 3.494-2.97v-9.6a.9.9 0 00-.062-.34zM17.33 3.251c1.773-.542 4.143-.847 6.67-.847 2.511 0 4.97.305 6.76.847 1.905.577 2.317 1.17 2.317 1.293 0 .122-.412.725-2.326 1.292-1.782.533-4.24.848-6.75.848-2.423 0-4.723-.28-6.47-.786-1.887-.542-2.414-1.145-2.458-1.337 0-.017 0-.026-.008-.026.008-.122.412-.716 2.264-1.284zM33.19 6.728v2.236a.704.704 0 00-.114.42c0 .113-.412.716-2.326 1.292-1.782.533-4.249.848-6.76.848-2.167 0-4.292-.227-5.977-.655-.026-.01-.044-.01-.07-.018a10.378 10.378 0 00-2.748-1.546l-.061-2.463c.606.306 1.238.55 1.896.725 1.905.55 4.371.847 6.96.847 2.713 0 5.294-.323 7.26-.917a9.542 9.542 0 001.94-.769zM17.356 25.516c-3.573 3.24-9.112 2.979-12.36-.576-3.248-3.555-2.993-9.067.58-12.298a8.791 8.791 0 015.89-2.271c.877 0 1.755.13 2.598.384a8.803 8.803 0 015.987 6.56c.114.576.175 1.17.175 1.755a8.666 8.666 0 01-2.87 6.446zm2.23.192a10.535 10.535 0 001.685-2.873c.746.06 1.536.104 2.343.113v.157l.044 2.961a27.776 27.776 0 01-4.073-.358zm2.334-7.668c.518.034 1.054.052 1.598.06 0 .018.009.044.009.062l.052 3.03a30.221 30.221 0 01-1.817-.078c.132-.673.202-1.363.202-2.044a8.182 8.182 0 00-.044-1.03zm2.16-1.678H24c-.842 0-1.658-.034-2.413-.087a10.33 10.33 0 00-1.572-3.25c1.317.167 2.643.254 3.977.254 2.712 0 5.293-.323 7.268-.917a11.33 11.33 0 001.931-.786v2.315c-3.774.104-7.672.89-9.111 2.471zm1.176 1.346c.088-.245.729-.813 2.528-1.32 1.712-.48 3.941-.742 6.285-.742h.114c2.51 0 4.969.288 6.76.83 1.852.559 2.29 1.118 2.317 1.267v.008c-.01.131-.448.734-2.397 1.31-1.8.533-4.17.821-6.68.821-2.37 0-4.635-.27-6.373-.75-1.676-.472-2.352-1.005-2.519-1.276a.736.736 0 00-.035-.149zm18.03 9.721c0 .122-.395.725-2.256 1.301-1.782.55-4.152.856-6.68.856-2.537 0-4.907-.297-6.663-.83-1.86-.567-2.238-1.152-2.238-1.283v-.018l-.044-2.524c2.09 1.057 5.574 1.537 8.77 1.537 2.712 0 5.275-.323 7.241-.917.65-.192 1.273-.454 1.87-.769v2.647zm-.079-4.839c0 .122-.404.716-2.3 1.293-1.8.541-4.187.838-6.733.838-4.819 0-8.084-1.074-8.804-1.921l-.018-.751-.035-2c.641.323 1.308.576 2.002.76 1.887.523 4.319.82 6.847.82 2.668 0 5.214-.314 7.171-.89a10.085 10.085 0 001.94-.77v2.245h.009c0 .114-.079.245-.079.376z"/></mask><path d="M44.98 17.49c-.158-1.136-1.334-2.045-3.537-2.708-1.782-.533-4.038-.857-6.496-.909v-9.32a.813.813 0 00-.184-.524c-.29-1.013-1.466-1.834-3.503-2.445C29.285.99 26.704.667 23.992.667c-2.704 0-5.258.323-7.19.917-1.588.489-3.493 1.397-3.493 2.96 0 .097.009.193.026.289l.097 3.983c-5.697-1.092-11.2 2.638-12.29 8.315a10.314 10.314 0 00-.184 1.948c0 5.765 4.714 10.455 10.508 10.455 2.414 0 4.749-.83 6.627-2.34 1.65.384 3.581.593 5.627.61.448 2.42 5.714 3.53 10.63 3.53 2.704 0 5.25-.333 7.198-.935 1.598-.49 3.494-1.407 3.494-2.97v-9.6a.9.9 0 00-.062-.34zM17.33 3.251c1.773-.542 4.143-.847 6.67-.847 2.511 0 4.97.305 6.76.847 1.905.577 2.317 1.17 2.317 1.293 0 .122-.412.725-2.326 1.292-1.782.533-4.24.848-6.75.848-2.423 0-4.723-.28-6.47-.786-1.887-.542-2.414-1.145-2.458-1.337 0-.017 0-.026-.008-.026.008-.122.412-.716 2.264-1.284zM33.19 6.728v2.236a.704.704 0 00-.114.42c0 .113-.412.716-2.326 1.292-1.782.533-4.249.848-6.76.848-2.167 0-4.292-.227-5.977-.655-.026-.01-.044-.01-.07-.018a10.378 10.378 0 00-2.748-1.546l-.061-2.463c.606.306 1.238.55 1.896.725 1.905.55 4.371.847 6.96.847 2.713 0 5.294-.323 7.26-.917a9.542 9.542 0 001.94-.769zM17.356 25.516c-3.573 3.24-9.112 2.979-12.36-.576-3.248-3.555-2.993-9.067.58-12.298a8.791 8.791 0 015.89-2.271c.877 0 1.755.13 2.598.384a8.803 8.803 0 015.987 6.56c.114.576.175 1.17.175 1.755a8.666 8.666 0 01-2.87 6.446zm2.23.192a10.535 10.535 0 001.685-2.873c.746.06 1.536.104 2.343.113v.157l.044 2.961a27.776 27.776 0 01-4.073-.358zm2.334-7.668c.518.034 1.054.052 1.598.06 0 .018.009.044.009.062l.052 3.03a30.221 30.221 0 01-1.817-.078c.132-.673.202-1.363.202-2.044a8.182 8.182 0 00-.044-1.03zm2.16-1.678H24c-.842 0-1.658-.034-2.413-.087a10.33 10.33 0 00-1.572-3.25c1.317.167 2.643.254 3.977.254 2.712 0 5.293-.323 7.268-.917a11.33 11.33 0 001.931-.786v2.315c-3.774.104-7.672.89-9.111 2.471zm1.176 1.346c.088-.245.729-.813 2.528-1.32 1.712-.48 3.941-.742 6.285-.742h.114c2.51 0 4.969.288 6.76.83 1.852.559 2.29 1.118 2.317 1.267v.008c-.01.131-.448.734-2.397 1.31-1.8.533-4.17.821-6.68.821-2.37 0-4.635-.27-6.373-.75-1.676-.472-2.352-1.005-2.519-1.276a.736.736 0 00-.035-.149zm18.03 9.721c0 .122-.395.725-2.256 1.301-1.782.55-4.152.856-6.68.856-2.537 0-4.907-.297-6.663-.83-1.86-.567-2.238-1.152-2.238-1.283v-.018l-.044-2.524c2.09 1.057 5.574 1.537 8.77 1.537 2.712 0 5.275-.323 7.241-.917.65-.192 1.273-.454 1.87-.769v2.647zm-.079-4.839c0 .122-.404.716-2.3 1.293-1.8.541-4.187.838-6.733.838-4.819 0-8.084-1.074-8.804-1.921l-.018-.751-.035-2c.641.323 1.308.576 2.002.76 1.887.523 4.319.82 6.847.82 2.668 0 5.214-.314 7.171-.89a10.085 10.085 0 001.94-.77v2.245h.009c0 .114-.079.245-.079.376z" fill="#C7CAD1"/><path d="M44.98 17.49c-.158-1.136-1.334-2.045-3.537-2.708-1.782-.533-4.038-.857-6.496-.909v-9.32a.813.813 0 00-.184-.524c-.29-1.013-1.466-1.834-3.503-2.445C29.285.99 26.704.667 23.992.667c-2.704 0-5.258.323-7.19.917-1.588.489-3.493 1.397-3.493 2.96 0 .097.009.193.026.289l.097 3.983c-5.697-1.092-11.2 2.638-12.29 8.315a10.314 10.314 0 00-.184 1.948c0 5.765 4.714 10.455 10.508 10.455 2.414 0 4.749-.83 6.627-2.34 1.65.384 3.581.593 5.627.61.448 2.42 5.714 3.53 10.63 3.53 2.704 0 5.25-.333 7.198-.935 1.598-.49 3.494-1.407 3.494-2.97v-9.6a.9.9 0 00-.062-.34zM17.33 3.251c1.773-.542 4.143-.847 6.67-.847 2.511 0 4.97.305 6.76.847 1.905.577 2.317 1.17 2.317 1.293 0 .122-.412.725-2.326 1.292-1.782.533-4.24.848-6.75.848-2.423 0-4.723-.28-6.47-.786-1.887-.542-2.414-1.145-2.458-1.337 0-.017 0-.026-.008-.026.008-.122.412-.716 2.264-1.284zM33.19 6.728v2.236a.704.704 0 00-.114.42c0 .113-.412.716-2.326 1.292-1.782.533-4.249.848-6.76.848-2.167 0-4.292-.227-5.977-.655-.026-.01-.044-.01-.07-.018a10.378 10.378 0 00-2.748-1.546l-.061-2.463c.606.306 1.238.55 1.896.725 1.905.55 4.371.847 6.96.847 2.713 0 5.294-.323 7.26-.917a9.542 9.542 0 001.94-.769zM17.356 25.516c-3.573 3.24-9.112 2.979-12.36-.576-3.248-3.555-2.993-9.067.58-12.298a8.791 8.791 0 015.89-2.271c.877 0 1.755.13 2.598.384a8.803 8.803 0 015.987 6.56c.114.576.175 1.17.175 1.755a8.666 8.666 0 01-2.87 6.446zm2.23.192a10.535 10.535 0 001.685-2.873c.746.06 1.536.104 2.343.113v.157l.044 2.961a27.776 27.776 0 01-4.073-.358zm2.334-7.668c.518.034 1.054.052 1.598.06 0 .018.009.044.009.062l.052 3.03a30.221 30.221 0 01-1.817-.078c.132-.673.202-1.363.202-2.044a8.182 8.182 0 00-.044-1.03zm2.16-1.678H24c-.842 0-1.658-.034-2.413-.087a10.33 10.33 0 00-1.572-3.25c1.317.167 2.643.254 3.977.254 2.712 0 5.293-.323 7.268-.917a11.33 11.33 0 001.931-.786v2.315c-3.774.104-7.672.89-9.111 2.471zm1.176 1.346c.088-.245.729-.813 2.528-1.32 1.712-.48 3.941-.742 6.285-.742h.114c2.51 0 4.969.288 6.76.83 1.852.559 2.29 1.118 2.317 1.267v.008c-.01.131-.448.734-2.397 1.31-1.8.533-4.17.821-6.68.821-2.37 0-4.635-.27-6.373-.75-1.676-.472-2.352-1.005-2.519-1.276a.736.736 0 00-.035-.149zm18.03 9.721c0 .122-.395.725-2.256 1.301-1.782.55-4.152.856-6.68.856-2.537 0-4.907-.297-6.663-.83-1.86-.567-2.238-1.152-2.238-1.283v-.018l-.044-2.524c2.09 1.057 5.574 1.537 8.77 1.537 2.712 0 5.275-.323 7.241-.917.65-.192 1.273-.454 1.87-.769v2.647zm-.079-4.839c0 .122-.404.716-2.3 1.293-1.8.541-4.187.838-6.733.838-4.819 0-8.084-1.074-8.804-1.921l-.018-.751-.035-2c.641.323 1.308.576 2.002.76 1.887.523 4.319.82 6.847.82 2.668 0 5.214-.314 7.171-.89a10.085 10.085 0 001.94-.77v2.245h.009c0 .114-.079.245-.079.376z" stroke="#C7CAD1" stroke-width=".4" mask="url(#a)"/></svg>
