<svg width="32" height="32" fill="none" xmlns="http://www.w3.org/2000/svg"><path d="M29.348 6.304l.106.03-.106-.03-2.384 8.346a5.367 5.367 0 01-5.139 3.875 5.367 5.367 0 01-5.138-3.875l-2.385-8.347-.106.03.106-.03a1.97 1.97 0 01.324-1.741l-.087-.067.087.067a1.97 1.97 0 011.586-.79h.412v.189a1.008 1.008 0 002.017 0V1.565a1.009 1.009 0 00-2.017 0v.19h-.412c-1.267 0-2.433.58-3.196 1.592a3.971 3.971 0 00-.653 3.51l2.385 8.346a7.306 7.306 0 002.644 3.855c.266.2.543.38.828.54l2.597 6.13v.626a3.076 3.076 0 01-3.072 3.072 3.076 3.076 0 01-3.073-3.072v-6.161a5.267 5.267 0 00-5.26-5.261 5.267 5.267 0 00-5.262 5.26v2.039a4.61 4.61 0 00-3.593 4.49 4.607 4.607 0 004.602 4.602 4.607 4.607 0 004.602-4.602 4.61 4.61 0 00-3.594-4.49v-2.038a3.248 3.248 0 013.244-3.245 3.248 3.248 0 013.245 3.245v6.161a5.095 5.095 0 005.089 5.09 5.095 5.095 0 005.089-5.09v-.626l2.597-6.13a7.306 7.306 0 003.472-4.395l2.385-8.346a3.971 3.971 0 00-.654-3.51 3.972 3.972 0 00-3.196-1.592h-.412v-.19a1.008 1.008 0 00-2.017 0v2.396a1.008 1.008 0 002.017 0v-.19h.412c.63 0 1.207.288 1.586.79a1.97 1.97 0 01.324 1.743zM7.744 26.72a2.588 2.588 0 01-2.585 2.586 2.588 2.588 0 01-2.585-2.586 2.588 2.588 0 012.585-2.585 2.588 2.588 0 012.585 2.585zm15.128-6.253l-1.047 2.47-1.046-2.47a7.431 7.431 0 002.093 0z" fill="#C7CAD1" stroke="#C7CAD1" stroke-width=".22"/></svg>
