<svg width="46" height="46" fill="none" xmlns="http://www.w3.org/2000/svg"><path d="m30.677 24.296.185.363.392-.108a4.903 4.903 0 0 1 1.293-.173h3.62a4.924 4.924 0 0 1 4.917 4.918v5.787a2.754 2.754 0 0 1-2.75 2.75H7.85a2.754 2.754 0 0 1-2.75-2.75v-5.787a4.924 4.924 0 0 1 4.917-4.918h3.62c.447 0 .88.06 1.292.173l.393.108.185-.363a4.922 4.922 0 0 1 4.385-2.697h6.399a4.922 4.922 0 0 1 4.385 2.697zm-16.202 12.37h.5v-10.15c0-.105.005-.213.012-.325l.027-.408-.395-.107a3.743 3.743 0 0 0-.98-.131h-3.621a3.754 3.754 0 0 0-3.75 3.75v5.788c0 .873.71 1.583 1.583 1.583h6.624zm15.068 0h.5v-10.15a3.754 3.754 0 0 0-3.751-3.75h-6.4a3.754 3.754 0 0 0-3.75 3.75v10.15h13.4zm1.667-.5v.5h7.124c.873 0 1.583-.71 1.583-1.583v-5.787a3.754 3.754 0 0 0-3.75-3.751h-3.62c-.34 0-.669.046-.981.13l-.395.108.027.408c.007.112.012.22.012.326v9.65z" fill="#C7CAD1" stroke="#C7CAD1"/><path d="M11.828 13.646a4.82 4.82 0 0 0-4.815 4.814 4.82 4.82 0 0 0 4.815 4.814 4.82 4.82 0 0 0 4.814-4.814 4.82 4.82 0 0 0-4.814-4.814zm0 7.461A2.65 2.65 0 0 1 9.18 18.46a2.65 2.65 0 0 1 2.647-2.647 2.65 2.65 0 0 1 2.648 2.647 2.65 2.65 0 0 1-2.648 2.647zM23.092 7.667a6.439 6.439 0 0 0-6.431 6.431 6.439 6.439 0 0 0 6.431 6.432 6.439 6.439 0 0 0 6.432-6.432 6.439 6.439 0 0 0-6.432-6.431zm0 10.696a4.27 4.27 0 0 1-4.264-4.265 4.27 4.27 0 0 1 4.264-4.264 4.27 4.27 0 0 1 4.265 4.264 4.27 4.27 0 0 1-4.265 4.265zM34.357 13.646a4.82 4.82 0 0 0-4.814 4.814 4.82 4.82 0 0 0 4.814 4.814 4.82 4.82 0 0 0 4.814-4.814 4.82 4.82 0 0 0-4.814-4.814zm0 7.461a2.65 2.65 0 0 1-2.647-2.647 2.65 2.65 0 0 1 2.647-2.647 2.65 2.65 0 0 1 2.647 2.647 2.65 2.65 0 0 1-2.647 2.647z" fill="#C7CAD1"/></svg>
