<svg width="46" height="46" fill="none" xmlns="http://www.w3.org/2000/svg"><path fill-rule="evenodd" clip-rule="evenodd" d="M26.072 8.565c1.398.9 4.198 2.486 7.237 3.007 1.8.308 3.108 1.797 3.107 3.54v7.23c0 2.388-.699 4.716-2.078 6.92-1.079 1.724-2.573 3.371-4.443 4.897-3.142 2.565-6.255 3.902-6.386 3.958l-.51.217-.51-.217c-.13-.056-3.242-1.393-6.385-3.958-1.87-1.526-3.364-3.173-4.443-4.897-1.379-2.204-2.078-4.532-2.078-6.92v-7.23c0-1.743 1.307-3.232 3.107-3.54 3.04-.52 5.84-2.107 7.237-3.007A5.666 5.666 0 0 1 23 7.667c1.096 0 2.159.31 3.072.898zm2.242 23.733c3.712-3.046 5.595-6.396 5.595-9.957v-7.23c0-.58-.438-1.077-1.042-1.18-3.492-.598-6.633-2.373-8.195-3.378a3.083 3.083 0 0 0-1.672-.49c-.596 0-1.174.17-1.672.49-1.562 1.005-4.703 2.78-8.195 3.378-.604.103-1.042.6-1.042 1.18v7.23c0 7.567 8.69 12.272 10.909 13.35.965-.47 3.156-1.623 5.314-3.393zm1.372-13.26a1.25 1.25 0 0 0-1.872-1.657l-7.54 8.524-2.088-2.361a1.25 1.25 0 0 0-1.872 1.656l3.024 3.42a1.25 1.25 0 0 0 1.873 0l8.475-9.583z" fill="#C7CAD1"/></svg>