<svg width="32" height="37" viewBox="0 0 32 37" fill="none" xmlns="http://www.w3.org/2000/svg"><path fill-rule="evenodd" clip-rule="evenodd" d="M19.664 1.07121C21.3314 2.14371 24.6698 4.03571 28.2949 4.65657C30.4419 5.02428 32.0002 6.79957 32 8.87786V17.4999C32 20.3483 31.1663 23.1249 29.5217 25.7527C28.2351 27.8085 26.4524 29.7733 24.2234 31.5925C20.4755 34.6514 16.7642 36.2466 16.6079 36.3129L16 36.5714L15.3921 36.3129C15.2359 36.2465 11.5246 34.6514 7.77656 31.5925C5.54749 29.7733 3.76492 27.8085 2.47833 25.7527C0.833809 23.1249 0 20.3483 0 17.4999V8.87778C0 6.79957 1.55835 5.02428 3.70535 4.65657C7.33051 4.03571 10.6688 2.14364 12.3362 1.07114C13.4256 0.370429 14.6926 0 16.0002 0C17.3077 0 18.5747 0.370429 19.664 1.07121ZM22.3377 29.3731C26.7649 25.7411 29.0095 21.7464 29.0095 17.5V8.87771C29.0095 8.18521 28.4871 7.59307 27.7673 7.46978C23.6029 6.75657 19.8566 4.64021 17.9941 3.44214C17.4002 3.06007 16.7106 2.85807 16.0002 2.85807C15.2897 2.85807 14.6002 3.06007 14.0062 3.44221C12.1438 4.64029 8.39743 6.75671 4.23302 7.46993C3.51312 7.59321 2.99076 8.18536 2.99076 8.87786V17.5C2.99076 26.5234 13.3543 32.1342 16.0002 33.4191C17.1514 32.8606 19.7642 31.4844 22.3377 29.3731ZM23.7932 13.3994C24.2506 12.8822 24.2021 12.0923 23.6849 11.6349C23.1678 11.1776 22.3778 11.2261 21.9205 11.7432L12.7498 22.113L10.0789 19.0929C9.6216 18.5758 8.83163 18.5273 8.31449 18.9846C7.79735 19.442 7.74888 20.2319 8.20622 20.7491L11.8134 24.8279C12.0507 25.0962 12.3917 25.2499 12.7498 25.2499C13.108 25.2499 13.4489 25.0962 13.6862 24.8279L23.7932 13.3994Z" fill="#C7CAD1"/></svg>
