<svg width="46" height="46" fill="none" xmlns="http://www.w3.org/2000/svg"><path d="M23 38.583c8.593 0 15.583-6.99 15.583-15.583S31.593 7.417 23 7.417 7.417 14.407 7.417 23 14.407 38.583 23 38.583zm0-29.3c7.563 0 13.716 6.154 13.716 13.717 0 7.563-6.153 13.716-13.716 13.716S9.284 30.563 9.284 23 15.437 9.284 23 9.284z" fill="#C7CAD1" stroke="#C7CAD1" stroke-width=".5"/><path d="M19.22 21.872a3.081 3.081 0 1 1 3.082-3.081l-3.082 3.081zm0 0a3.081 3.081 0 0 0 3.081-3.081l-3.081 3.081zm1.214-3.081a1.214 1.214 0 1 1-2.427.001 1.214 1.214 0 0 1 2.427-.002zM23.526 27.38v.001a3.081 3.081 0 1 0 3.082-3.081 3.085 3.085 0 0 0-3.082 3.08zm4.296.001a1.214 1.214 0 1 1-2.428 0 1.214 1.214 0 0 1 2.428 0zM28.666 15.168c.15.298.13.653-.052.933l.052-.933zm0 0a.934.934 0 0 0-1.616-.087L17.386 29.9a.933.933 0 0 0 .272 1.292m11.008-16.023-.052.933-9.664 14.818a.934.934 0 0 1-1.292.272m0 0 .137-.21-.137.21z" fill="#C7CAD1" stroke="#C7CAD1" stroke-width=".5"/></svg>
