<?xml version="1.0" standalone="no"?>
<!DOCTYPE svg PUBLIC "-//W3C//DTD SVG 20010904//EN"
 "http://www.w3.org/TR/2001/REC-SVG-20010904/DTD/svg10.dtd">
<svg version="1.0" xmlns="http://www.w3.org/2000/svg"
 width="1476.000000pt" height="1476.000000pt" viewBox="0 0 1476.000000 1476.000000"
 preserveAspectRatio="xMidYMid meet">
<metadata>
Created by potrace 1.11, written by Peter Selinger 2001-2013
</metadata>
<g transform="translate(0.000000,1476.000000) scale(0.100000,-0.100000)"
fill="#000000" stroke="none">
<path d="M5957 10183 c-1 -1 -38 -4 -82 -7 -78 -6 -130 -12 -170 -20 -11 -2
-45 -7 -75 -11 -63 -8 -120 -29 -120 -44 0 -18 33 -29 64 -20 17 4 47 10 66
13 19 3 46 8 60 10 172 32 523 38 725 12 88 -11 146 -20 195 -31 14 -3 34 -7
45 -9 11 -2 38 -9 60 -15 22 -6 49 -12 60 -14 11 -2 27 -7 35 -10 92 -37 157
-37 135 -1 -6 9 -14 16 -18 16 -4 -1 -23 6 -44 14 -20 9 -44 17 -52 19 -9 2
-34 8 -56 13 -22 6 -52 13 -68 16 -15 3 -35 7 -45 10 -103 32 -357 58 -575 60
-76 1 -139 0 -140 -1z"/>
<path d="M6088 9982 c-21 -4 -24 -27 -6 -39 7 -4 40 -8 73 -9 170 -6 419 -45
640 -100 129 -32 353 -104 420 -134 101 -47 181 -78 187 -74 4 3 8 13 8 23 0
13 -19 27 -62 46 -35 15 -81 35 -103 45 -52 23 -266 96 -342 116 -85 23 -79
21 -193 48 -58 13 -123 26 -145 30 -22 3 -51 8 -65 11 -24 5 -81 13 -145 20
-16 2 -70 7 -118 10 -49 4 -98 8 -110 9 -12 1 -30 0 -39 -2z"/>
<path d="M5898 9974 c-2 -1 -35 -5 -73 -8 -39 -3 -79 -8 -90 -10 -11 -2 -42
-7 -68 -10 -183 -25 -572 -129 -607 -162 -12 -12 -12 -16 1 -29 14 -14 46 -8
149 32 8 4 19 5 23 4 4 0 16 3 26 8 10 6 29 12 42 15 13 3 42 10 64 16 22 6
49 13 60 15 90 20 117 26 170 35 151 26 170 28 265 36 87 6 125 23 103 45 -10
10 -59 20 -65 13z"/>
<path d="M5858 9745 c-2 -2 -37 -6 -78 -9 -96 -7 -137 -13 -235 -31 -44 -8
-95 -17 -114 -20 -19 -3 -37 -8 -41 -10 -3 -2 -17 -6 -31 -9 -58 -12 -77 -17
-144 -36 -222 -66 -445 -157 -445 -181 0 -27 28 -30 73 -8 127 62 434 161 597
193 14 3 50 9 80 15 30 6 69 13 85 16 17 4 46 8 65 10 19 2 69 7 110 12 145
15 534 7 603 -13 24 -7 57 5 57 21 0 16 -21 25 -75 31 -22 3 -51 8 -65 11 -28
5 -436 13 -442 8z"/>
<path d="M9412 9733 c-31 -15 -39 -29 -126 -213 -96 -205 -281 -400 -470 -496
-38 -19 -74 -38 -80 -42 -17 -13 -155 -51 -211 -58 -27 -4 -91 -7 -141 -8 -67
-1 -98 -6 -118 -19 -14 -10 -26 -21 -27 -25 0 -4 -3 -16 -5 -27 -17 -73 6
-174 45 -195 13 -6 76 -11 152 -12 71 -1 132 -4 134 -8 3 -4 5 -653 6 -1441 0
-789 4 -1456 9 -1484 17 -101 21 -116 45 -192 48 -152 135 -274 251 -354 50
-34 179 -92 229 -103 17 -3 41 -9 55 -12 132 -30 370 -34 500 -8 14 2 36 6 49
9 80 15 211 66 275 108 74 47 197 171 225 224 28 55 28 106 -1 133 -28 26 -58
25 -116 -4 -130 -65 -254 -90 -330 -66 -78 26 -119 74 -160 189 -15 42 -17
176 -19 1518 -1 810 2 1475 6 1477 4 3 134 6 289 7 l281 1 26 25 c14 14 26 37
27 52 6 82 5 99 -3 134 -17 67 -23 68 -333 68 -203 0 -278 3 -283 12 -5 7 -8
170 -9 362 0 193 -4 367 -8 388 -4 22 -16 43 -30 52 -33 22 -97 26 -134 8z"/>
<path d="M6556 9681 c-8 -13 3 -37 17 -39 28 -2 213 -51 297 -78 30 -10 60
-18 65 -20 25 -5 114 -38 203 -75 53 -22 102 -41 107 -43 44 -14 242 -119 314
-168 43 -29 70 -30 74 -3 2 17 -132 102 -268 168 -106 53 -349 153 -390 161
-5 2 -55 16 -110 34 -115 35 -259 72 -286 72 -10 0 -20 -4 -23 -9z"/>
<path d="M5898 9515 c-2 -2 -43 -6 -93 -10 -49 -4 -128 -13 -175 -22 -47 -8
-98 -17 -115 -20 -72 -11 -307 -74 -375 -100 -8 -3 -19 -7 -25 -9 -33 -9 -162
-57 -170 -64 -5 -4 -21 -11 -35 -15 -44 -13 -268 -125 -330 -166 -53 -34 -59
-41 -50 -59 9 -17 14 -18 38 -8 15 7 38 20 52 29 50 33 311 159 360 174 3 1
22 9 44 18 39 17 236 84 272 92 10 2 53 13 94 24 41 11 86 22 100 25 95 18
143 27 172 32 18 3 44 6 58 9 129 19 485 26 610 11 115 -14 207 -28 275 -43
39 -8 78 -16 88 -18 10 -2 27 -7 37 -10 10 -3 27 -7 37 -9 48 -10 271 -87 353
-123 179 -78 456 -231 516 -285 11 -10 23 -18 27 -18 6 0 58 -37 127 -91 30
-23 34 -23 51 -3 11 14 8 21 -25 50 -38 34 -254 180 -336 228 -48 28 -282 144
-340 170 -83 35 -253 95 -319 112 -9 2 -60 15 -114 28 -92 23 -141 34 -194 41
-13 2 -40 6 -60 9 -21 4 -60 9 -88 12 -53 6 -462 14 -467 9z"/>
<path d="M6047 9304 c-1 -1 -49 -5 -107 -8 -142 -9 -180 -13 -285 -33 -49 -9
-93 -16 -97 -15 -10 2 -20 -36 -13 -48 4 -6 15 -8 25 -5 10 3 29 8 42 10 13 3
34 7 48 10 14 2 48 7 75 11 28 3 59 8 70 10 34 7 185 16 289 18 81 1 101 5
110 18 6 10 7 20 3 24 -6 6 -154 13 -160 8z"/>
<path d="M6318 9292 c-20 -2 -28 -9 -28 -22 0 -23 29 -31 160 -46 30 -3 57 -7
61 -9 3 -2 21 -7 40 -10 90 -16 163 -35 299 -77 76 -24 68 -21 230 -89 69 -28
137 -60 152 -71 14 -10 31 -18 36 -18 12 0 128 -68 189 -111 23 -16 44 -29 48
-29 3 0 11 -5 18 -10 7 -6 37 -29 67 -51 105 -76 195 -155 279 -241 36 -38 71
-68 77 -68 18 0 26 31 12 49 -42 53 -200 201 -262 246 -15 11 -40 30 -54 43
-90 76 -335 220 -508 297 -91 41 -308 120 -354 130 -8 2 -43 11 -77 20 -35 9
-73 18 -85 21 -78 17 -170 33 -211 38 -27 3 -52 7 -55 9 -4 1 -19 1 -34 -1z"/>
<path d="M5335 9179 c-137 -45 -294 -104 -355 -132 -96 -43 -135 -60 -139 -57
-2 1 -7 -2 -10 -7 -3 -4 -35 -23 -71 -42 -77 -40 -253 -142 -260 -152 -3 -3
-16 -12 -28 -18 -13 -7 -33 -21 -45 -31 -12 -11 -30 -25 -40 -32 -16 -12 -16
-16 -3 -33 13 -18 18 -16 127 56 63 42 146 94 184 116 78 45 337 173 351 173
5 1 27 9 49 20 22 11 46 19 53 20 7 0 20 4 30 10 9 5 69 26 132 45 132 41 145
47 145 66 0 21 -53 21 -120 -2z"/>
<path d="M5956 9093 c-1 -1 -40 -4 -86 -7 -97 -7 -166 -16 -240 -31 -14 -3
-41 -8 -60 -11 -143 -25 -487 -144 -537 -186 -7 -6 -13 -7 -13 -3 0 4 -6 3
-12 -3 -7 -5 -49 -29 -93 -52 -44 -23 -87 -49 -96 -56 -8 -8 -18 -14 -22 -14
-16 0 -241 -165 -332 -245 -82 -71 -195 -191 -195 -206 0 -37 28 -23 100 50
41 42 104 101 140 131 36 30 67 57 70 60 3 3 23 18 45 35 22 16 42 32 45 35
10 12 101 70 110 70 4 0 10 4 12 8 2 5 35 27 75 50 270 157 564 264 818 297
17 2 30 4 30 5 0 3 36 7 120 15 139 13 412 8 500 -9 11 -2 42 -7 68 -10 27 -4
59 -10 70 -12 12 -3 45 -9 72 -14 28 -6 91 -22 140 -36 50 -14 95 -27 100 -28
6 -1 24 -7 40 -13 17 -6 57 -21 90 -33 58 -22 91 -35 158 -64 60 -26 74 -28
81 -10 9 22 -13 37 -109 74 -44 17 -89 35 -100 40 -31 13 -170 62 -170 60 0
-1 -18 3 -40 9 -22 6 -42 10 -45 10 -3 0 -18 4 -33 10 -15 6 -42 13 -60 16
-18 3 -40 8 -49 11 -9 3 -27 7 -40 9 -13 3 -34 7 -48 10 -57 11 -155 23 -252
31 -67 6 -248 11 -252 7z"/>
<path d="M3458 9085 c-2 -2 -25 -6 -53 -9 -72 -9 -75 -10 -125 -34 -86 -41
-149 -118 -181 -221 -18 -61 -26 -157 -15 -206 15 -71 30 -115 37 -115 5 0 8
-3 7 -7 -3 -8 40 -101 54 -118 22 -25 115 -175 132 -210 10 -22 22 -47 26 -55
10 -21 23 -97 25 -140 3 -89 -41 -237 -177 -595 -29 -76 -106 -289 -112 -310
-2 -5 -7 -21 -13 -35 -5 -14 -31 -86 -57 -160 -26 -74 -52 -144 -57 -155 -5
-11 -22 -60 -39 -110 -17 -49 -35 -99 -40 -110 -5 -11 -52 -141 -106 -290 -53
-148 -102 -282 -109 -297 -7 -15 -17 -42 -20 -60 -4 -18 -11 -37 -15 -43 -5
-5 -12 -25 -17 -44 -5 -19 -13 -36 -19 -38 -5 -2 -20 29 -32 69 -46 147 -144
455 -164 512 -11 32 -21 63 -22 70 -1 6 -15 49 -30 96 -15 47 -29 90 -30 95
-2 6 -6 17 -9 25 -3 8 -33 103 -67 210 -34 107 -65 206 -70 220 -13 36 -135
427 -140 445 -1 6 -7 21 -12 35 -11 29 -89 270 -92 285 -3 16 -107 338 -116
360 -4 11 -18 54 -30 95 -12 41 -30 100 -40 132 -18 55 -50 198 -55 248 -5 44
22 93 68 122 81 52 104 91 80 140 -22 46 -38 48 -338 32 -188 -9 -626 -9 -860
0 -104 4 -215 9 -245 10 -91 4 -139 -21 -140 -72 0 -32 45 -74 126 -116 108
-55 152 -103 194 -210 61 -155 149 -384 330 -861 57 -148 129 -337 160 -420
32 -82 79 -206 105 -275 26 -69 58 -154 72 -190 36 -94 37 -95 81 -210 57
-150 95 -251 136 -360 20 -52 41 -103 46 -112 6 -10 10 -23 10 -30 0 -7 6 -24
13 -38 7 -14 21 -47 31 -75 10 -27 24 -63 31 -80 7 -16 22 -56 34 -87 204
-555 251 -673 279 -695 24 -21 38 -23 137 -24 419 -2 544 -1 570 5 17 4 38 18
48 31 17 24 89 205 432 1080 36 94 73 184 81 202 8 17 14 33 14 36 0 3 5 18
12 34 6 15 12 30 12 33 1 3 13 34 28 70 15 36 61 153 103 260 41 107 79 204
84 215 21 45 181 455 181 462 0 5 6 19 13 33 7 14 24 54 37 90 13 36 30 76 37
90 7 14 13 31 13 38 0 7 5 20 10 30 18 30 106 274 133 367 71 247 88 471 46
618 -7 23 -13 45 -15 50 -1 4 -3 9 -4 12 -1 3 -3 8 -4 13 -7 31 -53 97 -94
133 -52 46 -123 86 -167 95 -5 1 -12 3 -15 4 -14 5 -119 18 -122 15z"/>
<path d="M11650 8899 c-19 -4 -55 -11 -80 -14 -25 -3 -54 -8 -65 -10 -35 -8
-99 -17 -140 -21 -22 -2 -58 -6 -80 -9 -22 -3 -58 -7 -81 -9 -23 -2 -68 -7
-100 -10 -121 -13 -145 -15 -280 -21 -123 -5 -191 -10 -231 -16 -25 -4 -64
-57 -65 -87 -1 -47 24 -76 97 -113 93 -47 129 -96 151 -209 3 -19 8 -465 9
-990 2 -525 6 -991 9 -1035 11 -134 15 -175 26 -234 5 -31 12 -69 15 -86 39
-227 148 -483 262 -617 59 -69 141 -145 198 -184 86 -59 219 -125 280 -140 17
-4 35 -9 40 -13 6 -3 15 -6 20 -7 6 -1 28 -6 50 -12 129 -35 292 -50 485 -46
176 3 187 4 270 18 376 67 671 285 856 631 35 65 54 80 54 41 0 -14 4 -35 10
-48 5 -13 21 -54 36 -93 36 -94 85 -169 153 -235 54 -53 113 -100 127 -100 3
0 18 -8 32 -18 41 -27 204 -79 277 -88 16 -2 53 -6 80 -10 84 -11 357 -12 393
0 35 10 60 38 67 74 4 21 -11 37 -94 102 -54 43 -81 115 -96 255 -3 28 -6 785
-6 1684 l-1 1634 -24 24 c-22 22 -31 24 -82 20 -31 -3 -68 -8 -82 -11 -14 -2
-41 -7 -60 -10 -19 -3 -46 -8 -60 -10 -23 -4 -51 -8 -160 -21 -25 -4 -61 -8
-80 -11 -33 -4 -57 -7 -185 -19 -97 -9 -201 -15 -321 -20 -67 -2 -134 -9 -150
-15 -16 -6 -30 -11 -32 -10 -10 4 -42 -52 -42 -75 0 -49 25 -80 90 -111 54
-26 96 -60 121 -100 48 -79 49 -91 46 -1124 -2 -531 -6 -978 -10 -995 -7 -31
-12 -61 -22 -130 -4 -22 -11 -58 -17 -80 -5 -22 -12 -49 -14 -60 -2 -11 -13
-47 -23 -80 -75 -232 -199 -392 -360 -466 -116 -54 -189 -71 -306 -73 -89 -2
-119 1 -213 20 -131 26 -284 134 -367 259 -54 82 -116 233 -131 320 -2 17 -7
37 -9 45 -2 8 -6 29 -9 45 -3 17 -8 45 -11 64 -15 88 -17 253 -19 1399 l-1
1224 -28 24 c-29 25 -49 27 -117 13z"/>
<path d="M5947 8864 c-1 -1 -42 -5 -92 -9 -94 -7 -150 -12 -150 -15 0 -1 -14
-3 -31 -5 -60 -8 -207 -46 -298 -76 -89 -30 -116 -41 -193 -76 -21 -10 -40
-18 -43 -19 -41 -10 -302 -166 -344 -206 -11 -10 -23 -18 -27 -18 -4 0 -14 -6
-21 -13 -7 -7 -22 -19 -34 -27 -56 -40 -210 -184 -294 -276 -112 -123 -246
-315 -236 -340 10 -25 22 -19 64 30 6 8 12 18 12 21 0 7 61 97 71 105 4 3 24
28 45 55 119 157 370 386 519 475 22 13 42 26 45 29 3 4 19 13 35 21 17 8 32
18 35 22 10 13 233 118 285 134 6 1 44 15 85 29 79 28 251 72 310 79 19 3 62
9 95 13 136 18 488 9 635 -17 84 -14 99 -17 187 -36 65 -14 85 -16 95 -6 21
21 -10 38 -107 60 -86 19 -114 24 -199 38 -21 3 -47 7 -57 9 -54 10 -384 26
-392 19z"/>
<path d="M7260 8745 c-10 -12 -10 -18 0 -30 7 -8 17 -15 22 -15 14 0 176 -111
253 -174 88 -72 216 -196 263 -255 20 -25 41 -50 47 -56 15 -14 98 -142 120
-185 19 -37 32 -50 53 -50 23 0 12 37 -38 120 -80 133 -170 244 -289 354 -24
23 -54 50 -65 61 -64 59 -329 245 -350 245 -2 0 -9 -7 -16 -15z"/>
<path d="M6841 8707 c-19 -19 -12 -37 17 -48 43 -16 237 -112 242 -119 3 -4
15 -10 28 -14 12 -4 22 -12 22 -17 0 -5 5 -9 11 -9 6 0 32 -15 57 -32 26 -18
51 -36 57 -40 141 -98 341 -291 440 -423 82 -109 115 -159 115 -173 0 -7 3
-12 8 -12 12 0 122 -226 135 -280 11 -43 23 -55 46 -44 19 9 20 10 2 60 -55
154 -153 330 -269 484 -62 81 -250 275 -321 331 -24 19 -48 39 -55 45 -35 33
-236 160 -326 206 -160 82 -197 97 -209 85z"/>
<path d="M6005 8652 c-1 -2 -38 -5 -81 -7 -44 -2 -99 -7 -124 -10 -25 -3 -61
-8 -80 -10 -19 -2 -99 -19 -178 -36 -143 -32 -172 -47 -153 -78 6 -10 19 -9
64 4 31 9 68 18 84 21 15 3 59 12 98 20 38 9 86 17 105 19 19 2 58 6 85 10
156 20 464 20 555 0 14 -3 39 -8 55 -10 58 -8 81 -13 150 -29 87 -21 226 -65
243 -79 6 -5 12 -7 12 -3 0 18 282 -141 364 -204 124 -97 241 -214 329 -330
31 -41 62 -80 67 -87 6 -7 15 -24 22 -38 6 -14 15 -25 20 -25 4 0 8 -5 8 -11
0 -6 9 -24 20 -39 21 -29 150 -284 150 -295 0 -4 6 -21 14 -38 26 -61 96 -259
102 -292 1 -5 7 -30 14 -55 14 -50 14 -50 24 -102 10 -47 31 -67 50 -47 11 12
11 26 -4 84 -10 39 -23 82 -29 98 -6 15 -8 27 -6 27 2 0 0 12 -6 28 -6 15 -12
34 -14 42 -3 17 -61 186 -72 210 -3 8 -7 17 -8 20 -1 3 -8 21 -15 40 -32 84
-150 304 -218 405 -41 61 -77 112 -81 115 -3 3 -24 27 -46 54 -105 132 -265
269 -434 373 -135 84 -379 178 -541 209 -14 2 -45 9 -70 14 -25 5 -63 12 -85
15 -82 11 -382 24 -390 17z"/>
<path d="M5203 8466 c-23 -13 -44 -21 -47 -18 -3 3 -6 0 -6 -6 0 -7 -5 -12
-10 -12 -16 0 -136 -77 -236 -152 -131 -98 -250 -217 -377 -378 -47 -59 -147
-216 -147 -230 0 -6 -4 -10 -10 -10 -5 0 -9 -3 -8 -7 2 -8 -43 -104 -53 -113
-3 -3 -13 -27 -23 -55 -11 -27 -22 -54 -26 -60 -9 -12 -65 -187 -74 -230 -7
-36 5 -58 27 -50 13 5 25 35 32 75 3 22 30 107 35 115 4 6 12 26 19 45 15 47
76 186 88 202 6 7 16 28 24 46 8 17 17 32 21 32 5 0 8 5 8 11 0 17 107 177
174 259 66 81 199 217 260 265 60 47 196 144 222 158 12 6 56 29 96 51 84 44
103 60 94 75 -11 17 -37 13 -83 -13z"/>
<path d="M5927 8443 c-2 -1 -34 -5 -72 -8 -38 -4 -73 -9 -76 -11 -4 -2 -27 -6
-50 -9 -177 -22 -487 -144 -640 -250 -86 -60 -172 -127 -201 -157 -15 -16 -32
-28 -38 -28 -5 0 -10 -3 -10 -7 0 -5 -23 -32 -50 -60 -108 -115 -205 -257
-271 -400 -22 -45 -39 -85 -39 -87 0 -3 -5 -17 -12 -33 -6 -15 -12 -32 -14
-38 -2 -5 -10 -35 -19 -65 -22 -73 -42 -165 -51 -226 -3 -27 -8 -51 -9 -54 -5
-8 -18 -226 -17 -280 1 -73 11 -223 17 -249 2 -14 7 -45 10 -70 3 -25 7 -57
10 -71 14 -73 24 -197 30 -374 3 -109 13 -138 41 -115 12 10 12 242 0 346 -3
26 -8 73 -11 103 -3 30 -8 67 -11 82 -32 161 -38 570 -10 668 3 8 7 31 10 50
23 145 88 337 157 461 90 160 84 152 197 284 90 105 288 273 365 307 15 7 27
16 27 20 0 5 4 8 10 8 5 0 54 21 107 46 126 60 125 59 213 85 41 12 82 24 90
27 45 15 202 43 285 50 265 22 470 -1 761 -84 28 -7 42 25 19 42 -22 16 -229
67 -320 79 -22 3 -60 8 -85 12 -44 6 -338 11 -343 6z"/>
<path d="M6781 8292 c-9 -16 1 -24 78 -66 414 -224 717 -665 877 -1273 7 -28
15 -62 18 -75 3 -12 10 -48 16 -78 6 -30 13 -66 16 -80 2 -14 7 -41 10 -60 3
-19 8 -44 9 -55 7 -35 24 -196 29 -263 4 -48 17 -68 40 -59 11 4 14 17 11 44
-2 21 -6 70 -10 108 -9 101 -13 136 -21 170 -3 17 -6 37 -6 45 0 8 -4 31 -9
50 -5 20 -11 51 -13 70 -17 122 -117 486 -145 525 -4 6 -16 33 -26 60 -55 152
-198 394 -322 546 -25 30 -162 168 -204 204 -55 49 -160 121 -229 158 -90 48
-107 52 -119 29z"/>
<path d="M5987 8234 c-1 -2 -34 -5 -72 -8 -39 -3 -80 -7 -91 -10 -12 -2 -39
-7 -60 -10 -149 -24 -434 -124 -434 -153 0 -26 29 -25 107 5 85 33 113 43 128
48 26 9 173 45 198 49 15 3 42 7 60 10 204 34 478 23 651 -27 51 -14 48 -14
66 -21 8 -3 38 -13 65 -23 62 -22 189 -85 193 -96 2 -4 9 -8 16 -8 13 0 99
-59 104 -72 2 -5 8 -8 14 -8 11 0 48 -30 141 -116 55 -52 79 -59 91 -29 4 12
-44 62 -140 143 -68 59 -226 157 -319 199 -96 43 -273 100 -297 95 -4 -1 -18
2 -30 7 -43 16 -378 37 -391 25z"/>
<path d="M6117 8044 c-3 -3 -50 -7 -104 -8 -121 -3 -152 -11 -146 -36 5 -17
15 -18 151 -13 259 9 461 -36 664 -150 238 -133 445 -383 558 -672 17 -44 35
-89 40 -100 10 -21 49 -155 55 -187 2 -11 7 -28 10 -38 3 -10 8 -29 10 -42 3
-13 11 -57 19 -98 8 -41 17 -93 20 -115 3 -22 8 -53 10 -70 36 -235 40 -692
10 -1042 -5 -69 -5 -73 14 -73 12 0 23 3 25 8 5 8 17 147 24 277 11 218 4 622
-13 740 -2 17 -7 57 -10 90 -3 33 -7 62 -9 66 -2 3 -7 32 -10 65 -4 32 -9 62
-11 65 -2 4 -6 24 -10 45 -5 37 -38 169 -65 259 -18 62 -86 229 -123 304 -90
179 -249 371 -398 480 -68 50 -134 93 -148 96 -3 0 -20 9 -39 19 -96 51 -306
109 -435 121 -38 3 -73 8 -76 10 -4 3 -10 2 -13 -1z"/>
<path d="M5138 7935 c-201 -155 -338 -321 -433 -521 -35 -74 -80 -200 -85
-236 -1 -4 -6 -22 -11 -40 -5 -18 -12 -53 -15 -78 -3 -25 -8 -54 -11 -65 -9
-36 -11 -358 -2 -430 21 -176 29 -237 35 -254 10 -30 18 -181 18 -326 0 -179
-8 -252 -40 -393 -15 -66 -13 -82 11 -82 15 0 50 69 40 78 -2 2 0 12 4 21 5 9
12 36 15 61 29 211 28 479 -4 670 -9 52 -15 94 -26 185 -3 22 -7 114 -8 205
-3 159 8 291 34 399 6 25 11 51 11 56 0 6 4 15 9 20 4 6 13 30 20 55 6 25 25
73 41 108 16 35 29 68 29 73 0 5 4 9 8 9 5 0 16 16 25 36 52 109 232 307 379
417 86 64 90 69 83 89 -10 26 -33 16 -127 -57z"/>
<path d="M5650 7964 c-354 -128 -593 -318 -736 -584 -28 -51 -80 -178 -77
-190 0 -3 -3 -15 -8 -28 -8 -21 -17 -60 -24 -107 -2 -11 -6 -37 -10 -59 -19
-113 -19 -361 0 -511 2 -16 6 -57 10 -90 3 -33 10 -86 16 -118 28 -162 41
-434 24 -547 -22 -156 -54 -277 -96 -364 -21 -44 -11 -73 20 -57 20 11 33 37
77 156 29 79 55 258 57 385 1 124 -8 282 -18 330 -3 14 -7 41 -10 60 -2 19 -6
51 -9 70 -3 19 -8 62 -12 95 -3 33 -9 71 -11 85 -9 48 -11 425 -3 470 4 25 10
61 13 80 31 200 136 409 278 549 70 70 195 165 262 201 18 9 49 26 70 38 20
12 39 22 42 22 3 0 29 11 59 25 30 14 61 25 68 25 8 0 18 4 24 9 5 5 27 14 49
21 47 15 65 27 65 45 0 25 -26 22 -120 -11z"/>
<path d="M5988 7815 c-2 -1 -28 -5 -58 -8 -89 -10 -120 -17 -225 -52 -175 -59
-314 -143 -436 -265 -59 -60 -149 -178 -149 -196 0 -4 -6 -15 -14 -23 -32 -37
-98 -237 -114 -346 -12 -87 -7 -346 8 -355 31 -19 36 0 35 163 0 89 3 178 7
197 4 19 10 46 12 59 8 38 36 129 48 159 6 15 11 30 10 35 -1 4 3 7 10 7 6 0
9 3 5 6 -8 9 72 154 86 154 4 0 7 5 7 11 0 20 142 158 215 208 77 53 210 122
219 113 3 -3 6 -1 6 5 0 6 15 14 33 18 17 4 37 9 42 11 184 59 383 66 598 19
40 -8 136 -45 177 -67 79 -44 140 -83 140 -90 0 -4 6 -8 13 -8 11 0 152 -139
188 -186 93 -120 239 -405 239 -466 0 -9 5 -20 10 -23 6 -3 10 -18 10 -33 1
-49 54 -87 62 -45 3 16 -3 36 -34 123 -28 76 -39 110 -39 115 1 4 -83 168
-120 235 -13 25 -77 114 -109 154 -82 101 -234 220 -350 273 -103 48 -110 50
-265 89 -22 5 -262 14 -267 9z"/>
<path d="M7224 7656 c-3 -7 20 -48 50 -91 92 -127 203 -373 241 -531 3 -11 11
-46 20 -79 18 -71 19 -75 38 -185 16 -87 24 -140 33 -220 3 -25 7 -63 11 -85
3 -22 7 -177 8 -345 2 -265 4 -305 18 -308 8 -2 19 3 23 10 21 32 20 402 -1
663 -7 94 -28 240 -45 320 -5 22 -12 56 -15 75 -3 19 -13 60 -21 90 -8 30 -16
62 -19 71 -2 9 -20 66 -40 125 -92 276 -271 568 -301 490z"/>
<path d="M6057 7594 c-1 -1 -33 -4 -72 -7 -123 -11 -273 -56 -402 -122 -67
-33 -93 -52 -93 -65 0 -32 22 -28 106 16 74 39 203 88 257 98 12 3 22 5 22 6
0 1 9 3 20 5 11 1 41 6 67 10 100 14 191 12 302 -9 47 -9 153 -51 196 -77 25
-16 55 -33 67 -38 32 -15 186 -170 219 -221 16 -25 31 -47 34 -50 40 -39 145
-319 165 -440 3 -19 8 -44 12 -55 3 -11 7 -31 9 -45 2 -14 5 -42 9 -62 23
-162 29 -275 29 -553 0 -226 -6 -361 -18 -455 -2 -14 -6 -50 -10 -80 -4 -30
-10 -68 -13 -85 -3 -16 -7 -39 -8 -50 -7 -52 -17 -114 -26 -153 -5 -23 -12
-59 -15 -80 -3 -20 -7 -43 -10 -51 -8 -24 -18 -84 -18 -116 -1 -23 4 -31 21
-33 22 -3 25 5 48 129 5 24 10 53 20 99 13 69 42 249 50 315 4 28 8 61 11 75
26 162 26 839 0 980 -3 14 -8 45 -11 70 -2 25 -7 59 -10 75 -3 17 -7 39 -9 50
-31 176 -112 389 -199 520 -45 68 -214 240 -246 250 -12 3 -21 11 -21 16 0 5
-4 9 -10 9 -5 0 -31 12 -57 28 -89 51 -225 88 -356 95 -31 2 -58 2 -60 1z"/>
<path d="M5977 7384 c-1 -1 -27 -5 -57 -9 -30 -4 -61 -12 -69 -18 -8 -7 -16
-11 -18 -9 -9 9 -74 -13 -136 -46 -148 -77 -254 -231 -283 -412 -14 -85 -9
-255 11 -350 11 -54 15 -77 21 -120 3 -24 7 -47 9 -50 2 -3 6 -32 10 -65 7
-61 9 -82 21 -170 7 -56 7 -310 0 -365 -2 -19 -7 -57 -10 -85 -13 -105 -25
-183 -32 -207 -3 -10 -7 -30 -10 -45 -3 -16 -7 -36 -10 -45 -3 -9 -7 -27 -9
-39 -17 -89 -141 -421 -164 -439 -3 -3 -14 -20 -24 -39 -16 -31 -16 -36 -3
-49 23 -23 39 -4 95 112 68 141 142 357 167 490 2 11 6 32 9 46 3 14 8 36 10
50 2 14 8 54 14 90 31 190 33 507 5 655 -2 10 -6 37 -9 60 -3 22 -14 90 -25
150 -40 234 -41 357 -5 481 56 194 201 319 423 364 81 16 182 19 242 6 14 -3
38 -8 54 -11 45 -9 146 -54 196 -87 60 -40 153 -138 197 -206 53 -84 110 -218
129 -302 4 -19 8 -37 9 -40 9 -31 15 -60 19 -85 2 -16 7 -43 10 -60 32 -168
39 -709 12 -875 -3 -14 -7 -54 -10 -90 -3 -36 -8 -76 -10 -90 -3 -14 -10 -54
-15 -90 -6 -36 -13 -83 -17 -105 -3 -22 -8 -43 -10 -46 -2 -3 -6 -21 -9 -40
-9 -53 -52 -224 -80 -324 -14 -49 -28 -97 -30 -105 -2 -8 -4 -15 -5 -15 -8 0
-7 -46 1 -51 25 -15 38 21 104 266 29 110 53 217 70 315 10 53 11 61 15 73 1
4 2 11 1 16 -1 5 3 32 8 60 6 28 13 78 17 111 3 33 8 74 10 90 25 197 24 721
-1 854 -1 9 -6 36 -9 61 -6 42 -9 61 -20 118 -9 41 -57 196 -71 227 -8 17 -19
41 -25 55 -30 68 -103 169 -169 235 -48 49 -173 137 -201 141 -3 0 -12 4 -20
7 -36 15 -108 36 -150 43 -41 7 -168 13 -173 8z"/>
<path d="M5354 7286 c-39 -43 -106 -151 -109 -176 -1 -3 -6 -21 -13 -41 -34
-100 -47 -302 -27 -424 5 -27 9 -57 10 -65 1 -8 5 -26 8 -40 7 -24 16 -69 21
-100 2 -8 8 -33 14 -55 6 -22 13 -51 16 -65 3 -14 9 -47 15 -75 22 -115 31
-330 18 -465 -8 -85 -27 -208 -42 -277 -3 -13 -7 -32 -10 -44 -2 -11 -7 -29
-10 -39 -3 -10 -8 -28 -10 -41 -5 -23 -22 -83 -32 -109 -3 -8 -7 -19 -9 -25
-6 -24 -59 -145 -90 -206 -29 -58 -31 -69 -19 -79 22 -19 37 -2 88 103 121
248 191 575 189 882 -1 72 -3 141 -6 155 -2 14 -7 56 -10 94 -4 38 -9 73 -12
78 -3 5 -8 25 -10 46 -3 20 -10 55 -16 77 -7 22 -13 49 -15 60 -5 38 -9 50
-16 63 -5 6 -6 12 -4 12 3 0 1 17 -4 38 -30 125 -31 321 -1 433 22 83 67 179
102 219 11 14 34 40 50 58 16 18 27 39 23 47 -10 28 -41 15 -89 -39z"/>
<path d="M6009 7178 c-120 -15 -239 -83 -301 -173 -27 -40 -67 -142 -74 -193
-15 -107 -1 -272 36 -427 11 -44 22 -98 25 -120 3 -23 8 -52 10 -65 9 -42 18
-191 18 -280 -1 -97 -9 -201 -27 -327 -13 -96 -94 -388 -126 -458 -5 -11 -18
-43 -29 -70 -22 -59 -62 -140 -119 -247 -42 -77 -46 -110 -13 -101 25 6 161
249 186 333 4 14 11 30 15 35 21 29 107 315 124 410 3 17 9 56 15 89 32 185
34 461 5 661 -5 38 -13 75 -50 235 -9 36 -17 120 -18 188 -7 260 77 395 279
450 175 47 312 -11 428 -183 39 -57 113 -215 100 -215 -3 0 -1 -6 4 -12 9 -12
26 -71 38 -136 2 -13 6 -31 9 -40 12 -40 22 -124 31 -257 7 -95 13 -112 40
-101 15 5 16 18 11 99 -4 50 -8 103 -11 117 -2 14 -7 48 -10 75 -5 40 -32 168
-48 230 -9 32 -31 91 -37 100 -4 6 -10 21 -13 35 -12 50 -107 187 -164 239
-73 65 -70 63 -118 83 -84 35 -117 39 -216 26z"/>
<path d="M6030 6983 c-30 -5 -65 -20 -102 -46 -25 -16 -36 -34 -66 -108 -17
-42 -11 -159 13 -270 13 -58 26 -125 30 -150 3 -24 8 -57 12 -74 3 -16 7 -43
9 -60 2 -16 7 -64 11 -105 17 -166 7 -465 -22 -635 -1 -11 -6 -38 -10 -60 -3
-22 -10 -56 -15 -75 -5 -19 -11 -48 -14 -65 -17 -96 -144 -440 -170 -457 -6
-4 -8 -8 -3 -8 4 0 -4 -18 -18 -40 -14 -22 -25 -42 -25 -45 0 -4 -13 -26 -30
-50 -35 -51 -37 -61 -10 -75 16 -8 21 -6 31 12 7 13 15 25 18 28 8 6 46 71 84
141 46 88 143 339 130 339 -3 0 -1 6 5 13 6 6 13 30 17 52 4 22 11 47 15 55 5
8 11 31 14 50 3 19 8 46 11 60 13 60 35 212 42 285 13 144 6 545 -11 596 -3 7
-7 34 -10 59 -3 25 -8 58 -11 74 -9 47 -35 159 -41 181 -3 11 -7 58 -9 104 -6
137 37 209 132 219 67 6 118 -26 181 -113 20 -28 44 -91 70 -180 30 -105 32
-115 47 -229 3 -21 7 -50 9 -65 23 -134 23 -597 1 -712 -2 -9 -6 -40 -10 -69
-4 -29 -9 -62 -11 -74 -2 -11 -6 -38 -9 -61 -4 -22 -11 -58 -17 -80 -6 -22
-11 -44 -12 -50 -19 -88 -29 -132 -34 -140 -4 -5 -8 -19 -9 -30 -2 -11 -13
-46 -24 -79 -12 -32 -22 -63 -23 -70 -4 -22 -69 -183 -113 -279 -36 -79 -42
-101 -33 -112 7 -8 16 -15 21 -15 7 0 64 113 100 195 53 126 121 325 154 455
12 49 55 273 60 315 4 28 8 61 11 75 18 97 24 470 11 630 -14 172 -23 232 -53
354 -8 34 -16 68 -18 76 -11 43 -61 160 -81 189 -35 49 -109 109 -141 115 -19
4 -41 9 -47 10 -7 2 -23 1 -37 -1z"/>
<path d="M6046 6742 c-6 -9 1 -60 10 -74 3 -4 7 -17 10 -28 2 -11 6 -28 8 -37
15 -59 37 -170 41 -206 3 -23 7 -49 9 -57 13 -45 21 -200 21 -395 0 -231 -7
-335 -32 -465 -3 -19 -7 -39 -7 -45 -5 -41 -22 -133 -25 -137 -2 -2 -5 -14 -7
-27 -2 -14 -11 -52 -20 -84 -16 -61 -10 -85 18 -74 19 7 58 153 82 302 3 17 7
39 9 50 8 37 25 186 32 290 11 151 0 479 -20 583 -1 9 -6 37 -9 62 -14 100
-52 266 -75 323 -10 26 -34 36 -45 19z"/>
<path d="M7173 6648 c4 -24 9 -54 12 -68 3 -14 8 -50 11 -80 3 -30 7 -66 9
-80 21 -129 21 -587 0 -790 -2 -19 -6 -66 -10 -105 -3 -38 -8 -83 -10 -100 -2
-16 -9 -64 -14 -105 -6 -41 -14 -95 -17 -120 -11 -67 -10 -123 1 -126 22 -7
43 24 49 71 3 28 8 61 11 75 3 14 8 43 10 65 3 22 8 58 11 80 7 46 9 66 18
188 4 48 9 98 12 110 2 12 6 117 9 232 2 116 5 212 6 215 1 3 0 10 -1 15 -1 6
-4 41 -5 80 -6 143 -30 358 -49 450 -3 11 -5 23 -5 28 -1 4 -13 7 -27 7 -26 0
-26 -2 -21 -42z"/>
<path d="M5031 6436 c-12 -15 -11 -30 13 -126 2 -8 7 -35 10 -60 3 -25 8 -54
10 -65 2 -11 7 -56 11 -100 13 -151 9 -262 -20 -475 -12 -89 -72 -278 -120
-376 -51 -103 -56 -127 -23 -122 15 2 33 24 60 73 33 61 75 158 82 190 2 6 12
42 23 80 20 66 31 116 39 175 2 14 7 54 12 90 10 66 8 385 -2 430 -10 47 -15
75 -21 120 -4 25 -11 63 -16 85 -6 22 -11 46 -11 52 -1 7 -9 20 -18 28 -15 14
-19 14 -29 1z"/>
<path d="M6586 6042 c-3 -10 -9 -90 -12 -177 -3 -88 -7 -176 -9 -195 -3 -19
-6 -53 -9 -75 -6 -62 -17 -146 -22 -169 -18 -91 -36 -185 -40 -206 -15 -77
-97 -355 -123 -415 -84 -193 -98 -261 -44 -227 17 11 138 317 159 402 2 8 11
42 20 75 9 33 17 67 19 75 2 8 8 33 13 55 10 37 14 55 26 118 7 33 16 87 22
127 2 19 7 46 10 60 2 14 7 52 10 85 3 33 7 71 10 85 2 14 7 103 11 197 4 132
3 176 -7 188 -16 20 -27 19 -34 -3z"/>
<path d="M5985 4978 c-30 -96 -78 -209 -122 -291 -24 -44 -43 -86 -43 -93 0
-17 15 -25 32 -19 20 8 113 195 158 317 39 104 41 132 13 136 -18 3 -24 -5
-38 -50z"/>
</g>
</svg>
