<svg width="2" height="10" viewBox="0 0 2 10" fill="none" xmlns="http://www.w3.org/2000/svg">
<path d="M0.999918 9.58333C1.50618 9.58333 1.91658 9.17293 1.91658 8.66667C1.91658 8.16041 1.50618 7.75 0.999918 7.75C0.493657 7.75 0.083252 8.16041 0.083252 8.66667C0.083252 9.17293 0.493657 9.58333 0.999918 9.58333Z" fill="#C41E1E"/>
<path d="M0.999918 0.416626C0.756803 0.416626 0.523646 0.513203 0.351738 0.685112C0.179829 0.85702 0.083252 1.09018 0.083252 1.33329V5.91663C0.083252 6.15974 0.179829 6.3929 0.351738 6.56481C0.523646 6.73672 0.756803 6.83329 0.999918 6.83329C1.24303 6.83329 1.47619 6.73672 1.6481 6.56481C1.82001 6.3929 1.91658 6.15974 1.91658 5.91663V1.33329C1.91658 1.09018 1.82001 0.85702 1.6481 0.685112C1.47619 0.513203 1.24303 0.416626 0.999918 0.416626Z" fill="#C41E1E"/>
</svg>
