<svg width="42" height="23" fill="none" xmlns="http://www.w3.org/2000/svg">
  <defs/>
  <path d="M0 4a4 4 0 014-4h34a4 4 0 014 4v15a4 4 0 01-4 4H4a4 4 0 01-4-4V4z" fill="#FCF7CF"/>
  <path d="M12.87 11.4a1.7 1.7 0 011.35 1.69c0 .59-.2 1.05-.62 1.4-.4.34-.98.51-1.71.51H8.62V7.98h3.16c.71 0 1.27.16 1.67.49.4.33.61.77.61 1.33a1.59 1.59 0 01-1.19 1.6zm-2.54-.58h1.12c.28 0 .5-.06.64-.18.15-.13.23-.31.23-.55 0-.24-.08-.42-.23-.55-.15-.13-.36-.19-.64-.19h-1.12v1.47zm1.26 2.8c.29 0 .5-.06.66-.19a.7.7 0 00.24-.57.72.72 0 00-.25-.58.98.98 0 00-.67-.21h-1.24v1.55h1.26zm5.33-4.27v1.42h2.3v1.32h-2.3v1.54h2.6V15h-4.3V7.98h4.3v1.37h-2.6zm8.75-1.37v1.37h-1.86V15h-1.7V9.35h-1.87V7.98h5.43zm5.23 5.78h-2.62L27.86 15h-1.79l2.54-7.02h1.98L33.13 15h-1.81l-.42-1.24zm-.44-1.32l-.87-2.57-.86 2.57h1.73z" fill="#81792D"/>
</svg>
