<svg width="20" height="16" fill="none" xmlns="http://www.w3.org/2000/svg"><path d="M19.692 1.894a8.417 8.417 0 01-2.326.638A4.015 4.015 0 0019.142.3a8.07 8.07 0 01-2.56.978A4.036 4.036 0 009.6 4.038c0 .32.027.628.093.92A11.427 11.427 0 011.372.737a4.064 4.064 0 00-.554 2.04c0 1.399.72 2.638 1.794 3.356a3.987 3.987 0 01-1.824-.498v.045c0 1.962 1.4 3.591 3.234 3.967a4.03 4.03 0 01-1.058.132 3.57 3.57 0 01-.765-.068c.523 1.598 2.008 2.774 3.773 2.812a8.112 8.112 0 01-5.006 1.722c-.33 0-.648-.015-.966-.056A11.366 11.366 0 006.193 16c7.43 0 11.49-6.154 11.49-11.488 0-.178-.006-.35-.014-.522a8.052 8.052 0 002.023-2.096z" fill="#5BC13E"/></svg>
