<svg width="70" height="70" fill="none" xmlns="http://www.w3.org/2000/svg"><path d="M49.583 58.333h14.584V52.5a8.75 8.75 0 00-15.623-5.417m1.04 11.25H20.416m29.166 0V52.5c0-1.914-.368-3.742-1.039-5.417m-28.127 11.25H5.833V52.5a8.75 8.75 0 0115.623-5.417m-1.04 11.25V52.5c0-1.914.37-3.742 1.04-5.417m0 0c2.15-5.372 7.404-9.166 13.544-9.166 6.14 0 11.394 3.794 13.544 9.166M43.75 20.417a8.75 8.75 0 11-17.5 0 8.75 8.75 0 0117.5 0zm17.5 8.75a5.833 5.833 0 11-11.667 0 5.833 5.833 0 0111.667 0zm-40.833 0a5.833 5.833 0 11-11.667 0 5.833 5.833 0 0111.667 0z" stroke="#5BC13E" stroke-width="3" stroke-linecap="round" stroke-linejoin="round"/></svg>
