<svg width="70" height="70" fill="none" xmlns="http://www.w3.org/2000/svg"><g clip-path="url(#clip0)" fill="#4EB5A2"><path d="M44.69 42.587a9.019 9.019 0 00-2.115-2.109c-.47-.293-.998-.585-1.527-.878l-.352-.176-.822-.41.822-1.054c.94-1.23 1.527-2.636 1.644-4.1v-.468c0-4.041-3.288-7.321-7.282-7.321-4.052 0-7.34 3.28-7.34 7.32v.41a7.724 7.724 0 001.585 4.1l.823 1.054-.823.469-.352.176c-.529.234-1.057.585-1.527.937-.822.585-1.527 1.288-2.055 2.108-1.175 1.581-1.82 3.455-1.82 5.447 0 .585.47 1.054 1.056 1.054h20.906c.588 0 1.057-.469 1.057-1.054-.058-1.992-.763-3.924-1.879-5.505zM35 28.297c2.877 0 5.226 2.342 5.226 5.212 0 2.87-2.349 5.212-5.226 5.212-2.878 0-5.227-2.342-5.227-5.212 0-2.87 2.35-5.212 5.227-5.212zm-9.455 18.74l.47-1.405c.41-1.23 1.174-2.225 2.055-3.045a7.566 7.566 0 013.641-1.757c.411-.059.822-.117 1.175-.117h4.17c.41 0 .821.058 1.232.117 1.351.234 2.584.82 3.641 1.698.94.82 1.645 1.816 2.056 3.045l.528 1.406H25.545v.059z"/><path d="M27.718 33.919c-.47-.293-.88-.586-1.41-.82l-1.174-.586.822-1.054c1.057-1.347 1.645-2.87 1.645-4.51-.06-3.982-3.348-7.262-7.34-7.262-3.994 0-7.341 3.28-7.341 7.321 0 1.64.587 3.221 1.644 4.51l.822 1.054-1.175.586C10.864 34.622 8.75 37.96 8.75 41.59c0 .586.47 1.054 1.057 1.054h18.264a7.566 7.566 0 013.64-1.757c-.234-2.81-1.703-5.388-3.993-6.969zm-12.684-6.91c0-2.87 2.349-5.213 5.226-5.213 2.878 0 5.227 2.343 5.227 5.212 0 2.87-2.35 5.213-5.227 5.213-2.877-.059-5.226-2.343-5.226-5.213zm-4.287 13.528l.47-1.406c1.056-2.928 3.817-4.86 6.87-4.86h4.17c3.112 0 5.872 1.932 6.87 4.86l.118.293.411 1.113h-18.91zM55.847 33.1l-1.175-.587.822-1.054c1.057-1.347 1.645-2.87 1.645-4.51-.059-3.982-3.348-7.262-7.34-7.262-4.053 0-7.341 3.28-7.341 7.321 0 1.64.587 3.221 1.644 4.51l.822 1.054-1.175.586c-.47.234-.998.527-1.409.82-2.29 1.58-3.758 4.158-3.993 6.969 1.35.234 2.584.82 3.64 1.698H60.31c.587 0 1.057-.468 1.057-1.054-.118-3.631-2.232-6.97-5.52-8.492zm-11.275-6.092c0-2.87 2.349-5.212 5.226-5.212 2.878 0 5.227 2.343 5.227 5.212 0 2.87-2.35 5.213-5.227 5.213-2.877-.059-5.226-2.343-5.226-5.213zm-4.287 13.529l.41-1.113.118-.293c1.057-2.928 3.817-4.86 6.871-4.86h4.17c3.112 0 5.872 1.932 6.87 4.86l.47 1.406h-18.91z"/></g><defs><clipPath id="clip0"><path fill="#fff" transform="translate(8.75 19.688)" d="M0 0h52.5v29.4H0z"/></clipPath></defs></svg>