<svg width="20" height="12" fill="none" xmlns="http://www.w3.org/2000/svg"><path d="M10 0l-.2.062-7.985 2.741L0 3.416l1.057.347v5.726a1.303 1.303 0 00-.639 1.126c0 .347.135.68.375.925.24.246.564.384.903.384.339 0 .664-.138.903-.383.24-.246.374-.579.374-.926 0-.484-.257-.899-.638-1.126V4.215l1.277.428v3.354c0 .537.32.982.7 1.29.379.305.85.521 1.416.715 1.133.386 2.627.613 4.272.613 1.646 0 3.139-.226 4.272-.614.566-.193 1.037-.409 1.417-.715.38-.307.699-.752.699-1.289V4.643l1.797-.614L20 3.416l-1.816-.614-7.985-2.74L10 0zm0 1.371l5.989 2.045L10 5.461 4.011 3.416 10 1.371zM4.89 5.093L9.8 6.77l.2.062.2-.063 4.91-1.676v2.904c0 .007.003.083-.2.246-.202.163-.564.37-1.038.532-.946.322-2.342.531-3.872.531-1.53 0-2.926-.208-3.873-.532-.473-.162-.835-.368-1.037-.531-.203-.164-.2-.24-.2-.246V5.093z" fill="#4EB5A2"/></svg>
