<svg width="16" height="14" fill="none" xmlns="http://www.w3.org/2000/svg"><path d="M14 2.333h-2.917V1.75A1.752 1.752 0 009.333 0h-3.5a1.752 1.752 0 00-1.75 1.75v.583H1.167A1.168 1.168 0 000 3.5v9.333A1.168 1.168 0 001.167 14H14a1.168 1.168 0 001.167-1.167V3.5A1.168 1.168 0 0014 2.333zM5.25 1.75a.584.584 0 01.583-.583h3.5a.584.584 0 01.583.583v.583H5.25V1.75zM14 3.5v3.034a13.417 13.417 0 01-12.834 0V3.5H14zm0 9.333H1.167V7.85A14.597 14.597 0 0014 7.848v4.985zM6.124 6.417a.583.583 0 01.584-.584h1.75a.583.583 0 010 1.167h-1.75a.583.583 0 01-.584-.583z" fill="#4EB5A2"/></svg>
