<svg width="6" height="12" fill="none" xmlns="http://www.w3.org/2000/svg"><path d="M3.917 3.333a1.333 1.333 0 100-2.666 1.333 1.333 0 000 2.666zM5.28 8.743a.333.333 0 00-.467.097 5.533 5.533 0 01-1.17 1.257c-.11.083-.52.4-.693.333-.12-.037-.05-.273-.027-.373l.177-.524c.073-.213 1.35-4 1.49-4.433.207-.633.117-1.257-.827-1.107-.256.027-2.86.364-2.906.367a.334.334 0 00.043.667s1-.13 1.11-.14a.293.293 0 01.283.146.823.823 0 01-.023.57C2.183 5.937.813 9.797.77 10.02a.927.927 0 00.393 1c.303.202.664.299 1.027.277a2.842 2.842 0 001.03-.207c.83-.333 1.697-1.22 2.153-1.917a.333.333 0 00-.093-.43z" fill="#338C7C"/></svg>
