<svg width="70" height="70" fill="none" xmlns="http://www.w3.org/2000/svg"><path d="M27.31 39.773a1.5 1.5 0 00-2.12 2.121l2.12-2.121zm4.773 6.894l-1.06 1.06a1.5 1.5 0 002.121 0l-1.06-1.06zM44.811 36.06a1.5 1.5 0 00-2.122-2.122l2.122 2.122zm9.106-15.644v35h3v-35h-3zM49.583 59.75H20.417v3h29.166v-3zm-33.5-4.333v-35h-3v35h3zm4.334-39.334h5.833v-3h-5.833v3zm23.333 0h5.833v-3H43.75v3zM20.417 59.75a4.333 4.333 0 01-4.334-4.333h-3a7.333 7.333 0 007.334 7.333v-3zm33.5-4.333a4.333 4.333 0 01-4.334 4.333v3a7.333 7.333 0 007.334-7.333h-3zm3-35a7.333 7.333 0 00-7.334-7.334v3a4.333 4.333 0 014.334 4.334h3zm-40.834 0a4.333 4.333 0 014.334-4.334v-3a7.333 7.333 0 00-7.334 7.334h3zm9.106 21.477l5.834 5.833 2.121-2.121-5.833-5.833-2.122 2.121zm7.955 5.833l11.667-11.666-2.122-2.122-11.666 11.667 2.121 2.121zm-1.06-37.477h5.833v-3h-5.834v3zm5.833 8.667h-5.834v3h5.834v-3zm-5.834 0a4.333 4.333 0 01-4.333-4.334h-3a7.333 7.333 0 007.333 7.334v-3zm10.167-4.334a4.333 4.333 0 01-4.333 4.334v3a7.333 7.333 0 007.333-7.334h-3zm-4.333-4.333a4.333 4.333 0 014.333 4.333h3a7.333 7.333 0 00-7.333-7.333v3zm-5.834-3a7.333 7.333 0 00-7.333 7.333h3a4.333 4.333 0 014.333-4.333v-3z" fill="#5BC13E"/></svg>
