<svg width="16" height="16" fill="none" xmlns="http://www.w3.org/2000/svg"><path d="M11.333 0c-1.195 0-2.278.224-3.125.646-.846.422-1.541 1.11-1.541 2.02v2.667c0 .086.028.17.042.25a8.12 8.12 0 00-2.042-.25c-1.196 0-2.279.224-3.126.646C.695 6.401 0 7.09 0 8v5.333c0 .912.695 1.599 1.542 2.021.846.422 1.93.646 3.125.646s2.278-.224 3.125-.646c.845-.422 1.541-1.11 1.541-2.02v-.271a7.81 7.81 0 002 .27c1.196 0 2.279-.224 3.126-.646.845-.422 1.541-1.109 1.541-2.02v-8c0-.912-.695-1.599-1.542-2.021C13.613.224 12.529 0 11.333 0zm0 1.333c1.016 0 1.92.219 2.521.521.602.302.813.62.813.813 0 .193-.211.51-.813.812-.6.302-1.505.521-2.52.521-1.016 0-1.92-.219-2.521-.52C8.21 3.176 8 2.86 8 2.666c0-.194.21-.511.813-.813.6-.302 1.505-.52 2.52-.52zM8 4.563c.07.038.135.088.209.124.846.422 1.929.646 3.124.646 1.196 0 2.279-.224 3.126-.646.072-.036.138-.086.208-.124v.77c0 .194-.211.511-.813.813-.601.302-1.505.52-2.52.52-1.016 0-1.92-.218-2.521-.52C8.21 5.844 8 5.526 8 5.333v-.77zM4.667 6.667c1.015 0 1.919.218 2.52.52C7.79 7.49 8 7.807 8 8c0 .193-.21.51-.813.813-.601.302-1.505.52-2.52.52-1.016 0-1.92-.218-2.521-.52-.602-.302-.813-.62-.813-.813 0-.193.211-.51.813-.813.6-.302 1.505-.52 2.52-.52zm10 .562V8c0 .193-.211.51-.813.813-.601.302-1.505.52-2.52.52a6.333 6.333 0 01-2-.312V8c0-.086-.03-.17-.043-.25.62.161 1.308.25 2.042.25 1.196 0 2.279-.224 3.126-.646.072-.036.138-.086.208-.125zM1.333 9.896c.07.039.136.089.209.125.846.422 1.93.646 3.125.646s2.278-.224 3.125-.646c.073-.036.138-.086.208-.125v.77c0 .194-.21.511-.813.813-.601.302-1.505.521-2.52.521-1.016 0-1.92-.219-2.521-.52-.602-.303-.813-.62-.813-.813v-.771zm13.334 0v.77c0 .194-.211.511-.813.813-.601.302-1.505.521-2.52.521-.759 0-1.443-.107-2-.292v-1.291c.611.161 1.278.25 2 .25 1.195 0 2.278-.224 3.125-.646.072-.036.138-.086.208-.125zM1.333 12.563c.07.038.136.088.209.124.846.422 1.93.646 3.125.646s2.278-.224 3.125-.646c.073-.036.138-.086.208-.124v.77c0 .194-.21.511-.813.813-.601.302-1.505.52-2.52.52-1.016 0-1.92-.218-2.521-.52-.602-.302-.813-.62-.813-.813v-.77z" fill="#4EB5A2"/></svg>
