<svg width="2" height="10" viewBox="0 0 2 10" fill="none" xmlns="http://www.w3.org/2000/svg">
<path d="M1 10C1.55228 10 2 9.55228 2 9C2 8.44772 1.55228 8 1 8C0.447715 8 0 8.44772 0 9C0 9.55228 0.447715 10 1 10Z" fill="#81792D"/>
<path d="M1 0C0.734784 0 0.48043 0.105357 0.292893 0.292893C0.105357 0.48043 0 0.734784 0 1V6C0 6.26522 0.105357 6.51957 0.292893 6.70711C0.48043 6.89464 0.734784 7 1 7C1.26522 7 1.51957 6.89464 1.70711 6.70711C1.89464 6.51957 2 6.26522 2 6V1C2 0.734784 1.89464 0.48043 1.70711 0.292893C1.51957 0.105357 1.26522 0 1 0Z" fill="#81792D"/>
</svg>
