<svg width="717" height="281" fill="none" xmlns="http://www.w3.org/2000/svg"><path d="M626.652 227.589c6.398-4.265 10.469-10.468 13.376-17.447 2.327-5.816 3.684-12.019 4.653-18.223.969-6.397 1.163-12.988 1.163-19.385v-72.309c0-3.49-.194-6.785-.969-10.275-.969-3.877-3.102-6.397-6.785-7.948-.969-.388-1.939-.97-2.714-1.55-1.551-1.164-2.52-2.521-2.326-4.46.193-1.938 1.55-2.907 3.295-3.683 1.163-.388 2.326-.775 3.683-.775 8.143-.194 16.284-.582 24.427-1.551 7.172-.776 14.151-1.551 21.324-2.908 1.551-.194 3.102-.582 4.846-.776 2.714-.193 4.265 1.164 4.459 3.878V215.182c0 5.041 0 9.887.388 14.927.194 2.521.775 5.041 1.551 7.561.969 2.714 3.295 4.265 5.428 5.816.969.775 2.132 1.357 2.132 2.714.194 1.744-.969 3.295-2.714 3.877-.969.387-2.132.581-3.295.581-5.622 0-11.438.194-17.06-.581-8.53-.97-16.478-3.296-23.069-9.112-4.846-4.264-7.754-9.693-9.693-15.702-.388-1.357-.969-2.908-1.163-4.265 0-.388 0-.775-.582-.775-.387 0-.387.387-.581.775-2.908 6.01-6.591 11.632-11.244 16.478-6.203 6.591-13.57 11.244-22.1 14.152-10.274 3.489-20.743 4.071-31.599 3.295-5.04-.388-9.886-.969-14.927-2.326-14.733-3.683-26.364-11.825-33.537-25.589-3.489-6.785-5.816-13.958-7.173-21.325-1.938-9.499-2.326-19.386-2.326-29.078V99.837c0-3.296-.194-6.591-.969-9.693-.776-4.071-3.102-6.785-6.979-8.336-.97-.388-1.745-.775-2.52-1.357-1.551-.97-2.327-2.52-2.133-4.265.194-1.938 1.551-3.295 3.296-3.877a10.972 10.972 0 013.489-.581c8.142-.194 16.284-.582 24.232-1.551 6.979-.776 14.152-1.551 21.131-2.908 1.551-.194 3.102-.582 4.846-.776 2.521-.194 4.265 1.163 4.459 3.878v111.08c0 7.56.776 15.121 2.52 22.488 1.745 6.978 4.459 13.57 9.499 18.998 4.459 4.652 9.887 7.366 16.284 8.723 4.265.776 8.336.776 12.601.388 3.683-.388 7.173-1.551 10.468-3.296 1.357-.387 2.133-.581 2.908-1.163zM27.05 82.39c-1.939-3.49-4.653-6.01-8.336-7.56-1.55-.776-2.908-1.552-4.265-2.521-1.55-1.163-2.326-2.714-1.745-4.071.388-1.551 1.551-2.326 3.684-2.52h4.652c14.928.969 30.048.969 44.975.775 5.235-.194 10.469-.581 15.703-.775 1.357 0 2.714-.194 4.07 0 1.552.194 2.909.581 3.684 2.132.582 1.551 0 3.49-1.357 4.653l-2.326 1.745c-3.683 1.744-4.265 4.458-3.49 8.335 1.164 6.785 3.49 13.377 5.622 20.162 2.133 6.591 34.313 107.591 36.446 114.182.387 1.357.969 2.908 1.357 4.459 1.163-1.164 1.163-2.521 1.744-3.684 4.071-11.05 29.661-82.002 33.344-91.888 1.551-4.071 2.908-8.142 3.102-12.601.193-4.847-1.164-9.111-3.684-13.182-2.326-3.684-5.04-7.173-6.979-11.05-2.714-5.234-4.071-10.856-2.714-16.672 1.745-7.56 6.979-13.376 15.703-14.152 6.203-.581 12.019.776 16.866 5.04 3.101 2.715 4.846 6.398 5.815 10.469 1.745 7.367.97 14.733-.387 22.1-1.551 7.948-4.459 15.508-7.367 23.069-3.877 9.693-44.587 113.213-48.658 123.681-.97 2.326-1.745 4.653-2.714 6.785-1.163 2.133-2.714 3.296-5.041 3.102-6.397 0-9.111.194-13.764 0H97.033c-4.459 0-5.622-.969-7.173-5.234-3.877-10.275-7.754-20.549-11.438-30.824-4.264-10.08-50.209-131.63-51.372-133.956zM464.975 212.468c0 3.683 0 7.173.775 10.856.388 1.939.97 3.877 1.745 5.622 2.132 4.265 5.622 6.01 10.274 6.01 3.296 0 6.204-1.163 8.918-2.327 1.551-.581 3.102-1.357 4.653-2.132 1.55-.582 2.907-.775 4.264.582 1.164 1.357 1.164 2.714.776 4.458-.776 2.52-2.326 4.265-4.071 6.204-5.428 6.009-12.213 9.886-20.161 11.631-6.979 1.551-14.152 1.745-21.325 1.163-5.04-.581-10.08-1.551-14.733-3.683-7.948-3.489-13.376-9.305-16.478-17.447-2.326-6.204-3.489-12.601-3.489-18.998V81.033c0-1.164-.388-1.745-1.551-1.551h-9.693c-1.745 0-3.683-.194-4.459-2.133-1.163-2.908-1.163-6.01-.194-9.111.582-1.55 2.133-1.939 3.684-2.132 1.357-.194 2.714 0 4.071 0 9.693.193 18.222-3.296 25.977-8.918 8.335-6.01 14.345-13.958 18.416-23.457.582-1.55 1.163-3.102 1.939-4.652 1.744-3.684 6.397-3.878 8.917-2.327.969.582 1.551 1.357 1.745 2.52.194 1.164.194 2.133.194 3.296v32.18c0 1.164.387 1.551 1.551 1.551h24.813c2.133.194 3.684 1.163 4.071 3.296.388 2.52.582 5.04-.193 7.56-.582 1.357-1.551 2.327-3.102 2.52-.776 0-1.745.194-2.52.194H466.72c-1.357 0-1.551.388-1.551 1.551-.194 22.488-.194 110.305-.194 131.048z" fill="#000"/><path d="M626.652 227.589c-.581.775-1.357 1.163-2.326 1.357.582-.776 1.357-1.163 2.326-1.357z" fill="#000"/><path d="M337.029 13.376h-.388c-35.67-11.826-66.687-3.49-67.075-3.49-.581.194-1.357-.194-1.551-.775-.194-.582.194-1.357.776-1.551.387 0 32.18-8.53 68.432 3.49.581.193.969.969.775 1.55 0 .388-.388.776-.969.776zM246.885 25.976c-.388 0-.969-.193-1.163-.775-.194-.582 0-1.357.581-1.55.194 0 18.029-7.367 42.455-8.918.582 0 1.163.387 1.357 1.163 0 .581-.388 1.163-1.163 1.357-24.038 1.55-41.679 8.723-41.873 8.723h-.194zM358.935 31.792c-.194 0-.388 0-.582-.193-30.823-14.734-61.841-14.927-62.228-14.927-.582 0-1.163-.582-1.163-1.164 0-.581.581-1.163 1.163-1.163.387 0 31.986.194 63.197 15.121.582.194.776.97.582 1.551 0 .582-.582.775-.969.775zM233.121 41.485c-.388 0-.776-.194-1.163-.581-.388-.582 0-1.357.581-1.551.388-.194 36.833-18.804 79.288-12.213.582.194 1.163.775.969 1.357-.193.581-.775 1.163-1.357.97-41.485-6.398-77.349 11.825-77.737 12.018h-.581zM369.597 50.79c-.194 0-.388 0-.776-.193-20.355-13.958-49.433-19.774-49.627-19.774-.582-.194-1.163-.775-.97-1.357.194-.582.776-1.163 1.357-.97.388 0 29.855 5.817 50.597 20.162.582.388.776 1.163.388 1.745a1.48 1.48 0 01-.969.387zM379.871 69.595c-.194 0-.581 0-.775-.194-18.223-14.152-37.996-23.263-58.351-27.528-16.284-3.295-33.344-3.49-50.21-.194-28.884 5.428-48.27 18.417-48.464 18.417-.582.387-1.357.194-1.745-.388-.387-.582-.194-1.357.388-1.745.194-.194 19.967-13.376 49.434-18.804 17.253-3.102 34.506-3.102 51.178.194 20.743 4.265 40.71 13.57 59.321 27.915.581.388.581 1.164.194 1.745a1.067 1.067 0 01-.97.582z" fill="#5BC13E"/><path d="M208.889 98.092c-.194 0-.582 0-.776-.194-.581-.388-.581-1.163-.194-1.745.194-.194 13.764-16.478 37.415-27.722 13.958-6.59 28.691-10.274 43.812-10.856 18.804-.775 38.19 3.49 57.769 12.213.582.194.97.97.582 1.551-.194.582-.969.97-1.551.582-19.192-8.724-38.19-12.795-56.606-12.02-14.734.582-29.079 4.072-42.843 10.469-23.263 11.05-36.639 26.946-36.639 27.14a1.066 1.066 0 01-.969.582zM388.983 111.468c-.388 0-.97-.194-1.164-.582-10.662-21.712-34.7-34.894-34.894-34.894-.582-.388-.775-.97-.582-1.55.388-.582.97-.776 1.551-.582.97.581 25.008 13.57 36.058 36.057.388.582 0 1.357-.582 1.551h-.387zM214.123 78.318c-.388 0-.776-.194-.969-.388-.388-.581-.388-1.357.193-1.745.194-.193 19.58-15.702 50.403-24.038.582-.194 1.357.194 1.551.776.194.581-.194 1.356-.775 1.55-30.242 8.142-49.24 23.457-49.434 23.651-.388 0-.775.194-.969.194z" fill="#5BC13E"/><path d="M385.881 89.174c-.388 0-.776-.194-.969-.388-.194-.387-27.141-32.956-78.125-38.577-.582 0-1.163-.582-1.163-1.357 0-.582.775-1.163 1.357-1.163 27.14 2.907 47.301 13.57 59.514 21.712 13.182 9.11 19.967 17.253 20.161 17.64.388.582.388 1.358-.194 1.745-.193.194-.387.388-.581.388zM270.535 52.729c-.581 0-.969-.388-1.163-.97-.194-.581.194-1.356.776-1.55.581-.194 12.601-3.102 30.435-2.908.582 0 1.164.581 1.164 1.163 0 .581-.582 1.163-1.164 1.163-17.447-.194-29.66 2.714-29.66 2.908-.194.194-.194.194-.388.194zM204.624 121.549c-.194 0-.388 0-.582-.194-.581-.388-.775-.97-.388-1.551 0-.194 9.693-17.447 29.467-31.599 11.631-8.336 24.232-14.152 37.802-17.253 16.866-3.684 35.088-3.102 54.086 1.938.582.194.97.776.776 1.551-.194.582-.775.97-1.551.776-18.61-4.847-36.445-5.428-52.923-1.745-13.182 2.908-25.589 8.53-37.027 16.672-19.192 13.957-28.691 30.823-28.885 31.017 0 .194-.387.388-.775.388zM388.983 135.118c-.582 0-.97-.387-1.164-.775-14.151-41.098-54.861-56.025-55.249-56.025-.582-.194-.969-.97-.775-1.55.193-.582.969-.97 1.55-.776.388.194 10.663 3.877 22.876 12.794 11.243 8.336 26.17 22.682 33.925 44.782.194.581-.194 1.357-.776 1.55h-.387z" fill="#5BC13E"/><path d="M204.624 151.984h-.194c-.582-.194-1.163-.775-.969-1.357 0-.387 2.132-11.05 9.499-24.232 6.785-12.213 19.773-29.079 42.455-39.74.581-.195 1.357 0 1.55.58.194.582 0 1.358-.581 1.552-42.455 19.967-50.403 61.84-50.597 62.228-.194.582-.582.969-1.163.969zM388.983 164.197c-.582 0-.97-.388-1.164-.969-7.948-34.313-23.65-58.158-46.719-71.146-35.864-19.968-77.35-6.204-77.931-6.01-.582.194-1.357-.194-1.551-.775-.194-.582.194-1.357.775-1.551.388-.194 10.856-3.683 25.977-4.653 13.958-.969 34.701.194 53.893 10.856 23.651 13.183 39.935 37.609 47.883 72.697.194.582-.194 1.357-.97 1.357 0 .194 0 .194-.193.194z" fill="#5BC13E"/><path d="M216.449 214.794c-.775 0-1.163-.582-1.163-1.163 0-.194.194-12.795-1.551-23.845-.969-5.621-3.295-20.742.194-37.802 4.265-20.937 15.509-37.608 33.731-49.627.582-.388 8.336-6.01 21.518-9.887 12.407-3.683 31.987-6.397 55.056.969.582.194.969.97.775 1.55-.193.582-.969.97-1.55.776-43.037-13.957-74.054 8.336-74.442 8.53-34.506 22.875-37.027 58.739-32.762 85.104 1.745 11.243 1.551 24.232 1.551 24.232-.194.581-.775 1.163-1.357 1.163zM381.81 193.858c-.582 0-1.163-.582-1.163-1.164-1.551-22.487-7.561-54.086-27.334-76.961-11.826-13.57-23.069-17.641-23.263-17.835-.582-.194-.969-.97-.776-1.55.194-.582.97-.97 1.551-.776.388.194 11.826 4.264 24.039 18.222 20.355 23.263 26.558 55.444 28.109 78.513 0 .969-.582 1.551-1.163 1.551z" fill="#5BC13E"/><path d="M224.01 231.078h-.388c-.582-.194-.969-.969-.776-1.551 0-.194 5.235-14.927 1.357-39.353-4.071-25.007-4.264-56.606 30.048-79.869.582-.388 1.357-.194 1.745.387.388.582.194 1.357-.388 1.745-33.149 22.488-32.955 53.311-29.078 77.543 2.132 13.183 1.551 23.457.775 29.854-.775 6.979-2.326 10.663-2.326 10.856-.194 0-.582.388-.969.388zM346.528 122.905c-.388 0-.582-.193-.776-.387-15.314-15.703-34.313-22.682-56.218-20.937-16.478 1.357-28.691 7.367-28.691 7.367-.582.387-1.357 0-1.551-.582-.194-.581 0-1.357.581-1.551.582-.194 12.601-6.203 29.467-7.56 15.702-1.357 38.577 1.357 58.351 21.518.388.388.388 1.163 0 1.745-.582.194-.969.387-1.163.387zM371.342 216.539c-.194 0-.194 0 0 0-.776 0-1.164-.582-1.164-1.357 1.939-32.568-3.489-54.474-8.142-67.075-5.234-13.57-10.856-19.58-11.05-19.773-.387-.388-.387-1.164 0-1.745.388-.388 1.164-.388 1.745 0 .194.194 6.01 6.397 11.438 20.355 4.846 12.795 10.468 35.088 8.53 68.238-.194.969-.776 1.357-1.357 1.357z" fill="#5BC13E"/><path d="M231.376 240.965c-.194 0-.388 0-.581-.194-.582-.388-.776-1.163-.388-1.745.194-.193 8.723-14.151 4.459-42.648-2.327-14.927-4.265-32.181.581-47.495 5.816-18.223 19.968-30.63 43.424-38.19.582-.194 1.357.193 1.551.775.194.582-.194 1.357-.775 1.551-22.488 7.366-36.252 19.192-41.874 36.639-4.846 14.927-2.714 31.793-.581 46.526 4.653 29.466-4.265 43.618-4.653 44.199-.387.388-.775.582-1.163.582zM361.067 236.506s-.194 0 0 0c-.775 0-1.357-.581-1.163-1.357 2.714-29.078 1.163-53.698-4.265-72.89-4.459-15.896-11.631-28.303-21.324-37.027-21.131-18.998-47.495-13.764-47.883-13.764-.582.194-1.357-.194-1.357-.969-.194-.582.194-1.357.969-1.357.194 0 27.916-5.428 49.822 14.345 22.293 19.968 31.211 57.576 26.364 111.856 0 .776-.581 1.163-1.163 1.163z" fill="#5BC13E"/><path d="M238.937 250.464c-.194 0-.388 0-.776-.194-.581-.387-.581-1.163-.388-1.744.194-.194 15.703-23.263 6.398-61.066-.194-.581.194-1.357.969-1.55.582-.194 1.357.193 1.551.969 9.693 39.159-6.01 62.034-6.785 63.004a1.067 1.067 0 01-.969.581zM243.977 180.094c-.582 0-1.163-.388-1.163-.97 0-.387-1.939-10.468 1.163-22.487 2.908-11.05 10.662-25.977 31.793-33.925 5.234-1.939 23.456-7.561 41.873 1.744 14.539 7.367 24.814 21.712 30.823 42.649.194.582-.194 1.357-.775 1.551-.582.194-1.357-.194-1.551-.775-5.816-20.356-15.896-34.313-29.66-41.292-17.447-8.918-35.088-3.49-39.935-1.745-16.09 6.01-26.171 16.866-30.242 32.181-3.101 11.437-1.163 21.324-1.163 21.518.194.581-.388 1.357-.969 1.357 0 .194-.194.194-.194.194zM347.885 252.209h-.194c-.582-.194-1.163-.776-.969-1.357 4.264-24.62 4.458-44.006 3.877-55.637-.582-12.795-2.327-19.774-2.327-19.968-.193-.581.194-1.357.97-1.551.581-.193 1.357.194 1.551.97 0 .194 6.978 28.884-1.357 76.574-.388.581-.97.969-1.551.969z" fill="#5BC13E"/><path d="M294.768 250.464h-.388c-.582-.194-.969-.775-.775-1.551 11.825-42.455.193-75.992 0-76.38-.194-.581.193-1.357.775-1.551.582-.194 1.357.194 1.551.776.194.387 12.019 34.506 0 77.737-.194.581-.582.969-1.163.969zM284.106 276.441c-.194 0-.388 0-.776-.194-.582-.387-.581-1.163-.388-1.744 0 0 4.847-6.979 8.53-19.58.194-.582.776-.969 1.551-.775.582.193.969.775.775 1.55-3.877 12.989-8.723 19.968-8.917 20.162 0 .387-.388.581-.775.581z" fill="#5BC13E"/><path d="M294.768 276.441c-.194 0-.388 0-.582-.194-.581-.388-.775-.97-.581-1.551 18.222-36.252 16.671-70.564 14.151-88.012-1.357-9.499-5.234-25.589-14.345-24.426-2.327.194-3.877 1.163-5.041 2.908-1.938 2.714-2.132 7.561-.775 13.376 2.52 10.081 3.296 17.448 3.489 22.1 1.745 23.069-2.907 41.098-6.978 52.342-4.459 12.213-9.5 18.804-9.693 18.998-.388.581-1.164.581-1.745.194-.582-.388-.582-1.163-.194-1.745.194-.194 19.386-26.558 16.284-69.789-.388-4.459-1.163-11.825-3.489-21.712-1.551-6.591-1.163-11.825 1.163-15.315 1.551-2.326 3.877-3.489 6.785-3.877 5.816-.775 13.57 3.296 17.059 26.365 2.52 17.641 4.265 52.535-14.345 89.368-.388.776-.776.97-1.163.97z" fill="#5BC13E"/><path d="M262.781 269.462c-.194 0-.388 0-.581-.194-.582-.388-.776-1.163-.388-1.745.194-.387 23.651-35.669 14.151-77.543-4.071-15.121-3.101-26.364 2.908-33.149 6.979-7.949 18.029-6.979 18.805-6.785.581 0 6.009.581 11.825 6.591 7.56 8.142 11.825 21.906 12.601 41.291 0 .582-.582 1.164-1.163 1.164-.582 0-1.164-.582-1.164-1.164-.581-12.6-2.908-29.854-11.825-39.547-5.234-5.621-10.274-6.009-10.274-6.009-.194 0-10.663-1.163-16.866 6.009-5.428 6.204-6.204 16.672-2.326 31.018 5.04 22.487.969 42.842-3.49 56.025-4.846 14.151-10.662 23.069-11.05 23.456-.387.388-.775.582-1.163.582zM306.787 276.441c-.194 0-.388 0-.582-.194-.581-.194-.775-.969-.581-1.551 15.702-34.119 13.957-68.432 13.957-68.819 0-.582.388-1.163 1.164-1.357.581 0 1.163.387 1.357 1.163 0 .388 1.744 35.282-14.152 69.983-.194.581-.582.775-1.163.775zM247.854 258.024c-.194 0-.388 0-.581-.194-.582-.387-.776-1.163-.388-1.551 10.856-18.804 11.437-42.454 11.437-42.648.388-13.57-1.55-20.937-3.295-27.528-.194-.969-.388-1.745-.582-2.714-7.172-29.66 7.755-40.516 8.336-40.904.582-.388 1.357-.194 1.745.388.388.581.194 1.357-.194 1.744-.194.194-14.345 10.469-7.56 38.384.193.776.387 1.745.581 2.52 1.745 6.785 3.683 14.346 3.296 28.11 0 .969-.388 24.62-11.632 43.812-.387.387-.775.581-1.163.581z" fill="#5BC13E"/><path d="M335.284 261.708h-.194c-.581-.194-.969-.776-.969-1.357 3.683-16.478 5.622-31.599 6.009-38.772 1.745-37.802-3.101-61.841-15.12-75.411-9.887-11.243-22.294-15.508-37.027-12.988-11.05 1.938-19.192 7.173-19.192 7.366-.582.388-1.357.194-1.745-.387-.388-.582-.194-1.357.388-1.745.387-.194 8.723-5.622 20.161-7.56 10.662-1.939 26.171-.97 39.353 13.763 12.601 14.152 17.447 38.578 15.703 77.156-.388 7.366-2.327 22.681-6.01 39.159-.194.388-.775.776-1.357.776z" fill="#5BC13E"/><path d="M320.939 270.238h-.388c-.582-.194-.97-.97-.776-1.551 12.601-38.384 10.856-71.34 9.306-83.941-1.939-16.865-7.561-29.078-16.866-36.057-9.693-7.173-20.161-6.398-24.232-5.622-8.142 1.551-14.152 5.04-18.029 10.468-6.01 8.724-4.847 20.743-3.683 27.14 3.877 20.937 3.683 29.467 2.907 37.996-2.714 29.273-12.988 44.782-13.376 45.557-.387.582-1.163.775-1.744.388-.582-.388-.776-1.163-.388-1.745.194-.194 10.468-15.702 12.988-44.393.776-8.336.97-16.672-2.908-37.221-1.357-6.785-2.52-19.386 4.071-29.079 4.071-6.009 10.663-9.887 19.58-11.437 4.265-.776 15.509-1.745 25.977 6.009 4.653 3.49 8.336 8.142 11.244 13.764 3.295 6.591 5.428 14.539 6.591 23.845 1.357 12.6 3.296 46.138-9.499 84.909.194.582-.194.97-.775.97z" fill="#5BC13E"/></svg>