<svg width="13" height="16" fill="none" xmlns="http://www.w3.org/2000/svg"><path d="M6.762 1a5.762 5.762 0 015.762 5.762c0 2.435-1.711 5.088-5.089 7.988a1.034 1.034 0 01-1.349 0l-.223-.195C2.635 11.73 1 9.142 1 6.762A5.762 5.762 0 016.762 1zm0 .886a4.875 4.875 0 00-4.876 4.876c0 2.07 1.506 4.454 4.559 7.125l.22.19a.148.148 0 00.193 0c3.2-2.748 4.78-5.197 4.78-7.315a4.876 4.876 0 00-4.876-4.876z" fill="#4EB5A2" stroke="#4EB5A2" stroke-width=".5"/><circle cx="6.688" cy="6.688" r="2.188" stroke="#4EB5A2" stroke-width="1.5"/></svg>
