<svg width="70" height="70" fill="none" xmlns="http://www.w3.org/2000/svg"><g clip-path="url(#clip0)" fill="#4EB5A2"><path d="M55.781 43.75h-7.656v-1.094c0-4.484-3.063-8.258-7.164-9.406 2.953-1.969 4.977-5.36 4.977-9.188 0-6.015-4.922-10.937-10.938-10.937-6.016 0-10.938 4.922-10.938 10.938 0 3.828 2.024 7.218 4.977 9.187-4.102 1.148-7.164 4.922-7.164 9.406v1.094h-7.656c-.602 0-1.094.492-1.094 1.094v4.375c0 .601.492 1.093 1.094 1.093h1.094v5.47c0 .6.492 1.093 1.093 1.093.602 0 1.094-.492 1.094-1.094v-5.468h35v5.468c0 .602.492 1.094 1.094 1.094.601 0 1.093-.492 1.093-1.094v-5.468h1.094c.602 0 1.094-.493 1.094-1.094v-4.375c0-.602-.492-1.094-1.094-1.094zM26.25 24.062c0-4.812 3.938-8.75 8.75-8.75 4.813 0 8.75 3.938 8.75 8.75 0 4.813-3.938 8.75-8.75 8.75-4.813 0-8.75-3.937-8.75-8.75zm-2.188 18.594c0-4.21 3.446-7.656 7.657-7.656h6.562c4.211 0 7.657 3.445 7.657 7.656v1.094H24.061v-1.094zm30.625 5.469H15.313v-2.188h39.374v2.188z"/><path d="M37.023 45.828H26.961a.974.974 0 01-.875-.547.92.92 0 01.164-1.039l9.46-10.883c.165-.164.384-.273.602-.328 5.415-.765 8.313 2.352 8.422 2.461.328.328.328.875.055 1.258l-7 8.695c-.164.274-.438.383-.766.383zm-7.93-1.914h7.493l6.07-7.656c-.93-.656-2.843-1.695-5.742-1.367l-7.82 9.023z"/></g><defs><clipPath id="clip0"><path fill="#fff" transform="translate(13.125 13.125)" d="M0 0h43.75v43.75H0z"/></clipPath></defs></svg>