<svg width="18" height="14" viewBox="0 0 18 14" fill="none" xmlns="http://www.w3.org/2000/svg">
<path d="M5.94 13.705C7.20685 13.713 8.46268 13.4693 9.63465 12.9882C10.8066 12.5071 11.8714 11.798 12.7672 10.9022C13.663 10.0064 14.3721 8.94163 14.8532 7.76967C15.3343 6.5977 15.578 5.34187 15.57 4.07502V3.63252C16.2267 3.15139 16.7951 2.56015 17.25 1.88502C16.6316 2.15547 15.9773 2.33483 15.3075 2.41752C16.0177 1.99435 16.5506 1.32827 16.8075 0.542519C16.1456 0.939599 15.4199 1.21875 14.6625 1.36752C14.1524 0.824044 13.4775 0.463811 12.7421 0.342558C12.0067 0.221306 11.2518 0.345794 10.5943 0.696759C9.93678 1.04773 9.41324 1.6056 9.1047 2.28408C8.79617 2.96255 8.71983 3.72379 8.8875 4.45002C7.54202 4.38398 6.22553 4.03528 5.02377 3.42665C3.822 2.81801 2.7619 1.96308 1.9125 0.917519C1.48419 1.6609 1.35437 2.53926 1.54932 3.37476C1.74427 4.21026 2.24942 4.94046 2.9625 5.41752C2.43646 5.39723 1.92259 5.25335 1.4625 4.99752V5.03502C1.45783 5.81189 1.71954 6.56691 2.20403 7.17422C2.68851 7.78153 3.3665 8.20446 4.125 8.37252C3.63573 8.50411 3.12322 8.52461 2.625 8.43252C2.84459 9.09506 3.26376 9.67344 3.82503 10.0884C4.38631 10.5033 5.06219 10.7344 5.76 10.75C4.56691 11.7104 3.08407 12.2391 1.5525 12.25C1.28396 12.2422 1.01606 12.2197 0.75 12.1825C2.30022 13.1702 4.1019 13.6909 5.94 13.6825" fill="white"/>
</svg>
