<svg width="72" height="28" fill="none" xmlns="http://www.w3.org/2000/svg">
  <defs/>
  <path d="M63.24 22.97a3.73 3.73 0 001.38-1.8c.25-.6.39-1.23.48-1.88.1-.66.12-1.33.12-2V9.85c0-.35-.02-.7-.1-1.05-.1-.4-.34-.67-.71-.82-.1-.04-.2-.1-.28-.16-.17-.11-.27-.26-.23-.46.02-.2.16-.3.33-.38.12-.05.24-.07.38-.07a32.18 32.18 0 005.2-.52c.26-.03.44.13.45.4v14.95c0 .5 0 1.02.05 1.53.03.27.08.53.17.78.1.28.34.42.56.59.1.07.21.14.22.29.01.18-.1.33-.28.39-.1.03-.22.05-.33.05-.6 0-1.18.02-1.77-.05-.87-.1-1.7-.34-2.37-.94-.5-.43-.8-.99-1-1.6-.05-.15-.1-.3-.11-.45 0-.03-.01-.08-.06-.08-.04 0-.04.04-.05.07-.3.63-.68 1.2-1.16 1.7a5.47 5.47 0 01-2.27 1.46 8.2 8.2 0 01-3.25.33 8.85 8.85 0 01-1.53-.24 5.15 5.15 0 01-3.46-2.63c-.37-.7-.59-1.43-.74-2.2-.2-.99-.24-1.99-.24-2.99V9.84c0-.34-.03-.67-.1-1-.1-.43-.32-.71-.72-.87-.1-.04-.18-.09-.26-.15-.15-.1-.24-.25-.22-.44.02-.2.15-.33.34-.41.12-.05.24-.07.37-.07a31.89 31.89 0 005.17-.52c.26-.02.44.13.46.4V7l.01 11.22c0 .78.08 1.56.27 2.32.18.72.46 1.4.98 1.96.46.48 1.03.77 1.68.89.43.08.87.08 1.3.04.38-.05.74-.16 1.08-.34.08-.04.17-.07.24-.12zM1.5 8.02c-.2-.35-.49-.6-.86-.78C.5 7.17.34 7.1.2 7c-.16-.12-.23-.28-.19-.43.05-.16.17-.24.38-.25h.47c1.55.1 3.1.11 4.64.08.54-.01 1.07-.05 1.61-.08h.42c.16 0 .3.05.37.21.06.16 0 .36-.14.48a1.4 1.4 0 01-.25.17c-.37.19-.43.46-.36.85.12.7.36 1.38.58 2.06l3.76 11.76.15.47c.1-.12.13-.26.17-.38l3.43-9.47c.16-.42.3-.85.32-1.3.02-.5-.12-.95-.38-1.37-.23-.38-.5-.73-.72-1.13a2.42 2.42 0 01-.28-1.72c.18-.77.73-1.38 1.62-1.46.63-.06 1.23.08 1.73.51a2 2 0 01.6 1.09c.19.76.11 1.51-.03 2.27-.17.82-.47 1.6-.77 2.37l-5 12.74c-.1.23-.18.47-.3.7-.1.2-.28.33-.52.32H8.66c-.47 0-.59-.1-.75-.54l-1.18-3.16c-.38-1-5.1-13.53-5.23-13.76zM46.6 21.42c0 .37.01.74.08 1.11.04.2.1.4.18.58.22.43.58.61 1.05.6.33 0 .63-.12.93-.24l.48-.21c.15-.07.3-.08.43.05s.13.28.08.45c-.07.26-.25.44-.42.63a3.83 3.83 0 01-2.08 1.2c-.72.17-1.45.19-2.2.11a4.79 4.79 0 01-1.5-.37 3.14 3.14 0 01-1.7-1.8 5.37 5.37 0 01-.36-1.95V7.85c0-.13-.04-.17-.17-.17h-1c-.18 0-.38-.01-.47-.22a1.3 1.3 0 010-.93c.05-.17.21-.2.37-.22h.41c1 .01 1.89-.34 2.68-.92a5.63 5.63 0 001.9-2.41c.06-.16.12-.33.2-.49.17-.38.65-.4.9-.25.1.06.16.15.18.26.03.11.03.23.03.34v3.31c0 .12.03.16.15.15h2.58c.23.02.37.12.4.34.06.25.07.52-.02.77-.05.15-.16.24-.32.26l-.25.01h-2.37c-.14 0-.17.04-.17.17v13.57z" fill="#000"/>
  <path d="M63.24 22.97a.39.39 0 01-.24.13.56.56 0 01.24-.13zM33.43.9h-.04C29.72-.31 26.5.54 26.49.55a.13.13 0 01-.16-.09.13.13 0 01.09-.15c.03-.01 3.3-.88 7.05.35.06.02.1.1.07.16a.12.12 0 01-.11.08zM24.14 2.2a.12.12 0 01-.11-.07.13.13 0 01.07-.16c.01-.01 1.85-.76 4.38-.93.07 0 .12.05.13.12 0 .07-.05.13-.12.13-2.48.17-4.28.9-4.3.9a.1.1 0 01-.05.02zM35.68 2.8h-.05a16.75 16.75 0 00-6.4-1.53.12.12 0 01-.13-.13c0-.06.06-.12.12-.12.04 0 3.3.02 6.52 1.56.06.02.09.1.06.16a.12.12 0 01-.12.07zM22.74 3.81a.12.12 0 01-.06-.23c.03-.02 3.8-1.94 8.15-1.27.07.01.12.08.1.14a.12.12 0 01-.13.1c-4.28-.65-7.97 1.23-8 1.25a.14.14 0 01-.06.01zM36.79 4.77a15.86 15.86 0 00-5.19-2.05.12.12 0 01-.1-.15.12.12 0 01.15-.1c.03 0 3.07.6 5.2 2.07.06.04.08.12.04.17a.12.12 0 01-.1.06zM37.84 6.7c-.02 0-.05 0-.07-.03a14.65 14.65 0 00-6.02-2.83A14.32 14.32 0 0021.6 5.72a.12.12 0 01-.17-.03.12.12 0 01.03-.18A14.62 14.62 0 0131.8 3.6c2.14.43 4.2 1.4 6.12 2.88.05.04.06.12.02.17a.13.13 0 01-.1.05z" fill="#000"/>
  <path d="M20.23 9.63a.13.13 0 01-.1-.2 12.15 12.15 0 018.37-3.97c1.94-.07 3.94.35 5.95 1.26.06.03.1.1.06.17-.03.06-.1.09-.16.06a12.94 12.94 0 00-5.83-1.24c-1.52.05-3 .42-4.41 1.08-2.4 1.14-3.77 2.78-3.78 2.8a.13.13 0 01-.1.04zM38.78 11a.12.12 0 01-.11-.06c-1.1-2.24-3.58-3.59-3.6-3.6a.12.12 0 01.11-.22 9.6 9.6 0 013.7 3.71c.04.06.01.14-.05.17a.14.14 0 01-.05 0zM20.77 7.59a.12.12 0 01-.08-.22c.02-.02 2.02-1.62 5.18-2.48.07-.01.14.02.16.09a.13.13 0 01-.09.15c-3.11.85-5.07 2.42-5.09 2.43a.11.11 0 01-.08.03z" fill="#000"/>
  <path d="M38.45 8.71a.12.12 0 01-.1-.04c-.02-.04-2.8-3.4-8.04-3.97a.13.13 0 01-.1-.13c0-.07.06-.12.13-.12 2.8.3 4.87 1.4 6.13 2.25a10.3 10.3 0 012.08 1.81c.04.05.03.13-.02.17a.1.1 0 01-.08.03zM26.59 4.96a.12.12 0 01-.12-.1.12.12 0 01.08-.14c.06-.02 1.3-.33 3.13-.3.07 0 .13.05.12.12 0 .07-.05.12-.12.12-1.8-.02-3.05.3-3.07.3h-.02zM19.79 12.05c-.02 0-.04 0-.06-.02a.12.12 0 01-.05-.17c.01-.01 1-1.79 3.03-3.26 1.2-.86 2.5-1.46 3.9-1.76 1.74-.39 3.61-.32 5.57.19.07.01.1.08.1.15a.12.12 0 01-.16.09 11.6 11.6 0 00-5.45-.2c-1.37.3-2.65.89-3.8 1.73a11.08 11.08 0 00-2.97 3.18.12.12 0 01-.11.07zM38.78 13.45a.13.13 0 01-.12-.08c-1.46-4.22-5.64-5.76-5.68-5.78a.12.12 0 01.08-.23c.04.02 1.1.4 2.35 1.32a9.76 9.76 0 013.48 4.6.12.12 0 01-.07.17h-.04z" fill="#000"/>
  <path d="M19.79 15.18h-.02a.12.12 0 01-.1-.14A9.73 9.73 0 0125 8.44a.12.12 0 11.1.23 9.64 9.64 0 00-5.2 6.41c-.01.06-.06.1-.12.1zM38.78 16.45a.12.12 0 01-.12-.1c-.82-3.53-2.44-6-4.82-7.32-3.69-2.05-7.97-.63-8.02-.62a.12.12 0 01-.15-.07.12.12 0 01.07-.16c.05-.02 1.12-.38 2.68-.48 1.43-.1 3.56.02 5.54 1.12 2.44 1.36 4.1 3.88 4.94 7.48a.12.12 0 01-.1.15h-.02z" fill="#000"/>
  <path d="M21 21.65a.12.12 0 01-.12-.13c0-.01.03-1.31-.15-2.46-.1-.58-.34-2.13.02-3.89a7.78 7.78 0 013.46-5.1c.07-.05.87-.62 2.22-1.03a9.46 9.46 0 015.67.11c.06.02.1.1.08.16-.02.07-.1.1-.16.08a8.94 8.94 0 00-7.66.88c-3.57 2.35-3.81 6.06-3.39 8.75.18 1.17.16 2.5.16 2.5 0 .07-.06.13-.12.13zM38.03 19.5a.12.12 0 01-.12-.12c-.17-2.32-.79-5.57-2.82-7.92a6.44 6.44 0 00-2.4-1.83.12.12 0 01.1-.23c.04.02 1.22.44 2.47 1.88 2.1 2.4 2.73 5.72 2.9 8.08 0 .07-.05.13-.12.13h-.01z" fill="#000"/>
  <path d="M21.78 23.32h-.04a.12.12 0 01-.07-.16c0-.02.54-1.54.13-4.07-.41-2.57-.44-5.82 3.1-8.22a.12.12 0 01.17.04c.04.05.02.13-.04.17-3.41 2.31-3.38 5.48-2.98 7.98.22 1.35.17 2.4.08 3.06-.08.72-.23 1.1-.23 1.12a.13.13 0 01-.12.08zM34.4 12.18a.12.12 0 01-.09-.03 7 7 0 00-5.8-2.16c-1.69.14-2.94.76-2.95.77a.12.12 0 01-.17-.06.12.12 0 01.06-.16c.05-.03 1.3-.65 3.04-.8a7.34 7.34 0 016 2.23c.05.05.05.13 0 .18a.14.14 0 01-.09.03zM36.95 21.83a.12.12 0 01-.12-.13c.2-3.35-.35-5.6-.85-6.9a6.5 6.5 0 00-1.13-2.03.12.12 0 010-.17.12.12 0 01.18 0c.02.02.62.65 1.17 2.1a16.8 16.8 0 01.88 7.01c0 .07-.06.12-.13.12z" fill="#000"/>
  <path d="M22.55 24.36c-.02 0-.04 0-.06-.02a.12.12 0 01-.04-.17c.01-.03.9-1.46.45-4.39-.24-1.53-.45-3.3.06-4.9.6-1.87 2.06-3.16 4.46-3.93.07-.02.14.01.16.08a.12.12 0 01-.08.15c-2.32.75-3.73 1.99-4.3 3.78-.5 1.54-.29 3.28-.05 4.78.47 3.04-.45 4.5-.5 4.56a.13.13 0 01-.1.06zM35.9 23.89h-.01a.12.12 0 01-.11-.14c.27-3 .12-5.52-.44-7.51a7.8 7.8 0 00-2.19-3.8c-2.18-1.95-4.9-1.42-4.92-1.42a.12.12 0 01-.15-.1.12.12 0 01.1-.14c.02-.01 2.87-.56 5.13 1.47 2.3 2.06 3.22 5.94 2.71 11.52 0 .07-.06.12-.12.12z" fill="#000"/>
  <path d="M23.33 25.33c-.02 0-.05 0-.07-.02a.12.12 0 01-.03-.18c.02-.02 1.62-2.39.66-6.3a.13.13 0 01.09-.14c.06-.02.13.02.15.09.99 4.02-.63 6.4-.7 6.5a.12.12 0 01-.1.05zM23.85 18.08a.12.12 0 01-.13-.1c0-.04-.19-1.07.13-2.31a4.97 4.97 0 013.27-3.49c.54-.2 2.43-.77 4.32.18 1.5.76 2.56 2.24 3.18 4.4a.12.12 0 01-.08.16.12.12 0 01-.16-.09c-.6-2.1-1.62-3.52-3.05-4.25a5.32 5.32 0 00-4.12-.17 4.7 4.7 0 00-3.12 3.31 5.64 5.64 0 00-.13 2.21.12.12 0 01-.1.15h-.01zM34.55 25.5h-.02a.12.12 0 01-.1-.14c.44-2.54.46-4.52.4-5.73a12.11 12.11 0 00-.25-2.05.12.12 0 01.24-.06c0 .03.72 2.97-.15 7.89a.13.13 0 01-.12.1z" fill="#000"/>
  <path d="M29.07 25.33h-.03a.13.13 0 01-.09-.16c1.23-4.37.02-7.83 0-7.86a.12.12 0 01.08-.16c.06-.02.13.01.16.08a14.4 14.4 0 010 8 .12.12 0 01-.12.1zM27.98 28c-.02 0-.05 0-.07-.02a.12.12 0 01-.03-.18s.5-.72.88-2a.12.12 0 01.24.06c-.4 1.33-.9 2.06-.92 2.09a.12.12 0 01-.1.05z" fill="#000"/>
  <path d="M29.07 28l-.05-.01a.12.12 0 01-.06-.17 15.35 15.35 0 001.45-9.05c-.14-1-.53-2.63-1.47-2.51a.71.71 0 00-.52.3c-.2.28-.23.77-.08 1.37a13.37 13.37 0 01-.36 7.66c-.47 1.25-.97 1.93-1 1.96a.13.13 0 01-.17.03.13.13 0 01-.02-.17c.02-.03 2-2.74 1.66-7.19-.03-.47-.1-1.2-.36-2.23-.16-.68-.12-1.23.12-1.58.16-.23.4-.36.7-.4.6-.08 1.4.33 1.75 2.72.26 1.8.43 5.41-1.48 9.2a.11.11 0 01-.1.07z" fill="#000"/>
  <path d="M25.78 27.28c-.02 0-.04 0-.07-.02a.12.12 0 01-.03-.17c.03-.04 2.44-3.67 1.46-7.98-.41-1.56-.31-2.71.3-3.42.71-.82 1.85-.71 1.94-.7.06 0 .63.06 1.21.68.79.84 1.22 2.26 1.3 4.24 0 .07-.05.13-.12.13-.07 0-.12-.05-.13-.12-.05-1.3-.3-3.07-1.22-4.07-.53-.58-1.05-.62-1.06-.62-.02 0-1.1-.11-1.74.63-.55.63-.63 1.7-.23 3.19.52 2.31.09 4.41-.37 5.76-.5 1.47-1.1 2.38-1.13 2.41a.13.13 0 01-.1.06zM30.32 28l-.05-.01a.13.13 0 01-.06-.17 16.81 16.81 0 001.43-7.08.12.12 0 01.25-.01c0 .04.18 3.63-1.46 7.2a.12.12 0 01-.11.07zM24.24 26.1l-.06-.01a.12.12 0 01-.05-.17 10.33 10.33 0 001.17-4.4c.04-1.4-.16-2.16-.33-2.84l-.06-.27c-.75-3.05.8-4.17.86-4.22a.12.12 0 01.15.2c-.02.01-1.47 1.09-.77 3.96l.06.27c.18.7.38 1.47.34 2.9 0 .1-.04 2.53-1.2 4.52a.13.13 0 01-.11.06z" fill="#000"/>
  <path d="M33.25 26.48h-.03a.12.12 0 01-.1-.15c.38-1.69.59-3.26.62-4 .19-3.9-.3-6.37-1.55-7.77a3.92 3.92 0 00-3.82-1.34c-1.13.2-1.97.75-1.98.75a.13.13 0 01-.17-.03.13.13 0 01.04-.17c.03-.03.89-.58 2.07-.8 1.1-.19 2.7-.1 4.04 1.42 1.3 1.46 1.81 3.98 1.62 7.95-.03.75-.24 2.34-.62 4.04a.13.13 0 01-.12.1z" fill="#000"/>
  <path d="M31.77 27.35h-.04a.12.12 0 01-.08-.16c1.3-3.95 1.11-7.36.97-8.64-.2-1.74-.79-2.99-1.74-3.7-1-.75-2.08-.66-2.5-.58-.83.15-1.46.51-1.85 1.07-.62.91-.5 2.15-.38 2.8.4 2.15.38 3.04.3 3.91-.28 3.01-1.34 4.62-1.38 4.69a.12.12 0 01-.17.03.12.12 0 01-.04-.17c.01-.02 1.07-1.63 1.34-4.57.08-.85.1-1.73-.3-3.84-.12-.7-.24-2 .43-2.99a2.95 2.95 0 012.02-1.18 3.5 3.5 0 012.67.63 4 4 0 011.17 1.42c.34.67.57 1.5.67 2.45.15 1.3.35 4.75-.97 8.74a.12.12 0 01-.12.1z" fill="#000"/>
</svg>
