<svg width="72" height="28" viewBox="0 0 72 28" fill="none" xmlns="http://www.w3.org/2000/svg">
<path d="M63.2442 22.9656C63.9107 22.527 64.326 21.8973 64.6216 21.1748C64.8689 20.5701 65.0099 19.9384 65.1026 19.2932C65.1973 18.6286 65.2243 17.9602 65.2243 17.2918C65.2263 14.8113 65.2224 12.3328 65.2166 9.85229C65.2166 9.49876 65.1954 9.14523 65.1123 8.79557C65.0157 8.39568 64.7839 8.12909 64.4072 7.97648C64.3067 7.93591 64.2159 7.88182 64.1251 7.82193C63.9571 7.70988 63.8643 7.56499 63.8952 7.35829C63.9242 7.16317 64.0556 7.05306 64.2256 6.98351C64.3453 6.93329 64.4748 6.9101 64.6061 6.90624C65.4465 6.88692 66.2849 6.84056 67.1214 6.75556C67.8536 6.68215 68.5838 6.59521 69.3082 6.46385C69.4724 6.43487 69.6366 6.40783 69.8008 6.39044C70.0713 6.36146 70.2471 6.51794 70.2606 6.79033C70.2645 6.87919 70.2645 6.96999 70.2645 7.05885C70.2645 11.9522 70.2645 16.8436 70.2645 21.7369C70.2645 22.2489 70.2684 22.7608 70.3128 23.2727C70.336 23.5374 70.3901 23.7963 70.4789 24.0455C70.5774 24.3256 70.817 24.4743 71.0411 24.6385C71.1415 24.712 71.2517 24.7796 71.2613 24.9264C71.2729 25.108 71.1667 25.2567 70.9773 25.3185C70.8711 25.3533 70.761 25.3746 70.647 25.3746C70.0578 25.3746 69.4686 25.3881 68.8832 25.3185C68.01 25.2162 67.189 24.9805 66.5109 24.3835C66.0164 23.9469 65.7073 23.3944 65.5102 22.7724C65.4639 22.6275 65.4175 22.4826 65.3963 22.33C65.3924 22.2952 65.3866 22.2489 65.3441 22.245C65.2977 22.2411 65.2997 22.2933 65.2862 22.3242C64.9809 22.9463 64.61 23.5239 64.1309 24.0281C63.4934 24.7023 62.7342 25.1833 61.8572 25.477C60.8004 25.8305 59.7147 25.8904 58.6117 25.8092C58.0959 25.7706 57.5839 25.701 57.0836 25.5735C55.5594 25.1872 54.3713 24.3507 53.6237 22.9424C53.2547 22.2489 53.0306 21.507 52.8799 20.7382C52.6848 19.751 52.6384 18.7503 52.6365 17.7496C52.6288 15.1127 52.6326 12.4757 52.6307 9.83876C52.6307 9.50262 52.6056 9.16842 52.5361 8.83614C52.4491 8.41307 52.2154 8.12716 51.8174 7.96875C51.7266 7.93204 51.6436 7.87988 51.5624 7.82386C51.4059 7.71375 51.3171 7.57272 51.3383 7.37954C51.3615 7.1709 51.4929 7.04533 51.6822 6.96999C51.8 6.92363 51.9237 6.90431 52.0512 6.90044C52.8857 6.88113 53.7203 6.83476 54.5529 6.74976C55.2812 6.67635 56.0076 6.58942 56.7281 6.45805C56.8923 6.42908 57.0565 6.40203 57.2208 6.38464C57.4816 6.3576 57.6612 6.51214 57.6825 6.77487C57.6883 6.85022 57.6863 6.92749 57.6863 7.00476C57.6883 10.7429 57.6863 14.481 57.6902 18.2191C57.6902 19.0015 57.7694 19.78 57.9587 20.5411C58.1384 21.2636 58.4204 21.9436 58.942 22.4981C59.3999 22.9849 59.9678 23.2669 60.6208 23.3867C61.0535 23.4659 61.4882 23.4717 61.9228 23.4254C62.3015 23.3848 62.6627 23.2727 63.0027 23.0931C63.0819 23.0544 63.1689 23.0216 63.2442 22.9656Z" fill="black"/>
<path d="M1.50092 8.02484C1.29808 7.67131 1.01217 7.41244 0.641254 7.24437C0.486708 7.17483 0.336025 7.09369 0.200796 6.9913C0.0443179 6.87153 -0.0310236 6.70926 0.0114767 6.56437C0.0578407 6.40403 0.177614 6.31516 0.392048 6.3055C0.548526 6.29778 0.706937 6.30357 0.863415 6.31323C2.40695 6.40982 3.95242 6.42141 5.49788 6.38857C6.03687 6.37698 6.57392 6.33835 7.1129 6.31323C7.25199 6.30744 7.39108 6.29584 7.53017 6.3055C7.68665 6.31516 7.8354 6.35766 7.90109 6.5238C7.96097 6.67642 7.89722 6.87926 7.7562 6.9971C7.68086 7.05892 7.60165 7.12267 7.51472 7.1671C7.14187 7.35642 7.08199 7.63074 7.1496 8.01711C7.27324 8.72416 7.51472 9.4003 7.73108 10.0842C7.94552 10.7622 11.2721 21.1536 11.4924 21.8432C11.5407 21.992 11.5851 22.1407 11.6392 22.3088C11.7493 22.191 11.7667 22.0499 11.8111 21.9263C12.2303 20.7846 14.8692 13.4842 15.244 12.4565C15.3966 12.0353 15.5357 11.6084 15.5589 11.1563C15.5821 10.6618 15.441 10.2097 15.1841 9.79053C14.9503 9.40996 14.6722 9.05643 14.4616 8.66234C14.1737 8.1195 14.0347 7.54574 14.1776 6.93721C14.3573 6.16834 14.9059 5.56175 15.7984 5.48061C16.434 5.42266 17.0309 5.55982 17.5274 5.99448C17.8558 6.28232 18.0355 6.65903 18.1359 7.07631C18.3195 7.83552 18.2441 8.59086 18.0954 9.34621C17.9331 10.1672 17.6337 10.9438 17.3304 11.7185C16.9343 12.7153 12.7481 23.3752 12.3211 24.457C12.2284 24.6888 12.1511 24.9284 12.0352 25.1505C11.9232 25.365 11.7493 25.4925 11.5078 25.4751C10.8549 25.4751 10.5593 25.4886 10.086 25.4809C9.61076 25.4732 9.13359 25.479 8.65836 25.479C8.19086 25.479 8.07495 25.3862 7.91268 24.9438C7.52245 23.8871 7.12449 22.8323 6.73039 21.7776C6.35369 20.7769 1.63229 8.25279 1.50092 8.02484Z" fill="black"/>
<path d="M46.6093 21.4163C46.6093 21.7891 46.6112 22.162 46.6827 22.5309C46.7213 22.7299 46.7735 22.925 46.8623 23.1066C47.0768 23.5394 47.4361 23.721 47.9113 23.7152C48.2436 23.7113 48.5411 23.5877 48.8386 23.466C48.999 23.4003 49.1554 23.3191 49.3158 23.2554C49.4684 23.1936 49.621 23.1762 49.7524 23.3095C49.8818 23.4408 49.8799 23.5915 49.8335 23.7596C49.762 24.0185 49.5843 24.202 49.4143 24.3932C48.8541 25.0211 48.1547 25.4113 47.3337 25.5948C46.6073 25.7571 45.8771 25.7764 45.1391 25.7049C44.6137 25.6547 44.1037 25.5465 43.6207 25.3302C42.8094 24.967 42.2491 24.3662 41.9246 23.5374C41.6773 22.9057 41.5711 22.2489 41.5691 21.5785C41.5633 18.1592 41.5614 9.00617 41.5653 7.84707C41.5653 7.71764 41.5305 7.67707 41.3991 7.679C41.0668 7.68673 40.7346 7.6848 40.4023 7.679C40.2168 7.67514 40.0198 7.66741 39.9348 7.45877C39.8112 7.15161 39.8169 6.83479 39.9232 6.5257C39.9812 6.36149 40.1396 6.32092 40.296 6.30933C40.4351 6.29774 40.5742 6.30161 40.7133 6.30354C41.7179 6.32092 42.5988 5.97319 43.3947 5.38785C44.2466 4.76 44.8784 3.95636 45.286 2.97692C45.3536 2.81658 45.4077 2.65044 45.4811 2.49203C45.6588 2.10759 46.1418 2.09794 46.3968 2.24475C46.4934 2.30078 46.5513 2.39157 46.5745 2.50362C46.5957 2.61374 46.6035 2.72578 46.6035 2.83783C46.6035 3.94284 46.6054 5.04785 46.5996 6.15285C46.5996 6.2707 46.6305 6.30547 46.7503 6.30354C47.5462 6.29774 48.3402 6.30161 49.1361 6.30161C49.1999 6.30161 49.2617 6.30161 49.3254 6.30547C49.5553 6.31899 49.6963 6.41752 49.7369 6.63968C49.7852 6.89468 49.7968 7.15741 49.7079 7.41048C49.6558 7.55923 49.5534 7.65003 49.393 7.66548C49.308 7.67321 49.223 7.68093 49.138 7.68093C48.3479 7.68287 47.5559 7.6848 46.7658 7.679C46.6325 7.67707 46.5996 7.7215 46.5996 7.84901C46.6093 10.231 46.6073 19.2797 46.6093 21.4163Z" fill="black"/>
<path d="M63.2442 22.9656C63.1804 23.0409 63.0993 23.0854 63.0027 23.1008C63.0722 23.0371 63.1514 22.9888 63.2442 22.9656Z" fill="black"/>
<path d="M33.4264 0.90224C33.4129 0.90224 33.4013 0.900308 33.3878 0.896445C29.7212 -0.314815 26.5143 0.539055 26.4834 0.546783C26.4178 0.564169 26.3501 0.525533 26.3308 0.45985C26.3134 0.394168 26.3521 0.324622 26.4178 0.307235C26.4506 0.297576 29.7289 -0.573681 33.4651 0.660761C33.5308 0.682011 33.5655 0.751557 33.5443 0.81724C33.5269 0.869399 33.4786 0.90224 33.4264 0.90224Z" fill="black"/>
<path d="M24.142 2.20625C24.0937 2.20625 24.0474 2.17727 24.028 2.12898C24.0029 2.06523 24.0319 1.99375 24.0957 1.9667C24.113 1.95898 25.9502 1.21329 28.4771 1.04329C28.5466 1.03749 28.6046 1.08965 28.6084 1.1592C28.6123 1.22681 28.5621 1.2867 28.4925 1.29056C26.0082 1.45863 24.2077 2.18886 24.1884 2.19659C24.1729 2.20432 24.1575 2.20625 24.142 2.20625Z" fill="black"/>
<path d="M35.6847 2.80902C35.6674 2.80902 35.648 2.80516 35.6307 2.79743C32.4624 1.2848 29.2537 1.26742 29.2228 1.26742C29.1551 1.26742 29.0991 1.21139 29.0991 1.14378C29.0991 1.07616 29.1551 1.02014 29.2228 1.02014C29.2556 1.02014 32.5185 1.03753 35.7388 2.57527C35.8007 2.60425 35.8258 2.67959 35.7968 2.74141C35.7755 2.78391 35.7311 2.80902 35.6847 2.80902Z" fill="black"/>
<path d="M22.7356 3.81351C22.6912 3.81351 22.6467 3.7884 22.6255 3.7459C22.5946 3.68601 22.6178 3.61067 22.6777 3.57976C22.7144 3.56044 26.4776 1.64406 30.8339 2.31247C30.9015 2.32213 30.9478 2.38588 30.9382 2.4535C30.9285 2.52111 30.8648 2.56748 30.7972 2.55782C26.5201 1.90099 22.8303 3.78067 22.7916 3.79999C22.7743 3.80771 22.7549 3.81351 22.7356 3.81351Z" fill="black"/>
<path d="M36.7877 4.76593C36.7626 4.76593 36.7394 4.7582 36.7181 4.74468C34.626 3.30546 31.6316 2.71818 31.6007 2.71239C31.5331 2.69887 31.4887 2.63512 31.5022 2.5675C31.5157 2.49989 31.5795 2.45545 31.6471 2.46898C31.678 2.47477 34.7225 3.07171 36.8572 4.5399C36.9132 4.57854 36.9287 4.65581 36.8901 4.71184C36.8669 4.74854 36.8282 4.76593 36.7877 4.76593Z" fill="black"/>
<path d="M37.8426 6.69963C37.8155 6.69963 37.7904 6.6919 37.7672 6.67452C35.8818 5.22371 33.8572 4.26938 31.7515 3.84052C30.067 3.49858 28.3283 3.48892 26.58 3.81154C23.603 4.36211 21.6132 5.70474 21.5939 5.71826C21.5379 5.7569 21.4606 5.74337 21.422 5.68542C21.3834 5.6294 21.3988 5.55212 21.4548 5.51349C21.4742 5.49996 23.5084 4.12836 26.5356 3.56813C28.3148 3.23972 30.0863 3.24938 31.8017 3.59711C33.9441 4.0337 36.0035 5.00155 37.9199 6.47747C37.9739 6.51997 37.9836 6.59724 37.943 6.65134C37.916 6.68225 37.8793 6.69963 37.8426 6.69963Z" fill="black"/>
<path d="M20.2339 9.62638C20.2068 9.62638 20.1779 9.61672 20.1547 9.5974C20.1025 9.5549 20.0948 9.47569 20.1373 9.42353C20.1508 9.40615 21.5437 7.73318 23.9932 6.57408C25.4324 5.89214 26.9489 5.51737 28.5021 5.45941C30.4436 5.38793 32.4431 5.81101 34.4502 6.7209C34.5121 6.74988 34.541 6.82329 34.5121 6.8851C34.4831 6.94692 34.4097 6.9759 34.3479 6.94692C32.3793 6.05442 30.4166 5.63714 28.5176 5.70669C26.9992 5.76271 25.5155 6.12783 24.1091 6.79431C21.7079 7.93023 20.344 9.56649 20.3305 9.58194C20.3054 9.61092 20.2706 9.62638 20.2339 9.62638Z" fill="black"/>
<path d="M38.7775 11.0077C38.7311 11.0077 38.6867 10.9826 38.6654 10.9381C37.5739 8.70493 35.0896 7.35457 35.0664 7.34105C35.0065 7.30821 34.9833 7.23287 35.0162 7.17298C35.049 7.1131 35.1244 7.08991 35.1843 7.12275C35.2886 7.17878 37.7633 8.52527 38.8895 10.8299C38.9204 10.8918 38.8934 10.9652 38.8335 10.9961C38.8161 11.0038 38.7968 11.0077 38.7775 11.0077Z" fill="black"/>
<path d="M20.7729 7.58835C20.7362 7.58835 20.7015 7.5729 20.6764 7.54199C20.6339 7.4879 20.6416 7.41062 20.6937 7.36812C20.7131 7.35267 22.7144 5.74925 25.8749 4.89344C25.9406 4.87606 26.0082 4.91469 26.0275 4.98038C26.0449 5.04606 26.0063 5.11367 25.9406 5.13299C22.8284 5.97527 20.8695 7.54585 20.8502 7.56131C20.829 7.58062 20.8 7.58835 20.7729 7.58835Z" fill="black"/>
<path d="M38.4511 8.71265C38.4144 8.71265 38.3797 8.69719 38.3545 8.66629C38.3275 8.63151 35.5553 5.27205 30.3123 4.70216C30.2447 4.69443 30.1945 4.63262 30.2022 4.565C30.2099 4.49739 30.2717 4.44716 30.3394 4.45489C33.1328 4.75818 35.2134 5.84388 36.4671 6.69968C37.8271 7.62889 38.5187 8.47503 38.5458 8.50981C38.5883 8.5639 38.5806 8.64117 38.5265 8.68367C38.5052 8.70492 38.4782 8.71265 38.4511 8.71265Z" fill="black"/>
<path d="M26.5857 4.95908C26.5297 4.95908 26.4795 4.92238 26.4659 4.86635C26.4486 4.80067 26.4891 4.73306 26.5548 4.71567C26.607 4.70215 27.8472 4.39112 29.6824 4.41624C29.7501 4.41624 29.8061 4.47419 29.8042 4.54181C29.8042 4.60942 29.7481 4.66351 29.6805 4.66351H29.6786C27.8781 4.6384 26.6282 4.95329 26.6147 4.95522C26.607 4.95715 26.5973 4.95908 26.5857 4.95908Z" fill="black"/>
<path d="M19.7896 12.047C19.7703 12.047 19.749 12.0412 19.7297 12.0315C19.6698 11.9987 19.6486 11.9233 19.6814 11.8635C19.6911 11.8461 20.6821 10.0746 22.7086 8.60252C23.9006 7.73899 25.2103 7.14398 26.6051 6.83682C28.3476 6.45239 30.2235 6.51614 32.1823 7.02614C32.248 7.04353 32.2886 7.11114 32.2712 7.17683C32.2538 7.24251 32.1862 7.28308 32.1205 7.26569C30.2022 6.76534 28.367 6.70159 26.665 7.07637C25.305 7.3758 24.0242 7.95535 22.8612 8.79763C20.8753 10.2349 19.9055 11.9658 19.8959 11.9832C19.8746 12.0238 19.834 12.047 19.7896 12.047Z" fill="black"/>
<path d="M38.7776 13.4514C38.7255 13.4514 38.6791 13.4186 38.6598 13.3684C37.1993 9.14537 33.0169 7.60956 32.9763 7.59411C32.9126 7.57093 32.8778 7.49945 32.901 7.4357C32.9242 7.37195 32.9937 7.33717 33.0594 7.36036C33.1038 7.37581 34.1567 7.75638 35.4085 8.67787C36.5657 9.5298 38.1092 11.0192 38.8936 13.2872C38.9167 13.351 38.882 13.4224 38.8163 13.4456C38.8047 13.4495 38.7912 13.4514 38.7776 13.4514Z" fill="black"/>
<path d="M19.7895 15.1843C19.7818 15.1843 19.7741 15.1843 19.7664 15.1824C19.6987 15.1708 19.6543 15.1051 19.6659 15.0375C19.6736 14.9911 19.8784 13.9035 20.6376 12.5377C21.3389 11.2781 22.666 9.54721 25.0074 8.44413C25.0692 8.41516 25.1426 8.4422 25.1716 8.50402C25.2006 8.56584 25.1736 8.63925 25.1117 8.66823C20.7458 10.7256 19.9151 15.0375 19.9074 15.08C19.8997 15.1437 19.8475 15.1843 19.7895 15.1843Z" fill="black"/>
<path d="M38.7775 16.4497C38.7215 16.4497 38.6693 16.411 38.6577 16.3531C37.8406 12.8198 36.2198 10.3547 33.8378 9.03143C30.1499 6.97983 25.8651 8.39779 25.8226 8.41325C25.757 8.4345 25.6874 8.39973 25.6662 8.33597C25.6449 8.27029 25.6797 8.20075 25.7434 8.1795C25.7879 8.16404 26.86 7.80472 28.4152 7.69847C29.8524 7.60188 31.9794 7.71586 33.9576 8.817C36.4014 10.177 38.0647 12.6961 38.8973 16.3009C38.9127 16.3685 38.8702 16.4342 38.8046 16.4497C38.7968 16.4477 38.7872 16.4497 38.7775 16.4497Z" fill="black"/>
<path d="M21.0066 21.6463H21.0046C20.937 21.6443 20.881 21.5883 20.8829 21.5207C20.8829 21.5072 20.9061 20.207 20.7265 19.0634C20.6357 18.48 20.3922 16.9287 20.7458 15.1727C21.1804 13.0168 22.3473 11.2974 24.2134 10.0649C24.2752 10.0205 25.0769 9.44866 26.4331 9.04491C27.7042 8.66627 29.7211 8.37842 32.0972 9.15309C32.1629 9.17434 32.1977 9.24389 32.1764 9.30957C32.1552 9.37525 32.0856 9.41002 32.02 9.38877C27.5903 7.94569 24.3892 10.2426 24.3583 10.2658C24.3564 10.2678 24.3544 10.2678 24.3525 10.2697C20.7921 12.6169 20.5487 16.326 20.9718 19.0248C21.1534 20.1897 21.1302 21.511 21.1302 21.5246C21.1302 21.5941 21.0742 21.6463 21.0066 21.6463Z" fill="black"/>
<path d="M38.0299 19.4923C37.9661 19.4923 37.9101 19.442 37.9062 19.3764C37.744 17.062 37.1239 13.8107 35.0877 11.4597C33.8726 10.0572 32.7096 9.63606 32.698 9.63219C32.6343 9.60901 32.5995 9.53946 32.6227 9.47378C32.6459 9.41003 32.7154 9.37526 32.7811 9.39844C32.8313 9.41583 34.0059 9.8389 35.2635 11.2839C37.3537 13.6871 37.9874 17.0002 38.1535 19.359C38.1574 19.4266 38.1072 19.4865 38.0376 19.4903C38.0357 19.4923 38.0318 19.4923 38.0299 19.4923Z" fill="black"/>
<path d="M21.7813 23.3212C21.7678 23.3212 21.7523 23.3192 21.7388 23.3134C21.6751 23.2903 21.6422 23.2188 21.6654 23.155C21.6712 23.1396 22.2141 21.6154 21.8045 19.0943C21.3872 16.525 21.364 13.2679 24.8954 10.8724C24.9515 10.8338 25.0287 10.8493 25.0674 10.9053C25.106 10.9613 25.0906 11.0386 25.0345 11.0772C21.6191 13.3935 21.6461 16.5578 22.0499 19.0557C22.2681 20.406 22.216 21.4685 22.1349 22.1234C22.046 22.8363 21.903 23.2265 21.8972 23.242C21.8779 23.2903 21.8316 23.3212 21.7813 23.3212Z" fill="black"/>
<path d="M34.4001 12.1823C34.3672 12.1823 34.3363 12.1707 34.3112 12.1456C32.7348 10.5363 30.7856 9.81384 28.5176 9.9935C26.8196 10.1287 25.5716 10.7508 25.5581 10.7566C25.4963 10.7875 25.4228 10.7624 25.3919 10.7025C25.361 10.6407 25.3861 10.5673 25.446 10.5363C25.4982 10.5093 26.7442 9.88918 28.4887 9.74815C30.1037 9.61679 32.4547 9.8969 34.4889 11.9736C34.5372 12.0219 34.5353 12.1011 34.487 12.1494C34.4619 12.1707 34.431 12.1823 34.4001 12.1823Z" fill="black"/>
<path d="M36.952 21.8318C36.9501 21.8318 36.9462 21.8318 36.9443 21.8318C36.8767 21.8279 36.8245 21.77 36.8284 21.7004C37.0254 18.3487 36.4768 16.1 35.9803 14.8019C35.4433 13.3993 34.8541 12.7773 34.8483 12.7715C34.8 12.7232 34.8019 12.644 34.8502 12.5957C34.8985 12.5474 34.9777 12.5493 35.026 12.5976C35.0511 12.6227 35.65 13.2506 36.2044 14.6937C36.7125 16.015 37.2766 18.3062 37.0757 21.714C37.0718 21.7816 37.0177 21.8318 36.952 21.8318Z" fill="black"/>
<path d="M22.5541 24.3567C22.5309 24.3567 22.5077 24.3509 22.4865 24.3374C22.4285 24.3007 22.413 24.2234 22.4497 24.1654C22.4633 24.1442 23.3538 22.7108 22.8999 19.7821C22.6622 18.2463 22.4517 16.4748 22.9598 14.883C23.5586 13.011 25.0191 11.7244 27.4242 10.9478C27.4899 10.9266 27.5594 10.9633 27.5807 11.027C27.6019 11.0927 27.5652 11.1623 27.5015 11.1835C25.1775 11.9331 23.7692 13.1694 23.1974 14.9583C22.7047 16.4999 22.9115 18.2366 23.1452 19.7435C23.6166 22.7842 22.697 24.2408 22.6584 24.3007C22.6333 24.3354 22.5946 24.3567 22.5541 24.3567Z" fill="black"/>
<path d="M35.899 23.8873C35.8951 23.8873 35.8913 23.8873 35.8874 23.8873C35.8198 23.8815 35.7696 23.8216 35.7753 23.752C36.0477 20.7538 35.9009 18.2251 35.3445 16.2372C34.8867 14.6067 34.1487 13.3279 33.15 12.4354C30.9728 10.4881 28.2528 11.0155 28.2257 11.0193C28.1581 11.0328 28.0924 10.9903 28.0789 10.9227C28.0654 10.8551 28.1079 10.7894 28.1755 10.7759C28.2045 10.7701 31.0462 10.2195 33.3142 12.2499C35.6169 14.3092 36.5268 18.1864 36.0226 23.7733C36.0168 23.839 35.9627 23.8873 35.899 23.8873Z" fill="black"/>
<path d="M23.3343 25.3283C23.3092 25.3283 23.2841 25.3206 23.2629 25.3051C23.2068 25.2665 23.1933 25.1892 23.2319 25.1332C23.2513 25.1061 24.8489 22.7435 23.8868 18.8393C23.8714 18.7736 23.9119 18.706 23.9776 18.6886C24.0433 18.6731 24.1109 18.7137 24.1283 18.7794C25.1193 22.8015 23.5043 25.1757 23.4348 25.2742C23.4116 25.3109 23.373 25.3283 23.3343 25.3283Z" fill="black"/>
<path d="M23.8464 18.0821C23.7885 18.0821 23.7363 18.0415 23.7247 17.9816C23.717 17.9391 23.5296 16.9075 23.8503 15.6692C24.1478 14.5237 24.9572 12.9898 27.1228 12.1823C27.6579 11.9833 29.5473 11.4076 31.4405 12.3639C32.9338 13.1173 34.004 14.599 34.6222 16.7646C34.6415 16.8303 34.6029 16.8998 34.5372 16.9172C34.4715 16.9365 34.402 16.8979 34.3846 16.8322C33.7857 14.7362 32.758 13.3066 31.3284 12.5841C29.5241 11.6723 27.7198 12.2228 27.2078 12.4122C25.5522 13.0284 24.5033 14.1431 24.0898 15.7214C23.7788 16.9056 23.9623 17.9237 23.9643 17.9334C23.9759 18.001 23.9334 18.0647 23.8658 18.0782C23.8619 18.0821 23.8542 18.0821 23.8464 18.0821Z" fill="black"/>
<path d="M34.5488 25.508C34.5411 25.508 34.5353 25.508 34.5276 25.506C34.46 25.4944 34.4155 25.4307 34.4271 25.3631C34.8734 22.8208 34.8908 20.8406 34.827 19.6255C34.7575 18.3099 34.5797 17.5855 34.5778 17.5778C34.5604 17.5121 34.601 17.4445 34.6686 17.4271C34.7362 17.4116 34.8019 17.4503 34.8193 17.5179C34.827 17.5469 35.536 20.4852 34.6725 25.4056C34.6589 25.4655 34.6068 25.508 34.5488 25.508Z" fill="black"/>
<path d="M29.072 25.3283C29.0604 25.3283 29.0489 25.3264 29.0392 25.3244C28.9735 25.3051 28.9349 25.2375 28.9523 25.1718C30.1751 20.7962 28.9677 17.344 28.9542 17.3093C28.931 17.2455 28.9639 17.174 29.0295 17.1508C29.0933 17.1277 29.1648 17.1605 29.1879 17.2262C29.2015 17.261 30.4359 20.7827 29.1899 25.2394C29.1764 25.2935 29.1261 25.3283 29.072 25.3283Z" fill="black"/>
<path d="M27.9806 28C27.9555 28 27.9303 27.9923 27.9091 27.9769C27.8531 27.9382 27.8395 27.8609 27.8782 27.8049C27.884 27.7972 28.3785 27.0805 28.763 25.7919C28.7823 25.7263 28.8518 25.6896 28.9175 25.7089C28.9832 25.7282 29.0199 25.7977 29.0006 25.8634C28.6026 27.1945 28.1023 27.917 28.081 27.9479C28.0578 27.9826 28.0192 28 27.9806 28Z" fill="black"/>
<path d="M29.0721 28C29.0528 28 29.0334 27.9962 29.0161 27.9865C28.9542 27.9556 28.9311 27.8802 28.962 27.8204C30.8416 24.0919 30.6774 20.547 30.4147 18.7659C30.2679 17.7787 29.8834 16.1405 28.9426 16.2564C28.7108 16.2854 28.5331 16.3858 28.4172 16.5539C28.2182 16.8417 28.1892 17.3305 28.336 17.9294C28.591 18.9706 28.6683 19.726 28.7031 20.2051C28.8808 22.5754 28.4056 24.4454 27.9767 25.5949C27.5112 26.8448 27.0069 27.5248 26.9857 27.5538C26.9451 27.6079 26.8679 27.6194 26.8118 27.5789C26.7577 27.5383 26.7461 27.461 26.7867 27.405C26.806 27.378 28.7862 24.6657 28.4539 20.2225C28.4191 19.753 28.3438 19.0112 28.0926 17.9873C27.9265 17.3093 27.9671 16.7645 28.2105 16.411C28.3689 16.1811 28.6046 16.0458 28.9098 16.0072C29.5106 15.9338 30.3027 16.3433 30.6562 18.7272C30.9247 20.5373 31.0908 24.1402 29.1803 27.9305C29.1609 27.9768 29.1165 28 29.0721 28Z" fill="black"/>
<path d="M25.7839 27.2795C25.7607 27.2795 25.7356 27.2717 25.7144 27.2582C25.6583 27.2196 25.6429 27.1423 25.6815 27.0863C25.7066 27.0496 28.1214 23.4216 27.1439 19.1097C26.7286 17.5469 26.8252 16.3955 27.4356 15.6923C28.1504 14.8674 29.294 14.9775 29.381 14.9853C29.4428 14.9891 30.0069 15.0452 30.5903 15.6672C31.3766 16.5056 31.8132 17.9333 31.8904 19.9095C31.8924 19.9771 31.8402 20.0351 31.7707 20.039C31.703 20.0448 31.6451 19.9887 31.6412 19.9192C31.591 18.6133 31.3379 16.8476 30.4242 15.8546C29.8871 15.2712 29.3675 15.2326 29.3617 15.2326C29.3597 15.2326 29.3559 15.2326 29.3539 15.2326C29.3423 15.2306 28.2605 15.1166 27.6211 15.8565C27.0705 16.494 26.9913 17.5681 27.3854 19.0499C27.9109 21.3642 27.4762 23.4622 27.0183 24.8144C26.5238 26.2788 25.9133 27.1867 25.8882 27.2234C25.8612 27.2601 25.8225 27.2795 25.7839 27.2795Z" fill="black"/>
<path d="M30.32 28.0001C30.3026 28.0001 30.2852 27.9962 30.2678 27.9885C30.206 27.9595 30.179 27.8861 30.206 27.8243C31.8172 24.3103 31.6394 20.7769 31.6375 20.7422C31.6336 20.6745 31.6858 20.6147 31.7554 20.6108C31.823 20.6069 31.8829 20.6591 31.8867 20.7286C31.8886 20.7653 32.0683 24.3586 30.432 27.9286C30.4108 27.9749 30.3664 28.0001 30.32 28.0001Z" fill="black"/>
<path d="M24.2404 26.1049C24.2192 26.1049 24.1979 26.0991 24.1786 26.0875C24.1187 26.0528 24.0994 25.9774 24.1342 25.9175C25.2566 23.9818 25.3029 21.5419 25.3029 21.5187C25.3377 20.124 25.1426 19.3589 24.9726 18.6828C24.9494 18.592 24.9262 18.5012 24.905 18.4123C24.1612 15.3639 25.7067 14.2377 25.7724 14.1913C25.8284 14.1527 25.9057 14.1662 25.9443 14.2222C25.9829 14.2782 25.9694 14.3555 25.9153 14.3941C25.8999 14.4038 24.4452 15.4798 25.1465 18.3525C25.1677 18.4413 25.1909 18.5302 25.2141 18.621C25.3899 19.3107 25.5889 20.093 25.5522 21.5226C25.5502 21.6231 25.5058 24.0494 24.3506 26.0412C24.3254 26.0817 24.2829 26.1049 24.2404 26.1049Z" fill="black"/>
<path d="M33.2505 26.4797C33.2409 26.4797 33.2331 26.4797 33.2235 26.4759C33.1559 26.4604 33.1153 26.3947 33.1288 26.3291C33.5017 24.6406 33.7084 23.072 33.7431 22.3302C33.9286 18.4336 33.4341 15.9628 32.188 14.5584C31.1661 13.407 29.8833 12.9588 28.3727 13.2235C27.2387 13.4225 26.4003 13.9692 26.3925 13.973C26.3346 14.0097 26.2592 13.9943 26.2206 13.9383C26.1839 13.8803 26.1993 13.805 26.2554 13.7663C26.2921 13.7432 27.1459 13.1868 28.3302 12.9781C29.4313 12.785 31.027 12.8738 32.3735 14.3923C33.6659 15.8489 34.1797 18.3738 33.9924 22.3398C33.9576 23.0932 33.747 24.6773 33.3722 26.3812C33.3587 26.4392 33.3085 26.4797 33.2505 26.4797Z" fill="black"/>
<path d="M31.7707 27.351C31.7571 27.351 31.7455 27.349 31.732 27.3452C31.6663 27.3239 31.6316 27.2544 31.6528 27.1887C32.9587 23.242 32.7617 19.8342 32.6168 18.5515C32.4198 16.8089 31.8344 15.5629 30.8762 14.8481C29.8736 14.1005 28.8034 14.1932 28.388 14.2667C27.5457 14.4173 26.9218 14.7805 26.5335 15.3446C25.9095 16.2506 26.0254 17.487 26.149 18.1419C26.5566 20.2882 26.5257 21.1826 26.4465 22.05C26.1741 25.0637 25.1116 26.669 25.0672 26.7366C25.0286 26.7927 24.9513 26.8081 24.8953 26.7695C24.8392 26.7308 24.8238 26.6536 24.8624 26.5975C24.874 26.5821 25.9346 24.9729 26.2012 22.0268C26.2785 21.1768 26.3094 20.3017 25.9075 18.1863C25.7762 17.4928 25.6564 16.183 26.3306 15.2017C26.7576 14.5815 27.4356 14.1836 28.3455 14.0213C28.7918 13.9421 29.9451 13.8416 31.025 14.6472C31.4963 14.9988 31.8866 15.476 32.1879 16.0691C32.5299 16.7413 32.7559 17.5662 32.8641 18.5205C33.0109 19.8187 33.2099 23.2709 31.8885 27.264C31.8711 27.3181 31.8228 27.351 31.7707 27.351Z" fill="black"/>
</svg>
