<svg width="84" height="22" viewBox="0 0 84 22" fill="none" xmlns="http://www.w3.org/2000/svg">
<path d="M14.6558 7.3699L10.0676 19.0219C9.98454 19.244 9.81751 19.3831 9.59449 19.3831H7.09182C6.84174 19.3831 6.70271 19.272 6.61872 19.0219L1.72443 5.95153C1.27933 4.75525 1.05631 4.44918 0.473099 4.1991C0.195025 4.06007 0 3.94902 0 3.726C0 3.53098 0.139037 3.41994 0.528154 3.44793C1.0843 3.47592 2.00157 3.53098 3.44793 3.53098C4.75525 3.53098 5.58948 3.47499 6.08964 3.44793C6.45076 3.41994 6.5898 3.53098 6.5898 3.726C6.5898 3.97608 6.42277 4.06007 6.14469 4.2271C5.78357 4.47718 5.92261 4.92228 6.22774 5.95153L9.70553 16.7964L12.7643 8.37021C13.4875 6.3957 12.0132 6.08963 11.7911 4.67127C11.6241 3.69801 12.2642 2.66876 13.4595 2.75275C15.5451 2.89178 15.49 5.20036 14.6558 7.3699Z" fill="black"/>
<path d="M32.1698 11.374C32.1698 15.9631 29 19.6611 24.0497 19.6611C19.0994 19.6611 15.9575 15.9622 15.9575 11.374C15.9855 6.81375 19.1003 3.08681 24.0497 3.08681C29 3.08681 32.1698 6.81375 32.1698 11.374ZM20.3227 12.0132C20.9899 15.9062 22.8814 19.1601 25.4951 18.7149C28.0538 18.2148 28.4709 14.5709 27.8037 10.7338C27.1365 6.84081 25.245 3.58697 22.6593 4.03208C20.0727 4.53317 19.6276 8.17613 20.3227 12.0132Z" fill="black"/>
<path d="M41.3939 18.1868C40.8097 18.965 39.9475 19.6052 38.224 19.6052C35.8044 19.6052 34.609 18.4369 34.609 15.9342V4.58822H33.6358C33.2746 4.58822 33.1907 4.42119 33.1907 4.00408C33.1907 3.58697 33.2737 3.44793 33.6358 3.44793H33.9969C35.6653 3.44793 37.3067 2.02957 37.8349 0.361123C37.9179 0.139037 38.085 0 38.335 0C38.5851 0 38.8081 0.083049 38.8081 0.445105V3.44887H41.0327C41.3388 3.44887 41.4498 3.5879 41.4498 4.00501C41.4498 4.42212 41.3388 4.58916 41.0327 4.58916H38.8081V16.1302C38.8081 17.2425 39.0582 17.7986 39.6704 17.9097C40.1705 17.9927 40.5606 17.7426 40.8106 17.6596C41.1167 17.4925 41.2837 17.4375 41.4228 17.5765C41.5609 17.6866 41.5609 17.9097 41.3939 18.1868Z" fill="black"/>
<path d="M59.3576 18.938C59.3576 19.188 59.1355 19.2991 58.8015 19.2991H58.5514C57.161 19.2991 54.9364 19.2711 54.4353 16.6294C53.7402 18.1588 52.3778 19.6882 49.541 19.6882C45.536 19.6882 43.8405 17.5467 43.8405 13.0975V6.64672C43.8405 5.61747 43.7575 5.08931 43.2284 4.86723C42.9503 4.75619 42.7553 4.61715 42.7553 4.39413C42.7553 4.14405 42.9223 4.00501 43.2555 3.94902C44.0066 3.94902 45.6471 3.86598 47.5656 3.53191C47.8437 3.44886 48.0387 3.6159 48.0387 3.89304V13.0975C48.0387 15.6841 48.7339 17.7137 51.1535 17.7137C53.7672 17.7137 54.3234 14.933 54.3234 12.7354V6.64672C54.3234 5.61747 54.2403 5.08931 53.7112 4.86723C53.4332 4.75619 53.2111 4.61715 53.2111 4.39413C53.2111 4.14405 53.3781 4.00501 53.7392 3.94902C54.4624 3.94902 56.1308 3.86598 58.0494 3.53191C58.3274 3.44886 58.5225 3.6159 58.5225 3.89304V16.4353C58.5225 17.2695 58.5225 18.2428 58.9396 18.5209C59.1355 18.6879 59.3576 18.7709 59.3576 18.938Z" fill="black"/>
<path d="M61.195 18.0888C61.195 17.3246 61.7978 16.7078 62.5471 16.7078C63.2964 16.7078 63.9132 17.3246 63.9132 18.0888C63.9132 18.8381 63.2964 19.4409 62.5471 19.4409C61.7978 19.4409 61.195 18.8381 61.195 18.0888Z" fill="black"/>
<path d="M74.5603 15.4592C74.4865 18.1625 72.6651 19.7059 70.3285 19.4269C69.3291 19.3094 68.6974 18.7952 68.3157 18.1047V20.6904C68.3157 21.2484 68.4333 21.5283 68.8149 21.6161C68.9913 21.6748 69.079 21.7187 69.079 21.8363C69.079 21.9539 69.0053 22.0126 68.8 21.9977C68.521 21.9828 67.9919 21.9679 67.2715 21.9679C66.5512 21.9679 66.0519 21.9828 65.7879 21.9977C65.5826 22.0126 65.5089 21.9539 65.5089 21.8363C65.5089 21.7187 65.5966 21.6748 65.7589 21.6161C66.0529 21.4985 66.0818 21.2045 66.0818 20.6904V12.7998C66.0818 12.2707 66.0519 11.9917 65.7589 11.8741C65.6124 11.8153 65.5089 11.7416 65.5089 11.6241C65.5089 11.5065 65.5676 11.4328 65.7001 11.4178C66.1266 11.3441 67.0075 11.2564 67.9331 10.9326C68.0946 10.8887 68.1972 10.9177 68.2121 11.0791L68.2859 12.2987C68.7711 11.3581 69.5932 10.7115 70.9304 10.7115C73.2081 10.7133 74.648 12.5348 74.5603 15.4592ZM72.2675 14.9889C72.2377 12.7699 71.2831 11.5951 70.1521 11.6539C68.9176 11.6978 68.2121 13.035 68.2859 15.533C68.3446 17.7221 69.1966 18.7803 70.4162 18.7215C71.6507 18.6767 72.2974 17.0306 72.2675 14.9889Z" fill="black"/>
<path d="M83.1199 14.2835C83.09 14.4599 83.0023 14.5476 82.826 14.5476H77.551C77.5659 14.7538 77.6153 15.0851 77.6452 15.2903C78.0567 18.0086 80.5043 18.8232 82.5759 17.6624C82.7373 17.5747 82.84 17.5747 82.9137 17.6325C82.9874 17.7062 82.9874 17.8238 82.8838 17.9703C82.5022 18.4555 81.5177 19.4689 79.6953 19.4689C77.2859 19.4689 75.5522 17.8089 75.3758 15.4135C75.1845 12.8866 76.8595 10.7413 79.4462 10.7115C82.561 10.6835 83.2813 13.2104 83.1199 14.2835ZM80.2403 13.9457C81.1258 13.9457 81.1221 13.8468 81.1221 13.1376C81.1221 12.2549 80.5491 11.095 79.4471 11.095C78.3301 11.095 77.6247 12.4322 77.5519 13.9457H80.2403Z" fill="black"/>
</svg>
